<svg width="19" height="19" viewBox="0 0 19 19" fill="none" xmlns="http://www.w3.org/2000/svg">
<path d="M6.75753 9.84883C5.25089 9.84883 4.0337 11.066 4.05596 12.5578C4.07081 13.5152 4.59776 14.3465 5.37335 14.8104C5.10987 14.4059 4.95401 13.9271 4.94659 13.4113C4.92432 11.9195 6.14151 10.7023 7.64815 10.7023C7.94503 10.7023 8.23077 10.7506 8.49796 10.8359V7.84863C8.21964 7.80781 7.93389 7.78555 7.64815 7.78555H7.60733V9.98242C7.34014 9.89707 7.0544 9.84883 6.75753 9.84883ZM13.2702 0.890625H12.4761C12.6987 2.00762 13.3259 2.97988 14.2017 3.64043C13.6265 2.87969 13.2776 1.92969 13.2702 0.890625Z" fill="#F00044"/>
<path d="M17.8121 5.43711C17.5189 5.43711 17.2369 5.40742 16.9586 5.35547V7.49668C15.9492 7.49668 14.9695 7.3 14.0492 6.90664C13.4555 6.6543 12.9025 6.33145 12.3941 5.9418L12.409 12.5436C12.4016 14.0279 11.8152 15.4195 10.7539 16.4697C9.88926 17.3232 8.79453 17.8688 7.60703 18.0432C7.32871 18.084 7.04297 18.1063 6.75723 18.1063C5.48809 18.1063 4.27832 17.6943 3.29492 16.9336C3.40625 17.0672 3.525 17.1971 3.65488 17.3232C4.72363 18.3771 6.14121 18.9598 7.65156 18.9598C7.9373 18.9598 8.22305 18.9375 8.50137 18.8967C9.68887 18.7223 10.7836 18.1768 11.6482 17.3232C12.7096 16.273 13.2959 14.8814 13.3033 13.3971L13.2477 6.79531C13.7523 7.18496 14.3053 7.51152 14.9027 7.76016C15.8268 8.14981 16.8064 8.3502 17.8121 8.3502" fill="#F00044"/>
<path d="M3.64377 9.42969C4.70138 8.37949 6.10783 7.79688 7.60705 7.78574V6.99531C7.32873 6.95449 7.04299 6.93223 6.75724 6.93223C5.24318 6.93223 3.82189 7.51484 2.75314 8.57617C1.70295 9.61895 1.10177 11.0439 1.10549 12.5246C1.10549 14.0164 1.69552 15.4154 2.76056 16.473C2.93127 16.64 3.10568 16.7959 3.29123 16.9369C2.45256 15.9387 1.99611 14.6918 1.9924 13.3781C1.99611 11.8975 2.59357 10.4725 3.64377 9.42969ZM16.9586 5.35508V4.56094H16.9512C15.9195 4.56094 14.9695 4.21953 14.2051 3.64062C14.8694 4.51641 15.8416 5.13984 16.9586 5.35508Z" fill="#08FFF9"/>
<path d="M7.4957 16.0387C7.84824 16.0572 8.18594 16.009 8.49766 15.9088C9.57383 15.5563 10.3494 14.5543 10.3494 13.3742L10.3531 8.9582V0.890625H12.4758C12.4201 0.612305 12.3904 0.330273 12.3867 0.0371094H9.4625V8.10098L9.45879 12.517C9.45879 13.6971 8.6832 14.699 7.60703 15.0516C7.29531 15.1555 6.95762 15.2037 6.60508 15.1814C6.15605 15.1555 5.73672 15.0219 5.37305 14.8066C5.82949 15.5117 6.60879 15.9904 7.4957 16.0387Z" fill="#08FFF9"/>
<path d="M7.60705 18.0426C8.79455 17.8682 9.88927 17.3227 10.7539 16.4691C11.8153 15.4189 12.4016 14.0273 12.409 12.543L12.3942 5.94121C12.8988 6.33086 13.4518 6.65742 14.0492 6.90605C14.9733 7.2957 15.9529 7.49609 16.9586 7.49609V5.35488C15.8416 5.13965 14.8694 4.51621 14.2051 3.64043C13.3293 2.97988 12.6985 2.00762 12.4795 0.890625H10.3531V8.95449L10.3494 13.3705C10.3494 14.5506 9.57384 15.5525 8.49767 15.9051C8.18595 16.009 7.84826 16.0572 7.49572 16.035C6.60509 15.9867 5.82951 15.508 5.37306 14.8066C4.59748 14.3465 4.07053 13.5115 4.05568 12.5541C4.03342 11.0623 5.2506 9.84512 6.75724 9.84512C7.05412 9.84512 7.33986 9.89336 7.60705 9.97871V7.78184C6.10783 7.79297 4.70138 8.37559 3.64377 9.42578C2.59357 10.4686 1.9924 11.8936 1.99611 13.3705C1.99611 14.6842 2.45256 15.9311 3.29494 16.9293C4.28205 17.69 5.4881 18.102 6.75724 18.102C7.04299 18.1057 7.32873 18.0834 7.60705 18.0426Z" fill="black"/>
</svg>
