<svg width="24" height="24" viewBox="0 0 24 24" fill="none" xmlns="http://www.w3.org/2000/svg">
<path d="M6.95783 12.7238C6.83922 12.8187 6.77017 12.9623 6.77017 13.1142V19.5825C6.77017 20.0438 7.34166 20.259 7.64596 19.9123L10.1876 17.0165C10.3501 16.8314 10.6232 16.7922 10.8312 16.9241L15.4275 19.8391C15.6867 20.0035 16.0315 19.8977 16.1538 19.6162L23.0938 3.65433C23.2599 3.27242 22.9136 2.86677 22.5103 2.97083L1.19184 8.47238C0.75731 8.58451 0.679072 9.16799 1.06871 9.39064L5.07384 11.6793C5.21943 11.7625 5.39702 11.7672 5.54678 11.6917L8.56245 10.1733C9.0989 9.90317 9.56867 10.6351 9.09967 11.0103L6.95783 12.7238Z" fill="url(#paint0_linear_4138_35732)"/>
<defs>
<linearGradient id="paint0_linear_4138_35732" x1="11.7516" y1="2.84622" x2="11.7516" y2="33.3486" gradientUnits="userSpaceOnUse">
<stop stop-color="#FFC78D"/>
<stop offset="0.434814" stop-color="#DA6E00"/>
<stop offset="1" stop-color="#FFDEBD"/>
</linearGradient>
</defs>
</svg>
