<svg width="36" height="36" viewBox="0 0 36 36" fill="none" xmlns="http://www.w3.org/2000/svg">
<g filter="url(#filter0_i_3408_67833)">
<circle cx="18" cy="18" r="18" fill="white"/>
</g>
<g clip-path="url(#clip0_3408_67833)">
<path d="M14.2485 9C11.3543 9 9 11.3565 9 14.2515V21.7515C9 24.6457 11.3565 27 14.2515 27H21.7515C24.6457 27 27 24.6435 27 21.7485V14.2485C27 11.3543 24.6435 9 21.7485 9H14.2485ZM23.25 12C23.664 12 24 12.336 24 12.75C24 13.164 23.664 13.5 23.25 13.5C22.836 13.5 22.5 13.164 22.5 12.75C22.5 12.336 22.836 12 23.25 12ZM18 13.5C20.4818 13.5 22.5 15.5182 22.5 18C22.5 20.4818 20.4818 22.5 18 22.5C15.5182 22.5 13.5 20.4818 13.5 18C13.5 15.5182 15.5182 13.5 18 13.5ZM18 15C17.2044 15 16.4413 15.3161 15.8787 15.8787C15.3161 16.4413 15 17.2044 15 18C15 18.7956 15.3161 19.5587 15.8787 20.1213C16.4413 20.6839 17.2044 21 18 21C18.7956 21 19.5587 20.6839 20.1213 20.1213C20.6839 19.5587 21 18.7956 21 18C21 17.2044 20.6839 16.4413 20.1213 15.8787C19.5587 15.3161 18.7956 15 18 15Z" fill="url(#paint0_linear_3408_67833)"/>
</g>
<defs>
<filter id="filter0_i_3408_67833" x="0" y="0" width="38.25" height="38.25" filterUnits="userSpaceOnUse" color-interpolation-filters="sRGB">
<feFlood flood-opacity="0" result="BackgroundImageFix"/>
<feBlend mode="normal" in="SourceGraphic" in2="BackgroundImageFix" result="shape"/>
<feColorMatrix in="SourceAlpha" type="matrix" values="0 0 0 0 0 0 0 0 0 0 0 0 0 0 0 0 0 0 127 0" result="hardAlpha"/>
<feOffset dx="2.25" dy="2.25"/>
<feGaussianBlur stdDeviation="1.6875"/>
<feComposite in2="hardAlpha" operator="arithmetic" k2="-1" k3="1"/>
<feColorMatrix type="matrix" values="0 0 0 0 0 0 0 0 0 0 0 0 0 0 0 0 0 0 0.18 0"/>
<feBlend mode="normal" in2="shape" result="effect1_innerShadow_3408_67833"/>
</filter>
<linearGradient id="paint0_linear_3408_67833" x1="18.0004" y1="9.12997" x2="18.0004" y2="39.305" gradientUnits="userSpaceOnUse">
<stop stop-color="#FFC78D"/>
<stop offset="0.434814" stop-color="#DA6E00"/>
<stop offset="1" stop-color="#FFDEBD"/>
</linearGradient>
<clipPath id="clip0_3408_67833">
<rect width="18" height="18" fill="white" transform="translate(9 8.71484)"/>
</clipPath>
</defs>
</svg>
