<svg width="25" height="24" viewBox="0 0 25 24" fill="none" xmlns="http://www.w3.org/2000/svg">
<g clip-path="url(#clip0_5417_156625)">
<path d="M2.36747 2.00231C0.548824 3.89135 0.921038 5.89802 0.921038 11.9942C0.921038 17.0567 0.0377525 22.1318 4.66054 23.3265C6.10407 23.6978 18.8944 23.6978 20.336 23.3246C22.2607 22.828 23.8267 21.2668 24.0408 18.5446C24.0706 18.1647 24.0706 5.83052 24.0398 5.44288C23.8122 2.54327 22.0273 0.872167 19.6754 0.533702C19.1364 0.455595 19.0284 0.432452 16.2628 0.427631C6.45314 0.432452 4.30279 -0.00436923 2.36747 2.00231Z" fill="url(#paint0_linear_5417_156625)"/>
<path d="M12.4898 3.45356C8.98848 3.45356 5.66362 3.14209 4.39366 6.40138C3.86909 7.74752 3.94527 9.49577 3.94527 11.9991C3.94527 14.1957 3.87487 16.2602 4.39366 17.5958C5.66073 20.857 9.01259 20.5446 12.4879 20.5446C15.8407 20.5446 19.2977 20.8936 20.5831 17.5958C21.1086 16.2361 21.0314 14.5139 21.0314 11.9991C21.0314 8.6607 21.2156 6.50552 19.5966 4.88745C17.9573 3.24817 15.7404 3.45356 12.4859 3.45356H12.4898ZM11.7242 4.99352C19.0277 4.98195 19.9572 4.17002 19.4442 15.4493C19.262 19.4385 16.2245 19.0007 12.4908 19.0007C5.68291 19.0007 5.48716 18.806 5.48716 11.9952C5.48716 5.10538 6.02716 4.99738 11.7242 4.9916V4.99352ZM17.0509 6.41199C16.779 6.41199 16.5183 6.51998 16.3261 6.71221C16.1338 6.90445 16.0258 7.16517 16.0258 7.43702C16.0258 7.70888 16.1338 7.9696 16.3261 8.16183C16.5183 8.35406 16.779 8.46206 17.0509 8.46206C17.3227 8.46206 17.5835 8.35406 17.7757 8.16183C17.9679 7.9696 18.0759 7.70888 18.0759 7.43702C18.0759 7.16517 17.9679 6.90445 17.7757 6.71221C17.5835 6.51998 17.3227 6.41199 17.0509 6.41199ZM12.4898 7.61059C11.9136 7.61066 11.343 7.72422 10.8106 7.94479C10.2783 8.16537 9.79459 8.48864 9.38717 8.89615C8.56436 9.71914 8.10217 10.8353 8.1023 11.9991C8.10243 13.1628 8.56486 14.2789 9.38785 15.1017C10.2108 15.9245 11.327 16.3867 12.4908 16.3866C13.6545 16.3864 14.7706 15.924 15.5934 15.101C16.4162 14.278 16.8784 13.1619 16.8783 11.9981C16.8781 10.8343 16.4157 9.71828 15.5927 8.89546C14.7697 8.07265 13.6536 7.61047 12.4898 7.61059ZM12.4898 9.15056C16.2553 9.15056 16.2602 14.8476 12.4898 14.8476C8.72523 14.8476 8.71944 9.15056 12.4898 9.15056Z" fill="white"/>
</g>
<defs>
<linearGradient id="paint0_linear_5417_156625" x1="2.41184" y1="22.0923" x2="23.9207" y2="3.47668" gradientUnits="userSpaceOnUse">
<stop stop-color="#FFDD55"/>
<stop offset="0.5" stop-color="#FF543E"/>
<stop offset="1" stop-color="#C837AB"/>
</linearGradient>
<clipPath id="clip0_5417_156625">
<rect width="23.1429" height="23.1429" fill="white" transform="translate(0.919922 0.429688)"/>
</clipPath>
</defs>
</svg>
