<svg width="36" height="36" viewBox="0 0 36 36" fill="none" xmlns="http://www.w3.org/2000/svg">
<g filter="url(#filter0_i_3408_67841)">
<circle cx="18" cy="18" r="18" fill="white"/>
</g>
<g clip-path="url(#clip0_3408_67841)">
<path d="M8.29922 3C5.50277 3 3.19922 5.25838 3.19922 8V28C3.19922 30.7416 5.50277 33 8.29922 33H28.6992C31.4957 33 33.7992 30.7416 33.7992 28V8C33.7992 5.25838 31.4957 3 28.6992 3H8.29922ZM8.29922 6.33333H28.6992C29.6598 6.33333 30.3992 7.05828 30.3992 8V28C30.3992 28.9417 29.6598 29.6667 28.6992 29.6667H8.29922C7.33867 29.6667 6.59922 28.9417 6.59922 28V8C6.59922 7.05828 7.33867 6.33333 8.29922 6.33333ZM18.4992 9.66667V21.3333C18.4992 22.275 17.7598 23 16.7992 23C15.8387 23 15.0992 22.275 15.0992 21.3333C15.0992 20.3916 15.8387 19.6667 16.7992 19.6667V16.3333C14.0028 16.3333 11.6992 18.5917 11.6992 21.3333C11.6992 24.0749 14.0028 26.3333 16.7992 26.3333C19.5957 26.3333 21.8992 24.0749 21.8992 21.3333V15.054C22.9467 15.7856 24.0397 16.3333 25.2992 16.3333V13C25.2188 13 24.0458 12.6349 23.2273 11.9355C22.4089 11.2362 21.8992 10.3583 21.8992 9.66667H18.4992Z" fill="url(#paint0_linear_3408_67841)"/>
</g>
<defs>
<filter id="filter0_i_3408_67841" x="0" y="0" width="38.25" height="38.25" filterUnits="userSpaceOnUse" color-interpolation-filters="sRGB">
<feFlood flood-opacity="0" result="BackgroundImageFix"/>
<feBlend mode="normal" in="SourceGraphic" in2="BackgroundImageFix" result="shape"/>
<feColorMatrix in="SourceAlpha" type="matrix" values="0 0 0 0 0 0 0 0 0 0 0 0 0 0 0 0 0 0 127 0" result="hardAlpha"/>
<feOffset dx="2.25" dy="2.25"/>
<feGaussianBlur stdDeviation="1.6875"/>
<feComposite in2="hardAlpha" operator="arithmetic" k2="-1" k3="1"/>
<feColorMatrix type="matrix" values="0 0 0 0 0 0 0 0 0 0 0 0 0 0 0 0 0 0 0.18 0"/>
<feBlend mode="normal" in2="shape" result="effect1_innerShadow_3408_67841"/>
</filter>
<linearGradient id="paint0_linear_3408_67841" x1="18.4999" y1="3.21661" x2="18.4999" y2="53.5083" gradientUnits="userSpaceOnUse">
<stop stop-color="#FFC78D"/>
<stop offset="0.434814" stop-color="#DA6E00"/>
<stop offset="1" stop-color="#FFDEBD"/>
</linearGradient>
<clipPath id="clip0_3408_67841">
<rect width="17" height="20" fill="white" transform="translate(10 8)"/>
</clipPath>
</defs>
</svg>
