<svg width="350" height="34" viewBox="0 0 350 34" fill="none" xmlns="http://www.w3.org/2000/svg">
<path d="M48.6052 13.7043L45.7754 12.5218C43.712 11.6425 42.7098 10.5207 42.7098 9.0957C42.7098 8.06484 43.093 7.21589 43.8889 6.54886C44.6848 5.85151 45.6575 5.518 46.8366 5.518C47.8093 5.518 48.5757 5.73023 49.1948 6.12438C49.7843 6.48822 50.4033 7.21589 51.0518 8.39835L54.5006 6.27599C52.6731 3.00147 50.1085 1.39453 46.8661 1.39453C44.4489 1.39453 42.4445 2.1222 40.8233 3.60786C39.2021 5.0632 38.3767 6.91269 38.3767 9.0957C38.3767 12.3399 40.3222 14.7958 44.1837 16.4634L46.925 17.6458C47.6325 17.949 48.2515 18.2825 48.7526 18.6464C49.2537 18.9799 49.6959 19.3437 50.0201 19.7682C50.3444 20.1623 50.5801 20.5868 50.7275 21.0719C50.8749 21.5571 50.9634 22.0725 50.9634 22.6182C50.9634 24.0129 50.5212 25.1954 49.6369 26.105C48.7526 27.0146 47.662 27.4694 46.3355 27.4694C44.6553 27.4694 43.3583 26.8327 42.5035 25.5896C42.0024 24.9225 41.6781 23.7704 41.4718 22.0422L37.1387 23.0124C37.5219 25.7108 38.5241 27.8332 40.0864 29.3189C41.6781 30.8045 43.712 31.5625 46.1586 31.5625C48.7526 31.5625 50.9044 30.6832 52.6436 28.9247C54.3827 27.1965 55.2376 24.9832 55.2376 22.2847C55.2376 20.2836 54.7069 18.6161 53.6458 17.2213C52.5551 15.8266 50.875 14.6745 48.6052 13.7043Z" fill="#0A2C4E"/>
<path d="M65.4414 5.49456H71.9263V31.5391H76.2005V5.49456H82.6855V1.37109H65.4414V5.49456Z" fill="#0A2C4E"/>
<path d="M108.092 15.1968C109.242 13.7112 109.802 11.9526 109.802 9.89089C109.802 7.25309 108.888 5.13072 107.06 3.52379C105.41 2.06845 102.698 1.37109 98.9837 1.37109H93.9727V31.5391H98.2468V18.5623H99.0132L107.09 31.5391H112.307L103.553 18.0469C105.439 17.6224 106.943 16.6825 108.092 15.1968ZM98.2468 14.7117V5.49456H99.7796C103.7 5.49456 105.675 6.98022 105.675 9.95153C105.675 13.1351 103.641 14.7117 99.6027 14.7117H98.2468Z" fill="#0A2C4E"/>
<path d="M147.234 8.31428C147.234 11.3766 146.203 13.984 144.169 16.1064C142.135 18.2288 139.629 19.2596 136.652 19.2596C133.911 19.2596 131.523 18.2288 129.43 16.1671C127.337 14.1053 126.276 11.4675 126.276 8.25364C126.276 5.58552 127.043 3.31155 128.575 1.37109H123.594C122.503 3.43282 121.973 5.70679 121.973 8.193C121.973 12.8319 123.564 16.6218 126.777 19.4719C129.666 22.0794 132.968 23.3831 136.593 23.3831C140.72 23.3831 144.228 21.9278 147.146 18.9868C150.064 16.0761 151.509 12.5287 151.509 8.34459C151.509 5.79775 150.949 3.46314 149.858 1.37109H144.906C146.468 3.31155 147.234 5.61584 147.234 8.31428Z" fill="#0A2C4E"/>
<path d="M136.831 24.1367C132.763 24.1367 129.255 25.5921 126.366 28.5331C125.217 29.6852 124.303 30.9283 123.625 32.2624H128.607C128.842 31.9592 129.078 31.6863 129.344 31.4134C131.377 29.2911 133.854 28.2602 136.801 28.2602C139.749 28.2602 142.225 29.3214 144.229 31.4134C144.495 31.6863 144.731 31.9592 144.966 32.2624H149.918C149.241 30.9586 148.327 29.7155 147.236 28.5634C144.318 25.6224 140.869 24.1367 136.831 24.1367Z" fill="#0A2C4E"/>
<path d="M14.0016 1.37109L0 32.2667H4.59841L7.75247 25.2023L9.52106 21.0788L13.9132 11.1946L18.0989 21.0788L19.838 25.2023L22.8152 32.2667H27.4726L14.0016 1.37109Z" fill="#0A2C4E"/>
<path d="M215.417 1.37109L201.445 32.2667H206.044L209.168 25.2023L210.966 21.0788L215.358 11.1946L219.544 21.0788L221.283 25.2023L224.231 32.2667H228.918L215.417 1.37109Z" fill="#0A2C4E"/>
<path d="M177.512 23.7705L167.43 0L161.24 32.6239H165.662L168.904 13.5832L177.512 33.776L186.119 13.6741L189.361 32.6239H193.812L187.593 0L177.512 23.7705Z" fill="#0A2C4E"/>
<path d="M238.319 2.09961V6.22307H250.699L236.02 32.6314H257.508V28.508H243.064L257.744 2.09961H238.319Z" fill="#0A2C4E"/>
<path d="M271.778 2.09961H267.475V32.6011H271.778V2.09961Z" fill="#0A2C4E"/>
<path d="M305.588 23.6517L283.834 1.60938V32.6263H288.138V10.8872L309.892 33.1114V2.09449H305.588V23.6517Z" fill="#0A2C4E"/>
<path d="M336.95 16.8936V20.9867H344.438C344.261 23.1091 343.288 24.9889 341.519 26.5656C339.633 28.2634 337.54 29.1427 335.3 29.1427C332.323 29.1427 329.729 27.9299 327.606 25.565C325.484 23.2001 324.393 20.4107 324.393 17.3181C324.393 14.0436 325.484 11.2542 327.636 8.98019C329.788 6.70622 332.47 5.55408 335.624 5.55408C337.304 5.55408 338.955 5.97855 340.547 6.8275C342.138 7.67645 343.465 8.82859 344.467 10.2536L344.703 10.5871L347.739 7.58549L347.533 7.34293C346.088 5.49344 344.29 4.0381 342.168 3.00724C340.046 1.97637 337.776 1.46094 335.477 1.46094C331.232 1.46094 327.547 3.03755 324.6 6.13015C321.622 9.22275 320.119 13.043 320.119 17.4394C320.119 21.7144 321.593 25.4437 324.511 28.5666C327.429 31.6896 330.996 33.2662 335.123 33.2662C339.22 33.2662 342.64 31.8412 345.234 29.0518C347.857 26.2624 349.183 22.6846 349.183 18.4399V16.8936H336.95Z" fill="#0A2C4E"/>
</svg>
