<svg xmlns="http://www.w3.org/2000/svg" width="14" height="16" viewBox="0 0 14 16" fill="none">
  <path d="M12.6491 15.1648C12.1578 15.6953 11.4611 15.9999 10.738 15.9999H3.26183C2.53864 15.9999 1.84201 15.6953 1.35061 15.1648C0.859234 14.6344 0.608984 13.9165 0.664296 13.1952L1.37905 4.18931C1.42339 3.61047 1.91417 3.15625 2.49583 3.15625H11.5039C12.0856 3.15625 12.5764 3.61047 12.6207 4.19056L13.3351 13.194C13.3908 13.9165 13.1405 14.6344 12.6491 15.1648Z" fill="url(#paint0_linear_4036_5936)"/>
  <path d="M10.0921 3.09297V5.24753C10.0921 5.5065 9.88249 5.71613 9.62352 5.71613C9.36486 5.71613 9.15493 5.5065 9.15493 5.24753V3.09297C9.15493 1.90431 8.18808 0.937156 6.99943 0.937156H6.99536C5.80858 0.939344 4.84393 1.90556 4.84393 3.09297V5.24753C4.84393 5.5065 4.63399 5.71613 4.37533 5.71613C4.11636 5.71613 3.90674 5.5065 3.90674 5.24753V3.09297C3.90674 1.38888 5.29186 0.0021875 6.99533 0H6.99939C8.7048 0 10.0921 1.38762 10.0921 3.09297Z" fill="url(#paint1_linear_4036_5936)"/>
  <defs>
    <linearGradient id="paint0_linear_4036_5936" x1="0.656738" y1="3.15625" x2="14.7431" y2="4.93971" gradientUnits="userSpaceOnUse">
      <stop stop-color="#102841"/>
      <stop offset="1" stop-color="#1359A1"/>
    </linearGradient>
    <linearGradient id="paint1_linear_4036_5936" x1="-7.37703" y1="-10.5237" x2="6.42843" y2="19.6679" gradientUnits="userSpaceOnUse">
      <stop offset="0.402843" stop-color="#F6BB91"/>
      <stop offset="0.907674" stop-color="white"/>
    </linearGradient>
  </defs>
</svg>