<svg width="12" height="12" viewBox="0 0 12 12" fill="none" xmlns="http://www.w3.org/2000/svg">
<g clip-path="url(#clip0_5433_211356)">
<path d="M6 12C9.31371 12 12 9.31371 12 6C12 2.68629 9.31371 0 6 0C2.68629 0 0 2.68629 0 6C0 9.31371 2.68629 12 6 12Z" fill="white"/>
<path d="M6.15127 7.34411C6.41626 7.60909 6.41626 8.06335 6.15127 8.32833L5.60238 8.87723C5.33739 9.14221 4.88313 9.14221 4.61815 8.87723L2.21436 6.45452C1.94938 6.18953 1.94938 5.73527 2.21436 5.47029L2.76326 4.92139C3.02824 4.65641 3.4825 4.65641 3.74749 4.92139L6.15127 7.34411Z" fill="#29CC97"/>
<path d="M8.2534 3.15968C8.51838 2.89469 8.97264 2.89469 9.23763 3.15968L9.78652 3.70857C10.0515 3.97356 10.0515 4.42781 9.78652 4.6928L5.62249 8.83791C5.3575 9.10289 4.90324 9.10289 4.63826 8.83791L4.08936 8.28901C3.82438 8.02403 3.82438 7.56977 4.08936 7.30479L8.2534 3.15968Z" fill="#29CC97"/>
</g>
<defs>
<clipPath id="clip0_5433_211356">
<rect width="12" height="12" fill="white"/>
</clipPath>
</defs>
</svg>
