<svg width="33" height="32" viewBox="0 0 33 32" fill="none" xmlns="http://www.w3.org/2000/svg">
<g clip-path="url(#clip0_3069_230390)">
<path d="M16.5 32C25.3366 32 32.5 24.8366 32.5 16C32.5 7.16344 25.3366 0 16.5 0C7.66344 0 0.5 7.16344 0.5 16C0.5 24.8366 7.66344 32 16.5 32Z" fill="#36BA61"/>
<path d="M16.9034 19.5843C17.61 20.2909 17.61 21.5023 16.9034 22.2089L15.4397 23.6726C14.733 24.3792 13.5217 24.3792 12.8151 23.6726L6.40497 17.212C5.69834 16.5054 5.69834 15.2941 6.40497 14.5874L7.86869 13.1237C8.57532 12.4171 9.78667 12.4171 10.4933 13.1237L16.9034 19.5843Z" fill="white"/>
<path d="M22.5071 8.42841C23.2137 7.72178 24.4251 7.72178 25.1317 8.42841L26.5954 9.89213C27.3021 10.5988 27.3021 11.8101 26.5954 12.5167L15.4913 23.5704C14.7847 24.277 13.5734 24.277 12.8667 23.5704L11.403 22.1066C10.6964 21.4 10.6964 20.1887 11.403 19.482L22.5071 8.42841Z" fill="white"/>
</g>
<defs>
<clipPath id="clip0_3069_230390">
<rect width="32" height="32" fill="white" transform="translate(0.5)"/>
</clipPath>
</defs>
</svg>
