<svg width="20" height="24" viewBox="0 0 20 24" fill="none" xmlns="http://www.w3.org/2000/svg">
<path d="M13 4.5H7C6.58581 4.5 6.25 4.16419 6.25 3.75V2.25C6.25 1.00936 7.25936 0 8.5 0H11.5C12.7406 0 13.75 1.00936 13.75 2.25V3.75C13.75 4.16419 13.4142 4.5 13 4.5ZM7.75 3H12.25V2.25C12.25 1.83647 11.9135 1.5 11.5 1.5H8.5C8.08647 1.5 7.75 1.83647 7.75 2.25V3Z" fill="url(#paint0_linear_4138_70587)"/>
<path d="M18.624 7.53562L18.5898 8.25L18.5185 9.75L17.942 21.8569C17.8848 23.0588 16.8976 24 15.6948 24H4.30508C3.10227 24 2.11508 23.0588 2.0579 21.8569L1.48133 9.75L1.41008 8.25L1.37586 7.53562C1.36602 7.33078 1.44055 7.13109 1.58211 6.9825C1.72368 6.83391 1.91961 6.75 2.12493 6.75H17.8749C18.0802 6.75 18.2762 6.83391 18.4177 6.9825C18.5593 7.13109 18.6338 7.33078 18.624 7.53562Z" fill="url(#paint1_linear_4138_70587)"/>
<path d="M19.75 4.875V7.5C19.75 7.91437 19.4144 8.25 19 8.25H1C0.585625 8.25 0.25 7.91437 0.25 7.5V4.875C0.25 3.84094 1.09094 3 2.125 3H17.875C18.9091 3 19.75 3.84094 19.75 4.875Z" fill="url(#paint2_linear_4138_70587)"/>
<path d="M10 22.5C9.58581 22.5 9.25 22.1642 9.25 21.75V12C9.25 11.5858 9.58581 11.25 10 11.25C10.4142 11.25 10.75 11.5858 10.75 12V21.75C10.75 22.1642 10.4142 22.5 10 22.5ZM13.75 22.5C13.3358 22.5 13 22.1642 13 21.75V12C13 11.5858 13.3358 11.25 13.75 11.25C14.1642 11.25 14.5 11.5858 14.5 12V21.75C14.5 22.1642 14.1642 22.5 13.75 22.5ZM6.25 22.5C5.83581 22.5 5.5 22.1642 5.5 21.75V12C5.5 11.5858 5.83581 11.25 6.25 11.25C6.66419 11.25 7 11.5858 7 12V21.75C7 22.1642 6.66419 22.5 6.25 22.5Z" fill="url(#paint3_linear_4138_70587)"/>
<defs>
<linearGradient id="paint0_linear_4138_70587" x1="10.0002" y1="0.032492" x2="10.0002" y2="7.57624" gradientUnits="userSpaceOnUse">
<stop stop-color="#FFE5CB"/>
<stop offset="1" stop-color="#EEC093"/>
</linearGradient>
<linearGradient id="paint1_linear_4138_70587" x1="10.0003" y1="6.87455" x2="10.0003" y2="29" gradientUnits="userSpaceOnUse">
<stop offset="0.270311" stop-color="#E0B181"/>
<stop offset="1" stop-color="#BE9367"/>
</linearGradient>
<linearGradient id="paint2_linear_4138_70587" x1="10.0004" y1="3.03791" x2="10.0004" y2="8.24324" gradientUnits="userSpaceOnUse">
<stop stop-color="#E0B181"/>
<stop offset="1" stop-color="#BE9367"/>
</linearGradient>
<linearGradient id="paint3_linear_4138_70587" x1="10.0002" y1="11.3312" x2="10.0002" y2="30.1906" gradientUnits="userSpaceOnUse">
<stop stop-color="#FFE5CB"/>
<stop offset="1" stop-color="#EEC093"/>
</linearGradient>
</defs>
</svg>
