<svg xmlns="http://www.w3.org/2000/svg" width="18" height="18" viewBox="0 0 18 18" fill="none">
  <path d="M0.882414 16.9765C1.06433 17.1584 1.33561 17.2127 1.57498 17.1169L6.06228 15.3137C6.14207 15.2818 6.21547 15.2339 6.27611 15.1733L16.2943 5.15506C17.2741 4.15611 17.2614 2.54758 16.2624 1.56458C15.2762 0.594357 13.6932 0.594357 12.7039 1.56458L2.68882 11.5828C2.62818 11.6435 2.58031 11.7169 2.5484 11.7966L0.741987 16.2839C0.643049 16.5233 0.700497 16.7946 0.882414 16.9765Z" fill="url(#paint0_linear_4263_33364)"/>
  <path d="M13.7121 7.73373L14.9185 6.51776L11.3503 2.9209L10.1471 4.13687L13.7121 7.73373Z" fill="url(#paint1_linear_4263_33364)"/>
  <defs>
    <linearGradient id="paint0_linear_4263_33364" x1="18.8678" y1="-2.04591" x2="8.77186" y2="16.4777" gradientUnits="userSpaceOnUse">
      <stop offset="0.155949" stop-color="#17395C"/>
      <stop offset="0.764672" stop-color="#2365AA" stop-opacity="0.89"/>
    </linearGradient>
    <linearGradient id="paint1_linear_4263_33364" x1="12.5327" y1="2.96389" x2="10.7887" y2="9.33545" gradientUnits="userSpaceOnUse">
      <stop stop-color="#FFE5CB"/>
      <stop offset="0.408938" stop-color="#EEC093"/>
    </linearGradient>
  </defs>
</svg>