<svg xmlns="http://www.w3.org/2000/svg" width="18" height="18" viewBox="0 0 18 18" fill="none">
  <path d="M0.627266 17.3743C0.818279 17.5653 1.10312 17.6223 1.35446 17.5218L6.06612 15.6284C6.1499 15.5949 6.22698 15.5446 6.29065 15.4809L16.8098 4.96179C17.8386 3.91289 17.8252 2.22393 16.7763 1.19179C15.7408 0.17305 14.0786 0.17305 13.0398 1.19179L2.524 11.7109C2.46033 11.7746 2.41006 11.8517 2.37655 11.9355L0.479818 16.6471C0.375933 16.8985 0.436253 17.1833 0.627266 17.3743Z" fill="url(#paint0_linear_690_12825)"/>
  <path d="M14.0985 7.66871L15.3652 6.39194L11.6187 2.61523L10.3553 3.89201L14.0985 7.66871Z" fill="#F8F8F8"/>
  <path d="M14.0985 7.66871L15.3652 6.39194L11.6187 2.61523L10.3553 3.89201L14.0985 7.66871Z" fill="url(#paint1_linear_690_12825)"/>
  <defs>
    <linearGradient id="paint0_linear_690_12825" x1="9.00047" y1="0.580859" x2="2.83454" y2="23.303" gradientUnits="userSpaceOnUse">
      <stop stop-color="#FFE5CB"/>
      <stop offset="0.408938" stop-color="#EEC093"/>
    </linearGradient>
    <linearGradient id="paint1_linear_690_12825" x1="11.1436" y1="1.71289" x2="16.3315" y2="6.02453" gradientUnits="userSpaceOnUse">
      <stop offset="0.155949" stop-color="#17395C"/>
      <stop offset="0.764672" stop-color="#66A6E8" stop-opacity="0.89"/>
    </linearGradient>
  </defs>
</svg>