<svg width="20" height="20" viewBox="0 0 20 20" fill="none" xmlns="http://www.w3.org/2000/svg">
<g clip-path="url(#clip0_3069_230355)">
<path d="M0.833577 9.99805C0.833577 4.9443 4.9465 0.83138 10.0002 0.83138C15.054 0.83138 19.1669 4.9443 19.1669 9.99805C19.1669 15.0518 15.054 19.1647 10.0002 19.1647C4.9465 19.1647 0.833577 15.0518 0.833577 9.99805Z" fill="url(#paint0_linear_3069_230355)" stroke="#262626" stroke-width="1.66667"/>
<path d="M13.7287 15.0013C13.3738 15.3564 12.7981 15.3563 12.4431 15.0013C11.9411 14.4994 11.3218 14.1848 10.6727 14.0569C10.6686 14.0561 10.6645 14.055 10.6605 14.0542C10.6096 14.0445 10.5585 14.0359 10.5072 14.0284C10.5036 14.0279 10.5001 14.0271 10.4965 14.0267C10.484 14.0248 10.4715 14.0238 10.459 14.0222C10.307 14.0017 10.1538 13.9914 10.0004 13.9912C9.76126 13.9912 9.52224 14.0166 9.28728 14.0658C9.20236 14.0835 9.11812 14.1043 9.03474 14.1281C9.02861 14.1299 9.02236 14.1313 9.01618 14.1332C8.97407 14.1459 8.9322 14.1593 8.8906 14.1736C8.87939 14.1774 8.8681 14.1806 8.85689 14.1845C8.4242 14.3354 8.02615 14.5716 7.68626 14.879C7.64229 14.9186 7.59937 14.9594 7.55755 15.0014C7.20259 15.3563 6.62693 15.3563 6.27193 15.0014C5.91689 14.6463 5.91689 14.0707 6.27193 13.7156C7.29997 12.6876 8.64986 12.1738 10.0004 12.1738C11.3504 12.1738 12.701 12.6879 13.7288 13.7156C14.0837 14.0707 14.0837 14.6463 13.7287 15.0013Z" fill="#262626"/>
<path d="M13.8794 6.84961C13.5606 6.84961 13.2478 6.97871 13.0224 7.20477C12.7969 7.43023 12.6672 7.74234 12.6672 8.06172C12.6672 8.38109 12.7969 8.69324 13.0224 8.91875C13.2479 9.1448 13.5606 9.27383 13.8794 9.27383C14.1987 9.27383 14.5109 9.14473 14.7363 8.91875C14.9618 8.69328 15.0915 8.38117 15.0915 8.06172C15.0915 7.74234 14.9618 7.4302 14.7363 7.20477C14.5109 6.97871 14.1987 6.84961 13.8794 6.84961ZM6.97873 8.91875C7.20424 8.69328 7.33389 8.38059 7.33389 8.06172C7.33389 7.74293 7.2042 7.4302 6.97873 7.20477C6.75326 6.97871 6.44057 6.84961 6.12178 6.84961C5.80232 6.84961 5.49025 6.97871 5.26482 7.20477C5.03877 7.43023 4.90967 7.74293 4.90967 8.06172C4.90967 8.38051 5.03877 8.69324 5.26482 8.91875C5.49029 9.14477 5.80232 9.27383 6.12178 9.27383C6.44057 9.27387 6.7533 9.14477 6.97873 8.91875Z" fill="#262626"/>
<path d="M8.85669 13.2598C8.8679 13.2636 8.87919 13.2669 8.8904 13.2706C8.87919 13.2668 8.86786 13.2636 8.85669 13.2598ZM9.01595 13.3111C9.02212 13.3129 9.02837 13.3143 9.0345 13.316C9.02841 13.3143 9.02208 13.3129 9.01595 13.3111Z" fill="#E69629"/>
<path d="M10.66 13.3855C10.6641 13.3847 10.6682 13.3836 10.6722 13.3828C10.6681 13.3836 10.6641 13.3847 10.66 13.3855ZM10.4961 13.4131C10.4997 13.4126 10.5031 13.4118 10.5067 13.4113C10.5031 13.4118 10.4996 13.4125 10.4961 13.4131Z" fill="#F1CB30"/>
</g>
<defs>
<linearGradient id="paint0_linear_3069_230355" x1="0.000244394" y1="4.74805" x2="14.3667" y2="-10.0867" gradientUnits="userSpaceOnUse">
<stop offset="0.193888" stop-color="#FFF0D8"/>
<stop offset="0.948029" stop-color="#FFD797"/>
</linearGradient>
<clipPath id="clip0_3069_230355">
<rect width="20" height="20" fill="white"/>
</clipPath>
</defs>
</svg>
