<svg width="12" height="12" viewBox="0 0 12 12" fill="none" xmlns="http://www.w3.org/2000/svg">
<g clip-path="url(#clip0_5433_211362)">
<path d="M11.7952 9.76072L11.7947 8.10234C11.7901 7.86416 11.7098 7.63363 11.5654 7.44409C11.4211 7.25455 11.2203 7.11583 10.9919 7.04798C10.7702 6.97753 10.5767 6.83838 10.4393 6.65065C10.302 6.46292 10.2279 6.23635 10.2278 6.00374C10.2278 5.77112 10.3018 5.54452 10.439 5.35674C10.5763 5.16895 10.7698 5.02971 10.9914 4.95917C11.2201 4.89196 11.4213 4.75355 11.5659 4.56408C11.7104 4.37461 11.7908 4.14396 11.7952 3.90569L11.7947 2.24642C11.7946 1.95579 11.6791 1.67711 11.4736 1.47161C11.2681 1.2661 10.9894 1.15058 10.6987 1.15043L1.30597 1.14999C1.16204 1.14998 1.01952 1.17832 0.886548 1.2334C0.753572 1.28847 0.632748 1.36921 0.530974 1.47098C0.4292 1.57275 0.348471 1.69358 0.293394 1.82655C0.238318 1.95953 0.209974 2.10205 0.209981 2.24598L0.210425 3.90436C0.214994 4.14257 0.295257 4.37315 0.439594 4.5627C0.583931 4.75226 0.784852 4.89096 1.01327 4.95873C1.23496 5.02917 1.42849 5.16833 1.56584 5.35606C1.7032 5.54379 1.77726 5.77035 1.77731 6.00297C1.77736 6.23558 1.7034 6.46218 1.56612 6.64997C1.42884 6.83776 1.23537 6.977 1.01371 7.04753C0.785071 7.11475 0.58384 7.25316 0.439289 7.44263C0.294738 7.6321 0.214407 7.86274 0.209981 8.10102L0.210424 9.76028C0.210741 10.0509 0.326313 10.3294 0.531783 10.5349C0.737253 10.7404 1.01584 10.856 1.30642 10.8563L10.6996 10.8563C10.8436 10.8563 10.9861 10.8279 11.1191 10.7729C11.252 10.7178 11.3729 10.6371 11.4746 10.5353C11.5764 10.4335 11.6571 10.3127 11.7122 10.1797C11.7673 10.0467 11.7952 9.90465 11.7952 9.76072Z" fill="white"/>
<path d="M4.01038 8.12268C3.87442 7.98645 3.79806 7.80184 3.79806 7.60938C3.79806 7.41691 3.87442 7.2323 4.01038 7.09607L7.09021 4.01624C7.22635 3.8801 7.41099 3.80362 7.60352 3.80362C7.79604 3.80362 7.98068 3.8801 8.11682 4.01624C8.25296 4.15237 8.32944 4.33701 8.32944 4.52954C8.32944 4.72207 8.25296 4.90671 8.11682 5.04285L5.03699 8.12268C4.90076 8.25864 4.71615 8.335 4.52368 8.335C4.33121 8.335 4.14661 8.25864 4.01038 8.12268Z" fill="#29CC97"/>
<path d="M4.05194 5.16059C4.35764 5.4663 4.85329 5.4663 5.159 5.16059C5.46471 4.85489 5.46471 4.35924 5.159 4.05353C4.85329 3.74782 4.35764 3.74782 4.05194 4.05353C3.74623 4.35924 3.74623 4.85489 4.05194 5.16059Z" fill="#29CC97"/>
<path d="M7.05194 8.1645C7.35764 8.47021 7.85329 8.47021 8.159 8.1645C8.46471 7.85879 8.46471 7.36315 8.159 7.05744C7.85329 6.75173 7.35764 6.75173 7.05194 7.05744C6.74623 7.36314 6.74623 7.85879 7.05194 8.1645Z" fill="#29CC97"/>
</g>
<defs>
<clipPath id="clip0_5433_211362">
<rect width="12" height="12" fill="white"/>
</clipPath>
</defs>
</svg>
