<svg xmlns="http://www.w3.org/2000/svg" width="14" height="16" viewBox="0 0 14 16" fill="none">
  <path d="M12.6487 15.1648C12.1573 15.6953 11.4607 15.9999 10.7375 15.9999H3.26134C2.53815 15.9999 1.84153 15.6953 1.35012 15.1648C0.858745 14.6344 0.608495 13.9165 0.663808 13.1952L1.37856 4.18931C1.4229 3.61047 1.91368 3.15625 2.49534 3.15625H11.5034C12.0851 3.15625 12.5759 3.61047 12.6202 4.19056L13.3347 13.194C13.3903 13.9165 13.1401 14.6344 12.6487 15.1648Z" fill="url(#paint0_linear_4501_72346)"/>
  <path d="M10.0916 3.09297V5.24753C10.0916 5.5065 9.882 5.71612 9.62303 5.71612C9.36437 5.71612 9.15444 5.5065 9.15444 5.24753V3.09297C9.15444 1.90431 8.18759 0.937156 6.99894 0.937156H6.99487C5.80809 0.939344 4.84344 1.90556 4.84344 3.09297V5.24753C4.84344 5.5065 4.6335 5.71612 4.37484 5.71612C4.11587 5.71612 3.90625 5.5065 3.90625 5.24753V3.09297C3.90625 1.38887 5.29137 0.0021875 6.99484 0H6.99891C8.70431 0 10.0916 1.38762 10.0916 3.09297Z" fill="url(#paint1_linear_4501_72346)"/>
  <path d="M9.10955 8.60954L6.99436 10.7247L6.68602 11.0331C6.64255 11.0767 6.59089 11.1113 6.53401 11.1349C6.47713 11.1584 6.41615 11.1706 6.35458 11.1705C6.293 11.1706 6.23202 11.1584 6.17515 11.1349C6.11827 11.1113 6.06661 11.0767 6.02314 11.0331L4.8873 9.89723C4.70423 9.71416 4.70423 9.4177 4.8873 9.23463C5.07036 9.05157 5.36714 9.05157 5.54989 9.23463L5.7147 9.39938C6.06813 9.75268 6.64103 9.75262 6.99439 9.39926L8.44702 7.94663C8.62977 7.76388 8.92655 7.76388 9.10961 7.94663C9.29261 8.12973 9.29261 8.42648 9.10955 8.60954Z" fill="#10273F"/>
  <defs>
    <linearGradient id="paint0_linear_4501_72346" x1="0.743232" y1="15.9999" x2="13.3356" y2="15.9999" gradientUnits="userSpaceOnUse">
      <stop stop-color="white"/>
      <stop offset="1" stop-color="white" stop-opacity="0.89"/>
    </linearGradient>
    <linearGradient id="paint1_linear_4501_72346" x1="6.99907" y1="0.0412729" x2="6.99907" y2="9.62372" gradientUnits="userSpaceOnUse">
      <stop stop-color="white"/>
      <stop offset="1" stop-color="#E8933F"/>
    </linearGradient>
  </defs>
</svg>