<svg width="20" height="20" viewBox="0 0 20 20" fill="none" xmlns="http://www.w3.org/2000/svg">
<g clip-path="url(#clip0_4036_5951)">
<path d="M8.18358 5.76329L15.0742 9.42126C15.168 9.47106 15.2464 9.54545 15.3012 9.63646C15.3559 9.72747 15.3848 9.83166 15.3848 9.93786L15.3848 15.6987C15.3848 15.8806 15.3344 16.0589 15.2392 16.2139C15.1441 16.3689 15.0078 16.4945 14.8456 16.5767L8.08859 20.0039C7.9823 20.0579 7.86479 20.086 7.7456 20.086C7.62642 20.086 7.50891 20.0579 7.40262 20.0039L0.645514 16.5767C0.483324 16.4945 0.347093 16.3689 0.251928 16.2139C0.156764 16.0589 0.106387 15.8806 0.106383 15.6987V9.93786C0.106373 9.83165 0.135284 9.72746 0.190015 9.63644C0.244745 9.54543 0.323228 9.47104 0.417039 9.42126L7.30757 5.76329C7.44247 5.69172 7.59286 5.6543 7.74557 5.6543C7.89829 5.6543 8.04868 5.69172 8.18358 5.76329Z" fill="url(#paint0_linear_4036_5951)"/>
<path d="M7.74609 20.085C7.6285 20.085 7.51085 20.0576 7.40311 20.003L0.646006 16.5758C0.483815 16.4935 0.347584 16.3679 0.252419 16.2129C0.157255 16.0579 0.106875 15.8796 0.106872 15.6977V9.93687C0.107227 9.84316 0.130175 9.75092 0.173766 9.66797L7.74609 13.7011V20.085Z" fill="url(#paint1_linear_4036_5951)"/>
<path d="M7.74554 13.7011L15.3178 9.66797C15.3614 9.75091 15.3844 9.84315 15.3848 9.93687L15.3848 15.6977C15.3848 15.8796 15.3344 16.0579 15.2392 16.2129C15.1441 16.3679 15.0078 16.4935 14.8456 16.5758L8.08859 20.003C7.9823 20.0569 7.86479 20.085 7.7456 20.085L7.74554 13.7011Z" fill="url(#paint2_linear_4036_5951)"/>
<path d="M5.04547 6.96484L12.709 11.046V13.4209C12.709 13.4824 12.6923 13.5428 12.6606 13.5955C12.6289 13.6483 12.5836 13.6914 12.5293 13.7203L11.9377 13.6543L11.1975 14.4302C11.0918 14.4865 10.9642 14.4099 10.9642 14.2902V12.0024L3.28879 7.89742L5.04547 6.96484Z" fill="url(#paint3_linear_4036_5951)"/>
<path d="M12.7109 11.0527L12.7102 13.4087C12.7102 13.4702 12.6935 13.5306 12.6618 13.5833C12.6301 13.636 12.5848 13.6792 12.5305 13.7081L11.9388 13.6421L11.1987 14.418C11.093 14.4743 10.9654 14.3977 10.9654 14.2779V13.0591L10.9532 11.989L12.7109 11.0527Z" fill="url(#paint4_linear_4036_5951)"/>
<g clip-path="url(#clip1_4036_5951)">
<path fill-rule="evenodd" clip-rule="evenodd" d="M12.9698 0.418111C12.9919 0.404774 13.0142 0.391875 13.0369 0.379418C13.7852 -0.046687 14.8154 0.0172427 15.9512 0.672977C18.233 1.99042 20.0889 5.20568 20.0889 7.83946C20.0889 9.16422 19.6197 10.0938 18.8632 10.5232C18.8294 10.5444 18.795 10.5646 18.76 10.5837C18.7448 10.5926 18.7295 10.6012 18.7141 10.6097L18.7087 10.6128C18.6722 10.6356 18.6351 10.6572 18.5973 10.6775L18.579 10.6882C18.5567 10.7017 18.5342 10.7147 18.5113 10.7273L18.5071 10.7298C18.4783 10.7479 18.449 10.7652 18.4193 10.7817C18.4046 10.7904 18.3898 10.799 18.3748 10.8074C18.3416 10.828 18.3079 10.8476 18.2735 10.8662C18.2603 10.8742 18.2469 10.882 18.2335 10.8896C18.2051 10.9075 18.1763 10.9246 18.1471 10.9409C18.1126 10.9623 18.0775 10.9826 18.0417 11.0019C18.0085 11.0224 17.9746 11.0419 17.9402 11.0605C17.9224 11.0714 17.9044 11.0822 17.8862 11.0926C17.8724 11.1008 17.8584 11.1088 17.8443 11.1167C17.8098 11.1381 17.7747 11.1584 17.739 11.1776C17.7113 11.1948 17.6831 11.2112 17.6545 11.2269L17.6389 11.2357C16.8878 11.6842 15.843 11.6287 14.6894 10.9627C12.4077 9.64522 10.5518 6.42996 10.5518 3.79618C10.5518 2.46356 11.0265 1.53087 11.7909 1.10489C11.8031 1.09764 11.8153 1.09053 11.8276 1.08354L11.8308 1.08159C11.8673 1.0587 11.9046 1.03703 11.9426 1.01659C11.9708 0.999224 11.9993 0.982573 12.0283 0.966646L12.0319 0.964401C12.0685 0.94151 12.1058 0.919841 12.1438 0.899405C12.1746 0.880386 12.2059 0.862228 12.2377 0.844938C12.2637 0.828745 12.2901 0.813168 12.3168 0.79821L12.3206 0.795889L12.9698 0.418111Z" fill="url(#paint5_linear_4036_5951)"/>
<path d="M14.6641 10.9783C12.3823 9.66195 10.5264 6.44669 10.5264 3.8118C10.5264 1.17692 12.3823 0.105536 14.6641 1.42298C16.9459 2.74042 18.8018 5.95568 18.8018 8.58946C18.8018 11.2243 16.9459 12.2957 14.6641 10.9783Z" fill="url(#paint6_linear_4036_5951)"/>
<path fill-rule="evenodd" clip-rule="evenodd" d="M14.249 6.40994L14.2493 6.40981C14.2524 6.4083 14.2555 6.40668 14.2586 6.40494C14.2625 6.40266 14.2663 6.40022 14.27 6.39761L14.2714 6.39672L14.2742 6.39517L14.2812 6.39086L14.284 6.38931L14.2865 6.38781L14.2947 6.38345C14.3 6.38041 14.305 6.37708 14.3097 6.37346C14.3133 6.37139 14.3167 6.36917 14.3201 6.36683C14.4341 6.29476 14.4317 6.07537 14.3152 5.87334L14.2288 5.72311L14.8887 6.10484C15.2014 6.28591 15.4563 6.72709 15.4563 7.08836V7.11132C15.4563 7.26298 15.4114 7.37689 15.3361 7.44469C15.2387 7.47922 15.1149 7.46223 14.9805 7.38475L13.5624 6.56529C13.4747 6.51478 13.3958 6.51185 13.3403 6.54818C13.3356 6.55075 13.3311 6.55358 13.3267 6.55667L13.3247 6.55795C13.3214 6.55977 13.3181 6.56173 13.315 6.56381L13.3098 6.56675C13.3036 6.56981 13.2976 6.5733 13.2919 6.57723C13.2824 6.58167 13.2734 6.58712 13.2651 6.59354C13.2044 6.62269 13.1664 6.69305 13.1664 6.79594C13.1664 6.98976 13.3024 7.22607 13.4706 7.32298L14.8887 8.14244C15.1785 8.30964 15.444 8.34128 15.6491 8.25825C15.6509 8.25754 15.6527 8.25681 15.6545 8.25608C15.6898 8.24212 15.7233 8.22477 15.7549 8.20416C15.7629 8.19957 15.7707 8.19479 15.7784 8.18981C15.7955 8.18046 15.8122 8.17022 15.8283 8.15909L15.8386 8.1523C16.0352 8.02305 16.1556 7.76661 16.1556 7.40855V7.3856C16.1556 6.6367 15.6279 5.72288 14.9805 5.34886L14.9796 5.34716L14.226 4.91193L14.126 4.87025L14.1268 4.86898L14.2315 4.808C14.2378 4.80432 14.2439 4.8002 14.2495 4.79567C14.2541 4.79262 14.2586 4.78933 14.2628 4.78581C14.3657 4.70695 14.3598 4.49528 14.2471 4.29984C14.1282 4.09413 13.9361 3.98277 13.8172 4.05162L13.1205 4.4554C13.1162 4.4579 13.112 4.4606 13.108 4.46352L13.0951 4.47103C13.0381 4.50418 13.0059 4.57474 13.0059 4.66824C13.0059 4.76175 13.0381 4.86886 13.0951 4.96831L13.7935 6.1771C13.8215 6.22555 13.8555 6.27146 13.8921 6.30971C13.9286 6.34881 13.9685 6.38026 14.0085 6.40322C14.0797 6.4443 14.1503 6.4564 14.2073 6.43243C14.2089 6.43181 14.2106 6.43116 14.2122 6.43048C14.2194 6.42774 14.2264 6.42444 14.2332 6.42056C14.2387 6.41735 14.244 6.4138 14.249 6.40994Z" fill="url(#paint7_linear_4036_5951)"/>
<path d="M14.882 5.40575L14.1283 4.97052C14.0952 4.95182 14.0791 4.89571 14.102 4.88211L14.2159 4.81581C14.3348 4.74695 14.334 4.52424 14.2159 4.31937C14.0969 4.11366 13.9049 4.0023 13.7859 4.07116L13.0892 4.47493C13.0323 4.50809 13 4.57864 13 4.67215C13 4.76565 13.0323 4.87276 13.0892 4.97222L13.7876 6.18101C13.8157 6.22946 13.8497 6.27536 13.8862 6.31362C13.9227 6.35272 13.9627 6.38417 14.0026 6.40712C14.0808 6.45217 14.1581 6.46238 14.2176 6.42837C14.3365 6.35952 14.3357 6.1368 14.2176 5.93194L14.1012 5.72962C14.0774 5.68882 14.0944 5.65227 14.1275 5.67182L14.8828 6.10875C15.1955 6.28981 15.4504 6.73099 15.4504 7.09227V7.11522C15.4504 7.4765 15.1955 7.62356 14.8828 7.44334L13.4648 6.62389C13.2965 6.52698 13.1606 6.60519 13.1606 6.79985C13.1606 6.99366 13.2965 7.22998 13.4648 7.32689L14.8828 8.14635C15.5311 8.52037 16.0579 8.21605 16.0579 7.46715V7.4442C16.0579 6.69529 15.5303 5.78148 14.8828 5.40745L14.882 5.40575Z" fill="url(#paint8_linear_4036_5951)"/>
</g>
</g>
<defs>
<linearGradient id="paint0_linear_4036_5951" x1="7.74525" y1="5.7832" x2="2.80569" y2="25.0542" gradientUnits="userSpaceOnUse">
<stop stop-color="#FFE5CB"/>
<stop offset="0.408938" stop-color="#EEC093"/>
</linearGradient>
<linearGradient id="paint1_linear_4036_5951" x1="3.92632" y1="9.76789" x2="-3.44251" y2="31.8279" gradientUnits="userSpaceOnUse">
<stop offset="0.173176" stop-color="#FFE5CB"/>
<stop offset="0.60834" stop-color="#EEC093"/>
</linearGradient>
<linearGradient id="paint2_linear_4036_5951" x1="11.565" y1="9.76789" x2="4.19621" y2="31.8278" gradientUnits="userSpaceOnUse">
<stop stop-color="#FFE5CB"/>
<stop offset="0.408938" stop-color="#EEC093"/>
</linearGradient>
<linearGradient id="paint3_linear_4036_5951" x1="6.49016" y1="6.96483" x2="6.49016" y2="13.3801" gradientUnits="userSpaceOnUse">
<stop stop-color="#17395C"/>
<stop offset="1" stop-color="#2365AA" stop-opacity="0.89"/>
</linearGradient>
<linearGradient id="paint4_linear_4036_5951" x1="11.5498" y1="11.0587" x2="11.5498" y2="13.3796" gradientUnits="userSpaceOnUse">
<stop stop-color="#17395C"/>
<stop offset="1" stop-color="#2365AA" stop-opacity="0.89"/>
</linearGradient>
<linearGradient id="paint5_linear_4036_5951" x1="16.7281" y1="2.6545" x2="9.79132" y2="14.6676" gradientUnits="userSpaceOnUse">
<stop stop-color="#FFE5CB"/>
<stop offset="1" stop-color="#EEC093"/>
</linearGradient>
<linearGradient id="paint6_linear_4036_5951" x1="9.59004" y1="-1.02686" x2="16.9882" y2="9.48841" gradientUnits="userSpaceOnUse">
<stop offset="0.155949" stop-color="#17395C"/>
<stop offset="0.764672" stop-color="#2365AA" stop-opacity="0.89"/>
</linearGradient>
<linearGradient id="paint7_linear_4036_5951" x1="13.8471" y1="6.23732" x2="20.7139" y2="2.26324" gradientUnits="userSpaceOnUse">
<stop stop-color="#17395C"/>
<stop offset="1" stop-color="#2365AA" stop-opacity="0.89"/>
</linearGradient>
<linearGradient id="paint8_linear_4036_5951" x1="13.5791" y1="6.34683" x2="14.529" y2="11.2154" gradientUnits="userSpaceOnUse">
<stop stop-color="#FFEEDD"/>
<stop offset="1" stop-color="#EEC093"/>
</linearGradient>
<clipPath id="clip0_4036_5951">
<rect width="20" height="20" fill="white"/>
</clipPath>
<clipPath id="clip1_4036_5951">
<rect width="9.56303" height="11.4322" fill="white" transform="translate(10.5264 0.107422)"/>
</clipPath>
</defs>
</svg>
