<svg width="20" height="20" viewBox="0 0 20 20" fill="none" xmlns="http://www.w3.org/2000/svg">
<g clip-path="url(#clip0_4036_6271)">
<path fill-rule="evenodd" clip-rule="evenodd" d="M16.2736 17.2791V14.8489C16.2736 14.5871 16.1159 14.3551 15.8693 14.2728L12.2452 13.0577C12.0679 12.9978 11.8747 13.0249 11.7189 13.1281L10.1977 14.1482C10.1878 14.1546 10.1757 14.1554 10.1651 14.1504C9.35503 13.7587 8.46199 13.0817 7.67389 12.2994C6.88618 11.5168 6.20304 10.6286 5.81354 9.81436C5.80824 9.80369 5.80938 9.7915 5.81582 9.78159L6.82973 8.25139C6.93279 8.09555 6.95893 7.90046 6.89982 7.72214L5.69154 4.08524C5.61008 3.83719 5.37934 3.66992 5.11904 3.66992H2.70286C2.19854 3.66992 1.74161 3.87602 1.41273 4.20942C1.40388 4.21815 1.39512 4.22697 1.38645 4.23588C1.36534 4.25642 1.34472 4.27749 1.32462 4.29904C1.29173 4.32971 1.25999 4.36159 1.22945 4.39461L1.226 4.39804C1.2006 4.42208 1.1759 4.44685 1.15192 4.47231C1.14373 4.48031 1.13561 4.48838 1.12757 4.49653L1.11 4.51411C1.10115 4.52284 1.09239 4.53166 1.08372 4.54057C1.06579 4.55801 1.04823 4.57582 1.03103 4.59399L1.02112 4.60396L1.01212 4.6129C0.984694 4.63886 0.958074 4.66567 0.932306 4.69329C0.920078 4.70501 0.908013 4.7169 0.896116 4.72896L0.887137 4.73788C0.857776 4.76567 0.829342 4.79443 0.801887 4.82412L0.780983 4.84525C0.768778 4.85713 0.75674 4.86918 0.744873 4.88139C0.735622 4.89038 0.726466 4.89947 0.717408 4.90865C0.708562 4.91738 0.699805 4.92619 0.691139 4.9351C0.673214 4.95254 0.655648 4.97035 0.638454 4.98852L0.628548 4.99849L0.619554 5.00742C0.590195 5.0352 0.561764 5.06396 0.534311 5.09365C0.204461 5.42174 0 5.87644 0 6.38047C0 9.8802 1.65499 13.2847 4.18029 15.8139C6.70522 18.3436 10.0997 19.998 13.5794 19.998C14.065 19.998 14.5276 19.796 14.8626 19.4564C14.8733 19.4458 14.8838 19.4352 14.8942 19.4244L14.9065 19.4119C14.9217 19.3972 14.9366 19.3821 14.9513 19.3668C14.9665 19.3522 14.9816 19.3373 14.9964 19.3221C15.0138 19.3051 15.0309 19.2878 15.0477 19.2701L15.068 19.2501C15.0861 19.233 15.1039 19.2154 15.1213 19.1975C15.1458 19.1737 15.1696 19.1492 15.1927 19.124C15.2015 19.1152 15.2102 19.1063 15.2188 19.0973C15.2312 19.0855 15.2433 19.0735 15.2553 19.0613L15.2728 19.0439C15.2816 19.0351 15.2904 19.0263 15.2991 19.0174C15.3127 19.0041 15.3262 18.9906 15.3394 18.9769C15.3562 18.9609 15.3727 18.9446 15.3889 18.9279C15.4099 18.9075 15.4305 18.8865 15.4505 18.8651C15.4676 18.8487 15.4843 18.832 15.5008 18.815C15.5108 18.8048 15.5207 18.7946 15.5305 18.7843L15.5404 18.7743L15.5581 18.7567L15.5755 18.7392C15.5844 18.7305 15.5932 18.7216 15.6018 18.7127C15.6111 18.7037 15.6203 18.6946 15.6293 18.6854L15.6337 18.6811L15.6457 18.6694L15.6654 18.6497C15.6743 18.641 15.683 18.6321 15.6917 18.6232C15.7154 18.6001 15.7386 18.5763 15.7612 18.5518C16.0739 18.2308 16.2736 17.7888 16.2736 17.2791Z" fill="url(#paint0_linear_4036_6271)"/>
<path d="M16.2921 14.8313V17.2615C16.2921 18.3184 15.4339 19.0839 14.4886 19.0839C11.0089 19.0839 7.6144 17.4295 5.08947 14.8999C2.56417 12.3706 0.90918 8.96614 0.90918 5.46641C0.90918 4.46126 1.72228 3.65234 2.72141 3.65234H5.13759C5.39789 3.65234 5.62864 3.81961 5.7101 4.06766L6.91838 7.70456C6.97748 7.88288 6.95134 8.07797 6.84828 8.23381L5.83437 9.76401C5.82793 9.77392 5.82679 9.78611 5.8321 9.79678C6.2216 10.611 6.90474 11.4992 7.69245 12.2818C8.48054 13.0641 9.37358 13.7412 10.1837 14.1329C10.1943 14.1378 10.2064 14.1371 10.2162 14.1306L11.7375 13.1106C11.8932 13.0073 12.0864 12.9803 12.2638 13.0401L15.8878 14.2552C16.1345 14.3375 16.2921 14.5695 16.2921 14.8313Z" fill="url(#paint1_linear_4036_6271)"/>
<path fill-rule="evenodd" clip-rule="evenodd" d="M12.8851 0.0117188H16.6554C18.4743 0.0117188 19.9855 1.50022 19.9855 3.32933C19.9855 4.31892 19.5431 5.2088 18.8489 5.81722C18.8189 5.84474 18.7884 5.87173 18.7574 5.89816L18.7431 5.91039C18.7159 5.93492 18.6883 5.959 18.6603 5.98264C18.642 5.99923 18.6234 6.01562 18.6047 6.0318C18.5673 6.06599 18.5291 6.09935 18.4902 6.13184C18.4707 6.14925 18.451 6.16643 18.4311 6.18339L18.4055 6.20526C18.3813 6.2271 18.3568 6.24858 18.332 6.26972C18.3087 6.29078 18.285 6.31152 18.2611 6.33193L18.2472 6.34383C18.2192 6.36911 18.1907 6.39392 18.1618 6.41826C18.1191 6.45596 18.0753 6.49258 18.0307 6.52809C17.4573 6.98943 16.7302 7.26608 15.9461 7.26608H14.3494L13.2182 8.40369C13.2072 8.4147 13.1958 8.42507 13.184 8.4348C13.178 8.44014 13.1719 8.44531 13.1657 8.4503L13.1615 8.45448C13.1505 8.46548 13.1391 8.47586 13.1273 8.48559C13.1187 8.49327 13.1099 8.50059 13.1008 8.50754L13.0994 8.5087C13.0903 8.51759 13.0808 8.52605 13.0711 8.53408C13.0578 8.54698 13.0439 8.55897 13.0295 8.57004L13.0277 8.57156C13.0233 8.57543 13.0189 8.57922 13.0145 8.58291C13.0053 8.59181 12.9958 8.60028 12.9861 8.60831C12.9729 8.62119 12.959 8.63317 12.9446 8.64424L12.9427 8.64577L12.9369 8.65091L12.9296 8.65702L12.9213 8.66541C12.9064 8.68037 12.8907 8.69415 12.8743 8.70675C12.8694 8.71077 12.8645 8.71468 12.8596 8.71848L12.8578 8.71998C12.8518 8.72531 12.8457 8.73047 12.8395 8.73546L12.8353 8.73963C12.8244 8.75064 12.813 8.76102 12.8011 8.77076C12.7925 8.77843 12.7837 8.78575 12.7746 8.79271L12.7636 8.80159C12.7532 8.81195 12.7424 8.82174 12.7312 8.83096C12.718 8.84385 12.7041 8.85584 12.6897 8.86692L12.6878 8.86843C12.6819 8.87375 12.6758 8.87891 12.6696 8.88388L12.6654 8.88807C12.6544 8.89908 12.643 8.90946 12.6312 8.9192C12.6226 8.92687 12.6138 8.93418 12.6047 8.94113L12.5937 8.95003C12.5877 8.95598 12.5816 8.96175 12.5754 8.96733C12.562 8.98036 12.548 8.99246 12.5334 9.00364L12.5316 9.00513C12.5273 9.00902 12.5228 9.01281 12.5183 9.01652C12.5051 9.0294 12.4912 9.04138 12.4768 9.05244C12.3421 9.16467 12.1559 9.19293 11.9955 9.12552C11.9094 9.08982 11.8359 9.02915 11.784 8.95111C11.7325 8.87338 11.7048 8.78176 11.7048 8.68791V7.26703C11.7048 7.24712 11.6901 7.23038 11.6706 7.22722C10.0902 6.98203 8.8457 5.60506 8.8457 3.94847C8.8457 2.94523 9.30044 2.04445 10.0112 1.43555L10.0293 1.41984C10.058 1.39354 10.0873 1.36773 10.1169 1.34244L10.1298 1.33149C10.1574 1.30656 10.1854 1.28208 10.2139 1.25807C10.2379 1.23636 10.2622 1.215 10.2869 1.19399L10.2997 1.18305C10.3273 1.15812 10.3553 1.13364 10.3838 1.10962C10.4125 1.08371 10.4416 1.05829 10.4712 1.03337C10.4831 1.02282 10.4952 1.01235 10.5073 1.00197L10.5396 0.97399C10.5684 0.947731 10.5975 0.921965 10.6272 0.896705C10.6673 0.86053 10.7083 0.825309 10.7501 0.791077C11.331 0.304963 12.0778 0.0117188 12.8851 0.0117188Z" fill="url(#paint2_linear_4036_6271)"/>
<path d="M16.6691 0H12.8988C11.0799 0 9.56836 1.4885 9.56836 3.31761C9.56836 4.97421 10.8129 6.35117 12.3933 6.59636C12.4127 6.59952 12.4275 6.61626 12.4275 6.63617V8.05706C12.4275 8.1509 12.4551 8.24253 12.5067 8.32025C12.5585 8.3983 12.632 8.45896 12.7181 8.49466C12.8919 8.56765 13.0958 8.52847 13.2318 8.39198L14.7836 6.83144L14.9671 6.64691C14.9746 6.63933 14.9847 6.63522 14.9954 6.63522H16.6688C18.4876 6.63522 19.9992 5.14672 19.9992 3.31761C19.9992 1.4885 18.4879 0 16.6691 0Z" fill="url(#paint3_linear_4036_6271)"/>
<path d="M12.5374 4.12075C12.8766 4.12075 13.1519 3.84389 13.1519 3.50276C13.1519 3.16163 12.8766 2.88477 12.5374 2.88477C12.1982 2.88477 11.9229 3.16163 11.9229 3.50276C11.9229 3.84389 12.1982 4.12075 12.5374 4.12075Z" fill="url(#paint4_linear_4036_6271)"/>
<path d="M14.9954 4.12075C15.3346 4.12075 15.6099 3.84389 15.6099 3.50276C15.6099 3.16163 15.3346 2.88477 14.9954 2.88477C14.6562 2.88477 14.3809 3.16163 14.3809 3.50276C14.3809 3.84389 14.6562 4.12075 14.9954 4.12075Z" fill="url(#paint5_linear_4036_6271)"/>
<path d="M17.4534 4.12075C17.7926 4.12075 18.0679 3.84389 18.0679 3.50276C18.0679 3.16163 17.7926 2.88477 17.4534 2.88477C17.1142 2.88477 16.8389 3.16163 16.8389 3.50276C16.8389 3.84389 17.1142 4.12075 17.4534 4.12075Z" fill="url(#paint6_linear_4036_6271)"/>
</g>
<defs>
<linearGradient id="paint0_linear_4036_6271" x1="9.50071" y1="4.21723" x2="3.78349" y2="20.1984" gradientUnits="userSpaceOnUse">
<stop offset="0.19" stop-color="#FFE5CB"/>
<stop offset="1" stop-color="#EEC093"/>
</linearGradient>
<linearGradient id="paint1_linear_4036_6271" x1="8.60065" y1="3.77465" x2="8.60065" y2="18.8389" gradientUnits="userSpaceOnUse">
<stop stop-color="#11375F"/>
<stop offset="1" stop-color="#2365AA"/>
</linearGradient>
<linearGradient id="paint2_linear_4036_6271" x1="14.4156" y1="0.0842406" x2="14.4156" y2="9.0164" gradientUnits="userSpaceOnUse">
<stop stop-color="#11375F"/>
<stop offset="1" stop-color="#2365AA"/>
</linearGradient>
<linearGradient id="paint3_linear_4036_6271" x1="15.658" y1="0.285946" x2="13.1269" y2="8.96605" gradientUnits="userSpaceOnUse">
<stop offset="0.19" stop-color="#FFE5CB"/>
<stop offset="1" stop-color="#EEC093"/>
</linearGradient>
<linearGradient id="paint4_linear_4036_6271" x1="12.5374" y1="2.89456" x2="12.5374" y2="4.10112" gradientUnits="userSpaceOnUse">
<stop stop-color="#11375F"/>
<stop offset="1" stop-color="#2365AA"/>
</linearGradient>
<linearGradient id="paint5_linear_4036_6271" x1="14.9954" y1="2.89456" x2="14.9954" y2="4.10112" gradientUnits="userSpaceOnUse">
<stop stop-color="#11375F"/>
<stop offset="1" stop-color="#2365AA"/>
</linearGradient>
<linearGradient id="paint6_linear_4036_6271" x1="17.4534" y1="2.89456" x2="17.4534" y2="4.10112" gradientUnits="userSpaceOnUse">
<stop stop-color="#11375F"/>
<stop offset="1" stop-color="#2365AA"/>
</linearGradient>
<clipPath id="clip0_4036_6271">
<rect width="20" height="20" fill="white"/>
</clipPath>
</defs>
</svg>
