<svg xmlns="http://www.w3.org/2000/svg" width="48" height="48" viewBox="0 0 48 48" fill="none">
  <g clip-path="url(#clip0_4571_40765)">
    <path d="M3.69429 38.3395L5.68307 36.3508C6.23225 35.8017 6.23225 34.9113 5.68307 34.3622C5.13408 33.813 4.24366 33.8131 3.69439 34.3622L1.70561 36.3508C1.15643 36.9 1.15643 37.7903 1.70561 38.3395C2.25479 38.8887 3.14512 38.8887 3.69429 38.3395ZM9.66044 38.3395C9.11135 37.7903 8.22093 37.7903 7.67176 38.3395L0.411883 45.5994C-0.137294 46.1486 -0.137294 47.0389 0.411883 47.5881C0.960967 48.1372 1.85139 48.1373 2.40057 47.5881L9.66044 40.3282C10.2097 39.779 10.2097 38.8887 9.66044 38.3395ZM47.8436 1.34961C47.7552 0.730875 47.269 0.24479 46.6503 0.156385C46.499 0.134823 42.8882 -0.362512 37.8752 0.537285C31.3716 1.70464 25.3596 4.74199 20.5982 9.50338C19.3283 10.7733 17.9301 12.3261 16.5508 13.9977C14.8462 13.6116 9.24082 12.9059 3.69439 18.4525C-1.22093 23.3677 1.58374 26.2855 1.70561 26.4073C1.96932 26.671 2.32697 26.8193 2.69991 26.8193C3.07284 26.8193 3.43058 26.671 3.6942 26.4074C4.49106 25.6106 5.55042 25.1717 6.67727 25.1717C7.80413 25.1717 8.86348 25.6106 9.66025 26.4073L12.6434 29.3904L11.649 30.3848C10.0004 32.0333 10 34.702 11.649 36.3508C13.2975 37.9994 15.9663 37.9998 17.6151 36.3508L18.6095 35.3565C18.6095 35.3565 21.5886 38.3357 21.594 38.341C23.2374 39.986 23.2369 42.6612 21.5925 44.3056C21.3288 44.5693 21.1806 44.927 21.1806 45.3C21.1806 45.673 21.3287 46.0305 21.5925 46.2944C21.658 46.3598 22.5315 47.2006 24.0891 47.2006C25.4287 47.2006 27.2745 46.5784 29.5474 44.3056C35.0939 38.759 34.3882 33.1537 34.0022 31.4491C35.6738 30.0698 37.2267 28.6715 38.4966 27.4015C43.2482 22.6499 46.2939 16.6363 47.4627 10.1246C48.3624 5.11183 47.8652 1.50092 47.8436 1.34961ZM6.67746 22.3592C5.67942 22.3592 4.71325 22.5657 3.8276 22.9585C4.10229 22.3059 4.66018 21.4642 5.68317 20.4411C8.10666 18.0176 11.1419 16.427 14.5208 16.566C12.7878 18.857 11.2151 21.2111 10.1307 23.2644C9.08839 22.6748 7.90753 22.3592 6.67746 22.3592ZM15.6265 34.3622C15.0771 34.9116 14.1875 34.9117 13.6379 34.3622C13.0896 33.8138 13.0896 32.9217 13.6379 32.3735L21.5927 24.4186C22.1409 23.8704 23.0331 23.8702 23.5815 24.4186C24.1298 24.967 24.1298 25.8591 23.5815 26.4074L15.6265 34.3622ZM27.5588 42.317C26.5333 43.3425 25.6899 43.9006 25.0368 44.1745C25.928 42.1597 25.8275 39.8087 24.7353 37.8696C26.7905 36.7841 29.1473 35.2095 31.4403 33.4745C31.5211 35.4229 31.0359 38.8399 27.5588 42.317ZM36.508 25.4129C32.4571 29.4638 26.6935 33.7774 22.8875 35.6569L20.5983 33.3678L25.5701 28.396C27.2188 26.7474 27.2191 24.0787 25.5701 22.4299C23.9252 20.785 21.2487 20.7852 19.604 22.4299L14.6322 27.4016L12.3431 25.1126C14.2225 21.3067 18.5362 15.543 22.587 11.492C26.1183 7.96065 30.305 5.47763 35.0653 4.08313L43.9062 12.924C42.7374 16.8916 40.5474 21.3735 36.508 25.4129ZM44.6697 9.71028L38.2813 3.32189C41.3074 2.76962 43.7979 2.77825 45.1502 2.84931C45.2198 4.19619 45.2245 6.67471 44.6697 9.71028ZM29.5476 10.4977C27.3493 12.6958 27.3489 16.254 29.5476 18.4525C31.7404 20.6454 35.3088 20.6458 37.5024 18.4525C39.6955 16.2594 39.6955 12.6908 37.5024 10.4976C35.3042 8.29965 31.7461 8.29908 29.5476 10.4977ZM35.5137 16.4638C34.4171 17.5604 32.6329 17.5604 31.5362 16.4638C30.4371 15.3647 30.4369 13.5856 31.5362 12.4864C32.6353 11.3873 34.4143 11.3872 35.5137 12.4864C36.6102 13.583 36.6102 15.3672 35.5137 16.4638ZM11.6492 42.317L9.66053 44.3057C9.11135 44.8548 9.11135 45.7452 9.66053 46.2944C10.2096 46.8434 11.1 46.8435 11.6492 46.2944L13.6379 44.3057C14.1871 43.7565 14.1871 42.8662 13.6379 42.317C13.0887 41.7677 12.1983 41.7677 11.6492 42.317Z" fill="url(#paint0_linear_4571_40765)"/>
  </g>
  <defs>
    <linearGradient id="paint0_linear_4571_40765" x1="0.411884" y1="47.5882" x2="47.4458" y2="0.554149" gradientUnits="userSpaceOnUse">
      <stop stop-color="#5558FF"/>
      <stop offset="1" stop-color="#00C0FF"/>
    </linearGradient>
    <clipPath id="clip0_4571_40765">
      <rect width="48" height="48" fill="white"/>
    </clipPath>
  </defs>
</svg>