<svg xmlns="http://www.w3.org/2000/svg" width="24" height="24" viewBox="0 0 24 24" fill="none">
  <path d="M12 20L2.4855 14.2913C2.1843 14.1106 2 13.7851 2 13.4338V7L5.99708 4.33528C6.30631 4.12913 6.70436 4.11147 7.03063 4.28944L11.5211 6.73881C11.8196 6.90161 12.1804 6.90161 12.4789 6.73881L16.9694 4.28944C17.2956 4.11147 17.6937 4.12913 18.0029 4.33528L22 7V13.4338C22 13.7851 21.8157 14.1106 21.5145 14.2913L12 20Z" fill="url(#paint0_linear_3069_236308)"/>
  <path d="M11.5528 11.7764L2 7L5.99708 4.33528C6.30631 4.12913 6.70436 4.11147 7.03063 4.28944L11.0423 6.47762C11.6393 6.80323 12.3607 6.80323 12.9577 6.47762L16.9694 4.28944C17.2956 4.11147 17.6937 4.12913 18.0029 4.33528L22 7L12.4472 11.7764C12.1657 11.9172 11.8343 11.9172 11.5528 11.7764Z" fill="url(#paint1_linear_3069_236308)"/>
  <defs>
    <linearGradient id="paint0_linear_3069_236308" x1="17.5" y1="5" x2="5.06216" y2="33.3995" gradientUnits="userSpaceOnUse">
      <stop stop-color="white"/>
      <stop offset="1" stop-color="#D9D9D9" stop-opacity="0.9"/>
    </linearGradient>
    <linearGradient id="paint1_linear_3069_236308" x1="17.5" y1="4.5" x2="13.9637" y2="20.649" gradientUnits="userSpaceOnUse">
      <stop stop-color="white"/>
      <stop offset="1" stop-color="#D9D9D9" stop-opacity="0.9"/>
    </linearGradient>
  </defs>
</svg>