<svg xmlns="http://www.w3.org/2000/svg" width="24" height="24" viewBox="0 0 24 24" fill="none">
  <path d="M14.9349 1.71866L22.4002 7.69581C22.9878 8.16625 23.2806 8.40158 23.492 8.69347C23.6794 8.95205 23.8202 9.24218 23.9049 9.55003C24 9.89526 24 10.269 24 11.0118V19.3812C24 20.8718 24 21.6175 23.7096 22.1874C23.454 22.6891 23.045 23.0971 22.5432 23.3528C21.9733 23.6431 21.228 23.6431 19.7375 23.6431H4.26255C2.77199 23.6431 2.0256 23.6431 1.45573 23.3528C0.953964 23.0971 0.546312 22.6894 0.290649 22.1877C0 21.6173 0 20.8701 0 19.3767V11.0995C0 10.321 0 9.93167 0.101658 9.57412C0.191698 9.25743 0.339467 8.96019 0.53776 8.69736C0.76164 8.40062 1.07173 8.16568 1.69271 7.69612L9.69403 1.64574C10.6412 0.929538 11.1147 0.571683 11.634 0.438708C12.0923 0.321377 12.5738 0.328263 13.0286 0.458239C13.5441 0.605546 14.008 0.976498 14.9349 1.71866Z" fill="url(#paint0_linear_3069_236317)"/>
  <path d="M14.9388 1.71866L22.4042 7.69581C22.9917 8.16625 23.2845 8.40158 23.496 8.69347C23.6833 8.95205 23.8241 9.24218 23.9089 9.55003C24.0039 9.89526 24.0039 10.269 24.0039 11.0118V19.3812C24.0039 20.8718 24.0039 21.6175 23.7135 22.1874C23.4579 22.6891 23.0489 23.0971 22.5471 23.3528C21.9772 23.6431 21.2319 23.6431 19.7414 23.6431H4.26645C2.7759 23.6431 2.02951 23.6431 1.45964 23.3528C0.95787 23.0971 0.550218 22.6894 0.294556 22.1877C0.00390625 21.6173 0.00390625 20.8701 0.00390625 19.3767V11.0995C0.00390625 10.321 0.00390625 9.93167 0.105564 9.57412C0.195604 9.25743 0.343373 8.96019 0.541667 8.69736C0.765546 8.40062 1.07564 8.16568 1.69661 7.69612L9.69793 1.64574C10.6451 0.929538 11.1186 0.571683 11.6379 0.438708C12.0962 0.321377 12.5777 0.328263 13.0326 0.458239C13.548 0.605546 14.0119 0.976498 14.9388 1.71866Z" fill="url(#paint1_linear_3069_236317)"/>
  <path d="M3.54688 10.5723L11.0756 14.9311C11.6955 15.29 12.4599 15.29 13.0798 14.9311L20.6085 10.5723" stroke="url(#paint2_linear_3069_236317)"/>
  <defs>
    <linearGradient id="paint0_linear_3069_236317" x1="12.0005" y1="0.523616" x2="12.0005" y2="23.6131" gradientUnits="userSpaceOnUse">
      <stop stop-color="#E0B181"/>
      <stop offset="1" stop-color="#BE9367"/>
    </linearGradient>
    <linearGradient id="paint1_linear_3069_236317" x1="-43.7785" y1="-42.5186" x2="7.85058" y2="48.0997" gradientUnits="userSpaceOnUse">
      <stop offset="0.565205" stop-color="#F6BB91" stop-opacity="0.549561"/>
      <stop offset="0.907674" stop-color="white"/>
    </linearGradient>
    <linearGradient id="paint2_linear_3069_236317" x1="12.0781" y1="10.6079" x2="12.0781" y2="15.505" gradientUnits="userSpaceOnUse">
      <stop stop-color="#E0B181"/>
      <stop offset="1" stop-color="#BE9367"/>
    </linearGradient>
  </defs>
</svg>