<svg width="33" height="32" viewBox="0 0 33 32" fill="none" xmlns="http://www.w3.org/2000/svg">
<path d="M15.1968 17.0398C16.6976 18.5382 18.1686 19.1461 18.6984 18.6171L19.426 17.891C19.6666 17.6507 19.993 17.5157 20.3334 17.5157C20.6737 17.5157 21.0001 17.6507 21.2408 17.891L22.8741 19.5216C23.1148 19.7619 23.25 20.0878 23.25 20.4275C23.25 20.7673 23.1148 21.0932 22.8741 21.3335L21.6016 22.6039C20.3992 23.8044 16.8429 22.202 13.4345 18.7994C11.7312 17.098 10.614 15.4954 9.89193 13.9885C9.16986 12.4816 9.02353 11.2456 9.62438 10.6457L10.8969 9.37524C11.1376 9.13498 11.464 9 11.8044 9C12.1447 9 12.4711 9.13498 12.7118 9.37524L14.3451 11.0054C14.5858 11.2457 14.721 11.5715 14.721 11.9113C14.721 12.2511 14.5858 12.577 14.3451 12.8173L13.6171 13.5453C13.0872 14.0737 13.696 15.5421 15.1968 17.0398Z" fill="#17395C"/>
</svg>
