<svg xmlns="http://www.w3.org/2000/svg" width="24" height="24" viewBox="0 0 24 24" fill="none">
  <path d="M20.9969 7.75289C20.9792 7.74956 20.9616 7.74623 20.9441 7.74266C20.9616 7.74599 20.9792 7.74932 20.9969 7.75265V6.99743C19.7076 6.92086 18.7727 6.5197 18.0944 5.97587C18.0941 5.97564 18.0939 5.97564 18.0939 5.9754C16.9427 5.05039 16.5318 3.71448 16.3852 2.85153C16.3399 2.57831 16.3037 2.27893 16.3046 2H12.9524V15.1468C12.9524 15.7529 12.8906 16.2936 12.7676 16.7659C11.9256 18.6276 9.87357 18.8356 8.62569 18.0514C8.62545 18.0512 8.62498 18.0509 8.62474 18.0509C8.25064 17.8157 7.94951 17.4928 7.77442 17.0986C6.93879 15.2162 7.99002 12.5879 11.1364 13.0495V9.39983C4.54325 8.35712 1.76839 16.6682 6.04961 20.4091L6.05933 20.4186C6.05933 20.4186 6.05767 20.4167 6.05696 20.4155C6.72461 20.9976 7.56261 21.4689 8.58565 21.7766C9.90247 22.0646 10.6879 22.0458 11.56 21.8801C14.6729 21.2877 16.3357 18.3477 16.2954 15.351L16.2997 8.72926C17.9695 10.2243 20.6531 10.42 21 10.3981C21 7.23974 20.9969 10.545 20.9969 7.75289Z" fill="white"/>
</svg>