<svg width="21" height="20" viewBox="0 0 21 20" fill="none" xmlns="http://www.w3.org/2000/svg">
<g clip-path="url(#clip0_4310_54958)">
<path d="M1.75 3.125H19.25C19.9375 3.125 20.5 3.6875 20.5 4.375V15.625C20.5 16.3125 19.9375 16.875 19.25 16.875H1.75C1.0625 16.875 0.5 16.3125 0.5 15.625V4.375C0.5 3.6875 1.0625 3.125 1.75 3.125Z" fill="white"/>
<path d="M1.75 3.125H19.25C19.9375 3.125 20.5 3.6875 20.5 4.375V15.625C20.5 16.3125 19.9375 16.875 19.25 16.875H1.75C1.0625 16.875 0.5 16.3125 0.5 15.625V4.375C0.5 3.6875 1.0625 3.125 1.75 3.125Z" fill="url(#paint0_linear_4310_54958)"/>
<path d="M0.5 5.25C0.5 5.11193 0.611929 5 0.75 5H20.25C20.3881 5 20.5 5.11193 20.5 5.25V7.875C20.5 8.01307 20.3881 8.125 20.25 8.125H0.75C0.611929 8.125 0.5 8.01307 0.5 7.875V5.25Z" fill="url(#paint1_linear_4310_54958)"/>
<path d="M3 0.625H10.5C11.5312 0.625 12.375 1.46875 12.375 2.5V17.5C12.375 18.5312 11.5312 19.375 10.5 19.375H3C1.96875 19.375 1.125 18.5312 1.125 17.5V2.5C1.125 1.46875 1.96875 0.625 3 0.625Z" fill="white"/>
<path d="M3 0.625H10.5C11.5312 0.625 12.375 1.46875 12.375 2.5V17.5C12.375 18.5312 11.5312 19.375 10.5 19.375H3C1.96875 19.375 1.125 18.5312 1.125 17.5V2.5C1.125 1.46875 1.96875 0.625 3 0.625Z" fill="url(#paint2_linear_4310_54958)"/>
<path d="M10.5 20H3C1.625 20 0.5 18.875 0.5 17.5V2.5C0.5 1.125 1.625 0 3 0H10.5C11.875 0 13 1.125 13 2.5V17.5C13 18.875 11.875 20 10.5 20ZM3 1.25C2.3125 1.25 1.75 1.8125 1.75 2.5V17.5C1.75 18.1875 2.3125 18.75 3 18.75H10.5C11.1875 18.75 11.75 18.1875 11.75 17.5V2.5C11.75 1.8125 11.1875 1.25 10.5 1.25H3Z" fill="url(#paint3_linear_4310_54958)"/>
<path d="M6.75 13.75C8.82107 13.75 10.5 12.0711 10.5 10C10.5 7.92893 8.82107 6.25 6.75 6.25C4.67893 6.25 3 7.92893 3 10C3 12.0711 4.67893 13.75 6.75 13.75Z" fill="url(#paint4_linear_4310_54958)"/>
<path d="M6.75 13.125C8.47589 13.125 9.875 11.7259 9.875 10C9.875 8.27411 8.47589 6.875 6.75 6.875C5.02411 6.875 3.625 8.27411 3.625 10C3.625 11.7259 5.02411 13.125 6.75 13.125Z" fill="url(#paint5_linear_4310_54958)"/>
<path d="M6.51562 11.5625C6.28125 11.5625 6.39844 11.6016 4.67969 9.88281C4.52344 9.72656 4.52344 9.49219 4.67969 9.33594C4.83594 9.17969 5.07031 9.17969 5.22656 9.33594L6.51562 10.625L8.58594 8.55469C8.74219 8.39844 8.97656 8.39844 9.13281 8.55469C9.28906 8.71094 9.28906 8.94531 9.13281 9.10156C6.55469 11.6797 6.75 11.5625 6.51562 11.5625Z" fill="white"/>
<path d="M6.51562 11.5625C6.28125 11.5625 6.39844 11.6016 4.67969 9.88281C4.52344 9.72656 4.52344 9.49219 4.67969 9.33594C4.83594 9.17969 5.07031 9.17969 5.22656 9.33594L6.51562 10.625L8.58594 8.55469C8.74219 8.39844 8.97656 8.39844 9.13281 8.55469C9.28906 8.71094 9.28906 8.94531 9.13281 9.10156C6.55469 11.6797 6.75 11.5625 6.51562 11.5625Z" fill="url(#paint6_linear_4310_54958)"/>
<path d="M18.625 15.3125H14.875C14.6875 15.3125 14.5625 15.1875 14.5625 15V13.75C14.5625 13.5625 14.6875 13.4375 14.875 13.4375H18.625C18.8125 13.4375 18.9375 13.5625 18.9375 13.75V15C18.9375 15.1875 18.8125 15.3125 18.625 15.3125Z" fill="url(#paint7_linear_4310_54958)"/>
</g>
<defs>
<linearGradient id="paint0_linear_4310_54958" x1="-4.27846" y1="3.84615" x2="3.56233" y2="-11.8839" gradientUnits="userSpaceOnUse">
<stop stop-color="#FFD99E"/>
<stop offset="0.775185" stop-color="#FEB94A"/>
</linearGradient>
<linearGradient id="paint1_linear_4310_54958" x1="0.5" y1="5" x2="13.987" y2="16.0642" gradientUnits="userSpaceOnUse">
<stop stop-color="#102841"/>
<stop offset="1" stop-color="#1359A1"/>
</linearGradient>
<linearGradient id="paint2_linear_4310_54958" x1="-1.56289" y1="1.60839" x2="11.5905" y2="-9.2767" gradientUnits="userSpaceOnUse">
<stop stop-color="#FFD99E"/>
<stop offset="0.775185" stop-color="#FEB94A"/>
</linearGradient>
<linearGradient id="paint3_linear_4310_54958" x1="0.5" y1="0" x2="14.5123" y2="1.12258" gradientUnits="userSpaceOnUse">
<stop stop-color="#102841"/>
<stop offset="1" stop-color="#1359A1"/>
</linearGradient>
<linearGradient id="paint4_linear_4310_54958" x1="3" y1="6.25" x2="11.3246" y2="7.31706" gradientUnits="userSpaceOnUse">
<stop stop-color="#102841"/>
<stop offset="1" stop-color="#1359A1"/>
</linearGradient>
<linearGradient id="paint5_linear_4310_54958" x1="3.625" y1="6.875" x2="10.5622" y2="7.76422" gradientUnits="userSpaceOnUse">
<stop stop-color="#102841"/>
<stop offset="1" stop-color="#1359A1"/>
</linearGradient>
<linearGradient id="paint6_linear_4310_54958" x1="3.44255" y1="8.60144" x2="5.56755" y2="5.72484" gradientUnits="userSpaceOnUse">
<stop offset="0.0588364" stop-color="#FFD99E"/>
<stop offset="0.54452" stop-color="#FEB94A"/>
</linearGradient>
<linearGradient id="paint7_linear_4310_54958" x1="14.5625" y1="13.4375" x2="19.093" y2="14.7925" gradientUnits="userSpaceOnUse">
<stop stop-color="#102841"/>
<stop offset="1" stop-color="#1359A1"/>
</linearGradient>
<clipPath id="clip0_4310_54958">
<rect width="20" height="20" fill="white" transform="translate(0.5)"/>
</clipPath>
</defs>
</svg>
