<svg width="20" height="17" viewBox="0 0 20 17" fill="none" xmlns="http://www.w3.org/2000/svg">
<path fill-rule="evenodd" clip-rule="evenodd" d="M20.3984 11.2058L20.3982 11.2058L20.4831 10.889C20.5518 10.6324 20.4809 10.3946 20.2963 10.2626L19.0614 9.37973L17.6553 8.46373L19.0492 6.82319L19.0448 5.90054C19.0433 5.58278 18.8137 5.3623 18.4843 5.3623H16.1206H16.1205H14.6597L13.2651 11.2062H13.0939L12.311 14.128H18.885C19.2884 14.128 19.7031 13.801 19.8112 13.3975H19.8044L19.8112 13.3972L20.3984 11.2058Z" fill="white"/>
<path fill-rule="evenodd" clip-rule="evenodd" d="M20.3984 11.2058L20.3982 11.2058L20.4831 10.889C20.5518 10.6324 20.4809 10.3946 20.2963 10.2626L19.0614 9.37973L17.6553 8.46373L19.0492 6.82319L19.0448 5.90054C19.0433 5.58278 18.8137 5.3623 18.4843 5.3623H16.1206H16.1205H14.6597L13.2651 11.2062H13.0939L12.311 14.128H18.885C19.2884 14.128 19.7031 13.801 19.8112 13.3975H19.8044L19.8112 13.3972L20.3984 11.2058Z" fill="url(#paint0_linear_4310_54988)"/>
<path fill-rule="evenodd" clip-rule="evenodd" d="M12.0437 4.63464C12.0229 4.63878 12.0015 4.63463 11.9805 4.6324C11.977 4.63203 11.9735 4.63184 11.9699 4.63184H4.99417C4.79244 4.63184 4.58513 4.79532 4.53107 4.99706L2.18242 13.7623C2.12835 13.964 2.24807 14.1276 2.44976 14.1276H12.9644C13.0096 14.1276 13.0492 14.0972 13.061 14.0534L13.2031 13.523C13.209 13.5008 13.2071 13.4787 13.1992 13.4594C13.1921 13.4422 13.2056 13.3989 13.2242 13.3978V13.3978C13.2315 13.3974 13.2377 13.3923 13.2396 13.3853L15.4872 4.99706C15.5413 4.79537 15.4216 4.63184 15.2199 4.63184H12.0676C12.061 4.63184 12.0545 4.63248 12.048 4.63377L12.0437 4.63464Z" fill="url(#paint1_linear_4310_54988)"/>
<path d="M17.905 15.0756C18.5988 14.4682 18.7843 13.5453 18.3193 13.0141C17.8544 12.483 16.915 12.5448 16.2211 13.1522C15.5273 13.7596 15.3418 14.6825 15.8068 15.2137C16.2718 15.7448 17.2112 15.683 17.905 15.0756Z" fill="url(#paint2_linear_4310_54988)"/>
<path d="M17.484 14.5945C17.8309 14.2908 17.9237 13.8293 17.6912 13.5637C17.4587 13.2981 16.989 13.329 16.6421 13.6327C16.2951 13.9364 16.2024 14.3979 16.4349 14.6635C16.6674 14.9291 17.1371 14.8982 17.484 14.5945Z" fill="white"/>
<path d="M17.484 14.5945C17.8309 14.2908 17.9237 13.8293 17.6912 13.5637C17.4587 13.2981 16.989 13.329 16.6421 13.6327C16.2951 13.9364 16.2024 14.3979 16.4349 14.6635C16.6674 14.9291 17.1371 14.8982 17.484 14.5945Z" fill="url(#paint3_linear_4310_54988)"/>
<path d="M6.58591 15.0815C7.27974 14.4741 7.46525 13.5511 7.00026 13.02C6.53527 12.4888 5.59586 12.5506 4.90204 13.158C4.20821 13.7654 4.0227 14.6884 4.48769 15.2196C4.95268 15.7507 5.89209 15.6889 6.58591 15.0815Z" fill="url(#paint4_linear_4310_54988)"/>
<path d="M6.16493 14.6004C6.51185 14.2967 6.60459 13.8352 6.37209 13.5696C6.13959 13.304 5.66988 13.3349 5.32297 13.6386C4.97605 13.9423 4.8833 14.4038 5.11581 14.6694C5.34831 14.9349 5.81802 14.9041 6.16493 14.6004Z" fill="white"/>
<path d="M6.16493 14.6004C6.51185 14.2967 6.60459 13.8352 6.37209 13.5696C6.13959 13.304 5.66988 13.3349 5.32297 13.6386C4.97605 13.9423 4.8833 14.4038 5.11581 14.6694C5.34831 14.9349 5.81802 14.9041 6.16493 14.6004Z" fill="url(#paint5_linear_4310_54988)"/>
<path fill-rule="evenodd" clip-rule="evenodd" d="M17.1786 6.83677C17.1857 6.82879 17.1958 6.82422 17.2065 6.82422H18.9496C19.0046 6.82422 19.0493 6.86858 19.0496 6.92355L19.0611 8.63716C19.0612 8.64483 19.0558 8.65149 19.0483 8.65312V8.65312C19.0336 8.65633 19.0294 8.67871 19.0384 8.69078C19.0506 8.70729 19.0579 8.72771 19.058 8.74984L19.0606 9.28028C19.0609 9.3357 19.016 9.38076 18.9606 9.38076H16.5045C16.1011 9.38076 15.8617 9.05374 15.9698 8.65032L16.2634 7.55466C16.3599 7.19448 16.7008 6.89519 17.0598 6.83518C17.0776 6.8322 17.0942 6.83474 17.1085 6.84131C17.1312 6.85174 17.162 6.85547 17.1786 6.83677V6.83677Z" fill="url(#paint6_linear_4310_54988)"/>
<path d="M6.26543 10.4762C9.08931 10.4762 11.3785 8.18696 11.3785 5.36308C11.3785 2.53921 9.08931 0.25 6.26543 0.25C3.44155 0.25 1.15234 2.53921 1.15234 5.36308C1.15234 8.18696 3.44155 10.4762 6.26543 10.4762Z" fill="url(#paint7_linear_4310_54988)"/>
<path d="M6.26497 9.74478C8.68543 9.74478 10.6476 7.7826 10.6476 5.36214C10.6476 2.94167 8.68543 0.979492 6.26497 0.979492C3.8445 0.979492 1.88232 2.94167 1.88232 5.36214C1.88232 7.7826 3.8445 9.74478 6.26497 9.74478Z" fill="white"/>
<path d="M6.26497 9.74478C8.68543 9.74478 10.6476 7.7826 10.6476 5.36214C10.6476 2.94167 8.68543 0.979492 6.26497 0.979492C3.8445 0.979492 1.88232 2.94167 1.88232 5.36214C1.88232 7.7826 3.8445 9.74478 6.26497 9.74478Z" fill="url(#paint8_linear_4310_54988)"/>
<path d="M6.26498 2.44136C6.21702 2.44138 6.16952 2.43194 6.1252 2.41359C6.08089 2.39524 6.04062 2.36834 6.00671 2.33442C5.97279 2.3005 5.94589 2.26024 5.92754 2.21592C5.90919 2.17161 5.89975 2.12411 5.89976 2.07614V1.71092C5.89976 1.50924 6.06312 1.3457 6.26498 1.3457C6.46685 1.3457 6.6302 1.50924 6.6302 1.71092V2.07614C6.63021 2.12411 6.62077 2.17161 6.60243 2.21592C6.58408 2.26024 6.55717 2.3005 6.52326 2.33442C6.48934 2.36834 6.44908 2.39524 6.40476 2.41359C6.36044 2.43194 6.31295 2.44138 6.26498 2.44136ZM6.26498 9.38055C6.21702 9.38056 6.16952 9.37112 6.1252 9.35277C6.08089 9.33442 6.04062 9.30752 6.00671 9.27361C5.97279 9.23969 5.94589 9.19942 5.92754 9.15511C5.90919 9.11079 5.89975 9.0633 5.89976 9.01533V8.65011C5.89976 8.44842 6.06312 8.28489 6.26498 8.28489C6.46685 8.28489 6.6302 8.44842 6.6302 8.65011V9.01533C6.63021 9.0633 6.62077 9.11079 6.60243 9.15511C6.58408 9.19942 6.55717 9.23969 6.52326 9.27361C6.48934 9.30752 6.44908 9.33442 6.40476 9.35277C6.36044 9.37112 6.31295 9.38056 6.26498 9.38055ZM9.91714 5.72835H9.55192C9.35005 5.72835 9.1867 5.56481 9.1867 5.36313C9.1867 5.16144 9.35005 4.99791 9.55192 4.99791H9.91714C10.119 4.99791 10.2824 5.16144 10.2824 5.36313C10.2824 5.56481 10.1191 5.72835 9.91714 5.72835ZM2.978 5.72835H2.61278C2.41091 5.72835 2.24756 5.56481 2.24756 5.36313C2.24756 5.16144 2.41091 4.99791 2.61278 4.99791H2.978C3.17987 4.99791 3.34322 5.16144 3.34322 5.36313C3.34322 5.56481 3.17987 5.72835 2.978 5.72835Z" fill="url(#paint9_linear_4310_54988)"/>
<path d="M2.35068 10.4746H-1.30153C-1.50339 10.4746 -1.66675 10.311 -1.66675 10.1094C-1.66675 9.90767 -1.50339 9.74414 -1.30153 9.74414H2.35068C2.55254 9.74414 2.7159 9.90767 2.7159 10.1094C2.7159 10.311 2.55254 10.4746 2.35068 10.4746ZM1.98546 11.9355H-0.205867C-0.407733 11.9355 -0.571087 11.7719 -0.571087 11.5702C-0.571087 11.3686 -0.407733 11.205 -0.205867 11.205H1.98546C2.18732 11.205 2.35068 11.3686 2.35068 11.5702C2.35068 11.7719 2.18732 11.9355 1.98546 11.9355ZM1.62023 13.3963H0.889794C0.687927 13.3963 0.524574 13.2328 0.524574 13.0311C0.524574 12.8294 0.687927 12.6659 0.889794 12.6659H1.62023C1.8221 12.6659 1.98546 12.8294 1.98546 13.0311C1.98546 13.2328 1.8221 13.3963 1.62023 13.3963Z" fill="white"/>
<path d="M2.35068 10.4746H-1.30153C-1.50339 10.4746 -1.66675 10.311 -1.66675 10.1094C-1.66675 9.90767 -1.50339 9.74414 -1.30153 9.74414H2.35068C2.55254 9.74414 2.7159 9.90767 2.7159 10.1094C2.7159 10.311 2.55254 10.4746 2.35068 10.4746ZM1.98546 11.9355H-0.205867C-0.407733 11.9355 -0.571087 11.7719 -0.571087 11.5702C-0.571087 11.3686 -0.407733 11.205 -0.205867 11.205H1.98546C2.18732 11.205 2.35068 11.3686 2.35068 11.5702C2.35068 11.7719 2.18732 11.9355 1.98546 11.9355ZM1.62023 13.3963H0.889794C0.687927 13.3963 0.524574 13.2328 0.524574 13.0311C0.524574 12.8294 0.687927 12.6659 0.889794 12.6659H1.62023C1.8221 12.6659 1.98546 12.8294 1.98546 13.0311C1.98546 13.2328 1.8221 13.3963 1.62023 13.3963Z" fill="url(#paint10_linear_4310_54988)"/>
<path d="M5.16992 6.82502C5.12196 6.82508 5.07445 6.81565 5.03014 6.79729C4.98582 6.77893 4.94557 6.75199 4.9117 6.71802C4.87778 6.68412 4.85086 6.64387 4.8325 6.59956C4.81414 6.55525 4.80469 6.50776 4.80469 6.4598C4.80469 6.41184 4.81414 6.36435 4.8325 6.32004C4.85086 6.27574 4.87778 6.23548 4.9117 6.20158L8.38127 2.73201C8.52396 2.58933 8.75503 2.58933 8.89771 2.73201C9.0404 2.87469 9.0404 3.10577 8.89771 3.24845L5.42814 6.71802C5.39427 6.75198 5.35402 6.77892 5.30971 6.79728C5.26539 6.81564 5.21789 6.82507 5.16992 6.82502Z" fill="url(#paint11_linear_4310_54988)"/>
<path d="M6.26511 6.09369C6.66852 6.09369 6.99555 5.76666 6.99555 5.36325C6.99555 4.95984 6.66852 4.63281 6.26511 4.63281C5.8617 4.63281 5.53467 4.95984 5.53467 5.36325C5.53467 5.76666 5.8617 6.09369 6.26511 6.09369Z" fill="url(#paint12_linear_4310_54988)"/>
<defs>
<linearGradient id="paint0_linear_4310_54988" x1="10.3524" y1="5.82204" x2="16.4147" y2="-1.99767" gradientUnits="userSpaceOnUse">
<stop stop-color="#FFD99E"/>
<stop offset="0.775185" stop-color="#FEB94A"/>
</linearGradient>
<linearGradient id="paint1_linear_4310_54988" x1="2.16943" y1="4.63184" x2="16.7372" y2="7.25332" gradientUnits="userSpaceOnUse">
<stop stop-color="#102841"/>
<stop offset="1" stop-color="#1359A1"/>
</linearGradient>
<linearGradient id="paint2_linear_4310_54988" x1="14.9648" y1="14.252" x2="18.1263" y2="12.2998" gradientUnits="userSpaceOnUse">
<stop stop-color="#102841"/>
<stop offset="1" stop-color="#1359A1"/>
</linearGradient>
<linearGradient id="paint3_linear_4310_54988" x1="15.7579" y1="14.4958" x2="15.4215" y2="12.9354" gradientUnits="userSpaceOnUse">
<stop stop-color="#FFD99E"/>
<stop offset="0.775185" stop-color="#FEB94A"/>
</linearGradient>
<linearGradient id="paint4_linear_4310_54988" x1="3.64575" y1="14.2578" x2="6.80725" y2="12.3056" gradientUnits="userSpaceOnUse">
<stop stop-color="#102841"/>
<stop offset="1" stop-color="#1359A1"/>
</linearGradient>
<linearGradient id="paint5_linear_4310_54988" x1="4.43883" y1="14.5017" x2="4.1024" y2="12.9413" gradientUnits="userSpaceOnUse">
<stop stop-color="#FFD99E"/>
<stop offset="0.775185" stop-color="#FEB94A"/>
</linearGradient>
<linearGradient id="paint6_linear_4310_54988" x1="15.9438" y1="6.82422" x2="19.3768" y2="7.36078" gradientUnits="userSpaceOnUse">
<stop stop-color="#102841"/>
<stop offset="1" stop-color="#1359A1"/>
</linearGradient>
<linearGradient id="paint7_linear_4310_54988" x1="1.15234" y1="0.25" x2="12.5028" y2="1.70492" gradientUnits="userSpaceOnUse">
<stop stop-color="#102841"/>
<stop offset="1" stop-color="#1359A1"/>
</linearGradient>
<linearGradient id="paint8_linear_4310_54988" x1="-0.211907" y1="1.43921" x2="5.73738" y2="-6.76632" gradientUnits="userSpaceOnUse">
<stop stop-color="#FFD99E"/>
<stop offset="0.775185" stop-color="#FEB94A"/>
</linearGradient>
<linearGradient id="paint9_linear_4310_54988" x1="2.24756" y1="1.3457" x2="11.1657" y2="2.48884" gradientUnits="userSpaceOnUse">
<stop stop-color="#102841"/>
<stop offset="1" stop-color="#1359A1"/>
</linearGradient>
<linearGradient id="paint10_linear_4310_54988" x1="-2.71386" y1="9.93569" x2="-0.405071" y2="6.11442" gradientUnits="userSpaceOnUse">
<stop stop-color="#FFD99E"/>
<stop offset="0.775185" stop-color="#FEB94A"/>
</linearGradient>
<linearGradient id="paint11_linear_4310_54988" x1="4.80469" y1="2.625" x2="9.4665" y2="3.22256" gradientUnits="userSpaceOnUse">
<stop stop-color="#102841"/>
<stop offset="1" stop-color="#1359A1"/>
</linearGradient>
<linearGradient id="paint12_linear_4310_54988" x1="5.53467" y1="4.63281" x2="7.15616" y2="4.84066" gradientUnits="userSpaceOnUse">
<stop stop-color="#102841"/>
<stop offset="1" stop-color="#1359A1"/>
</linearGradient>
</defs>
</svg>
