<svg width="21" height="14" viewBox="0 0 21 14" fill="none" xmlns="http://www.w3.org/2000/svg">
<path d="M20.5 2.3125V11.6875C20.5 12.8937 19.5187 13.875 18.3125 13.875H2.6875C1.48125 13.875 0.5 12.8937 0.5 11.6875V2.3125C0.5 1.10625 1.48125 0.125 2.6875 0.125H18.3125C19.5187 0.125 20.5 1.10625 20.5 2.3125Z" fill="white"/>
<path d="M20.5 2.3125V11.6875C20.5 12.8937 19.5187 13.875 18.3125 13.875H2.6875C1.48125 13.875 0.5 12.8937 0.5 11.6875V2.3125C0.5 1.10625 1.48125 0.125 2.6875 0.125H18.3125C19.5187 0.125 20.5 1.10625 20.5 2.3125Z" fill="url(#paint0_linear_4310_68211)"/>
<path d="M10.0089 8.9998H3.39086C3.11973 8.9998 2.8999 8.8207 2.8999 8.5998V8.1998C2.8999 7.9789 3.11973 7.7998 3.39086 7.7998H10.0089C10.2801 7.7998 10.4999 7.9789 10.4999 8.1998V8.5998C10.4999 8.8207 10.2801 8.9998 10.0089 8.9998Z" fill="url(#paint1_linear_4310_68211)"/>
<path d="M5.23938 10.9998H3.36043C3.1061 10.9998 2.8999 10.8207 2.8999 10.5998V10.1998C2.8999 9.9789 3.1061 9.7998 3.36043 9.7998H5.23938C5.4937 9.7998 5.6999 9.9789 5.6999 10.1998V10.5998C5.6999 10.8207 5.4937 10.9998 5.23938 10.9998Z" fill="url(#paint2_linear_4310_68211)"/>
<path d="M0.5 2.59961H20.5V4.99961H0.5V2.59961Z" fill="url(#paint3_linear_4310_68211)"/>
<defs>
<linearGradient id="paint0_linear_4310_68211" x1="-4.27846" y1="0.846153" x2="3.56233" y2="-14.8839" gradientUnits="userSpaceOnUse">
<stop stop-color="#FFD99E"/>
<stop offset="0.775185" stop-color="#FEB94A"/>
</linearGradient>
<linearGradient id="paint1_linear_4310_68211" x1="2.8999" y1="7.7998" x2="8.06804" y2="11.9954" gradientUnits="userSpaceOnUse">
<stop stop-color="#102841"/>
<stop offset="1" stop-color="#1359A1"/>
</linearGradient>
<linearGradient id="paint2_linear_4310_68211" x1="2.8999" y1="9.7998" x2="5.79943" y2="10.667" gradientUnits="userSpaceOnUse">
<stop stop-color="#102841"/>
<stop offset="1" stop-color="#1359A1"/>
</linearGradient>
<linearGradient id="paint3_linear_4310_68211" x1="0.5" y1="2.59961" x2="11.0388" y2="13.8569" gradientUnits="userSpaceOnUse">
<stop stop-color="#102841"/>
<stop offset="1" stop-color="#1359A1"/>
</linearGradient>
</defs>
</svg>
