<svg width="20" height="20" viewBox="0 0 20 20" fill="none" xmlns="http://www.w3.org/2000/svg">
<rect width="20" height="20" rx="2" fill="#A50064"/>
<path d="M8.66385 9.21134V9.08338C8.66385 7.95225 8.66427 6.82091 8.66344 5.68978C8.66324 5.40618 8.4691 5.19312 8.2053 5.18163C7.91822 5.16912 7.69007 5.38403 7.68884 5.67461C7.68678 6.22479 7.68822 6.77498 7.68822 7.32537C7.68822 7.91329 7.68822 8.501 7.68822 9.08892V9.21442H6.0601V9.08133C6.0601 7.96045 6.06031 6.83937 6.0599 5.71849C6.0599 5.44719 5.93171 5.26653 5.69594 5.19968C5.42081 5.12176 5.13393 5.30324 5.09003 5.5854C5.08076 5.6459 5.07952 5.70803 5.07952 5.76935C5.0789 6.86972 5.07911 7.97029 5.07911 9.07067C5.07911 9.11475 5.07911 9.15884 5.07911 9.21134H3.44852C3.44852 9.17402 3.44852 9.13752 3.44852 9.10102C3.44852 7.97665 3.4479 6.85229 3.44852 5.72792C3.44934 4.65462 4.1719 3.78351 5.23182 3.59588C5.7928 3.49663 6.3171 3.61351 6.79049 3.93259C6.85891 3.97873 6.90178 3.9777 6.96937 3.93136C8.24899 3.05594 10.0245 3.82063 10.2666 5.35122C10.2874 5.48226 10.2961 5.61637 10.2963 5.74904C10.2986 6.86664 10.2975 7.98424 10.2975 9.10163V9.21093H8.66365L8.66385 9.21134Z" fill="white"/>
<path d="M10.2914 16.4365H8.67235V16.2919C8.67235 15.1826 8.67152 14.0731 8.67317 12.9638C8.67358 12.7674 8.62161 12.5989 8.44818 12.4872C8.12915 12.2816 7.72432 12.4897 7.69256 12.8741C7.68947 12.9114 7.69071 12.9491 7.69071 12.9868C7.69071 14.0893 7.69071 15.1918 7.69071 16.2943V16.4342H6.06173C6.06173 16.3949 6.06173 16.3523 6.06173 16.3099C6.06173 15.1801 6.06214 14.0502 6.06131 12.9204C6.06131 12.6292 5.85797 12.4133 5.5839 12.4088C5.30075 12.4041 5.08627 12.6159 5.08566 12.9075C5.08421 13.7198 5.08504 14.5323 5.08504 15.3446C5.08504 15.7059 5.08504 16.0674 5.08504 16.4371H3.45626C3.4544 16.4018 3.45049 16.3654 3.45049 16.3289C3.45028 15.2094 3.44471 14.0897 3.45193 12.9702C3.4577 12.0594 3.87181 11.3813 4.70187 10.9925C5.41005 10.6609 6.11143 10.7334 6.77114 11.151C6.85528 11.2043 6.90581 11.2014 6.9848 11.1482C8.25474 10.2925 10.0299 11.0615 10.2654 12.5692C10.2875 12.7101 10.2958 12.8545 10.2962 12.9972C10.2986 14.0997 10.2976 15.2023 10.2972 16.3048C10.2972 16.3482 10.2935 16.3918 10.2914 16.4369V16.4365Z" fill="white"/>
<path d="M10.8938 13.6083C10.8942 12.041 12.1579 10.7817 13.7273 10.7842C15.2896 10.7866 16.5527 12.05 16.5521 13.6095C16.5515 15.1716 15.2781 16.441 13.7159 16.4371C12.1543 16.4332 10.8934 15.1692 10.8938 13.6083ZM14.9324 13.6111C14.9342 12.9442 14.3916 12.4004 13.7239 12.3996C13.0561 12.399 12.5108 12.9405 12.5088 13.6066C12.5065 14.2689 13.0549 14.8188 13.7196 14.821C14.3843 14.8231 14.9308 14.2781 14.9326 13.6113L14.9324 13.6111Z" fill="white"/>
<path d="M13.7226 3.56152C15.2894 3.56193 16.5566 4.83005 16.5521 6.39258C16.5476 7.95163 15.2796 9.21524 13.7206 9.21441C12.1555 9.21359 10.8911 7.94589 10.8938 6.38028C10.8965 4.81815 12.1582 3.56091 13.7226 3.56152ZM14.932 6.40181C14.9496 5.7617 14.4157 5.19582 13.7776 5.17798C13.0821 5.15851 12.5235 5.68359 12.5088 6.37085C12.4947 7.0249 13.0283 7.57663 13.6959 7.59775C14.3583 7.61866 14.9134 7.08169 14.932 6.40181Z" fill="white"/>
</svg>
