<svg width="14" height="14" viewBox="0 0 14 14" fill="none" xmlns="http://www.w3.org/2000/svg">
<path d="M2.33398 4.66602H11.6673M2.33398 4.66602V9.79946C2.33398 10.4529 2.33398 10.7794 2.46114 11.0289C2.573 11.2485 2.75134 11.4271 2.97087 11.539C3.22019 11.666 3.54673 11.666 4.19885 11.666H9.80245C10.4546 11.666 10.7806 11.666 11.03 11.539C11.2495 11.4271 11.4284 11.2485 11.5403 11.0289C11.6673 10.7796 11.6673 10.4536 11.6673 9.80144V4.66602M2.33398 4.66602V4.19946C2.33398 3.54607 2.33398 3.21913 2.46114 2.96956C2.573 2.75004 2.75134 2.57169 2.97087 2.45984C3.22043 2.33268 3.54737 2.33268 4.20077 2.33268H4.66732M11.6673 4.66602V4.19755C11.6673 3.54543 11.6673 3.21888 11.5403 2.96956C11.4284 2.75004 11.2495 2.57169 11.03 2.45984C10.7804 2.33268 10.4542 2.33268 9.80077 2.33268H9.33398M9.33398 1.16602V2.33268M9.33398 2.33268H4.66732M4.66732 1.16602V2.33268" stroke="#262626" stroke-width="1.33333" stroke-linecap="round" stroke-linejoin="round"/>
</svg>
