<svg width="40" height="48" viewBox="0 0 40 48" fill="none" xmlns="http://www.w3.org/2000/svg">
<path d="M36.9479 45.4945C35.4738 47.0858 33.3839 47.9996 31.2143 47.9996H8.78597C6.61641 47.9996 4.52653 47.0858 3.05231 45.4945C1.57819 43.9032 0.827439 41.7496 0.993377 39.5857L3.13763 12.5679C3.27066 10.8314 4.743 9.46875 6.48797 9.46875H33.5123C35.2572 9.46875 36.7296 10.8314 36.8626 12.5717L39.0059 39.5819C39.1728 41.7496 38.4221 43.9032 36.9479 45.4945Z" fill="url(#paint0_linear_5402_5837)"/>
<path d="M29.2788 9.27891V15.7426C29.2788 16.5195 28.6499 17.1484 27.873 17.1484C27.097 17.1484 26.4672 16.5195 26.4672 15.7426V9.27891C26.4672 5.71294 23.5667 2.81147 20.0007 2.81147H19.9885C16.4282 2.81803 13.5342 5.71669 13.5342 9.27891V15.7426C13.5342 16.5195 12.9044 17.1484 12.1284 17.1484C11.3515 17.1484 10.7227 16.5195 10.7227 15.7426V9.27891C10.7227 4.16663 14.878 0.0065625 19.9884 0H20.0006C25.1168 0 29.2788 4.16288 29.2788 9.27891Z" fill="url(#paint1_linear_5402_5837)"/>
<path d="M26.3325 25.8276L19.987 32.1732L19.062 33.0982C18.9315 33.2291 18.7766 33.3328 18.6059 33.4036C18.4353 33.4744 18.2524 33.5107 18.0676 33.5105C17.8829 33.5107 17.7 33.4744 17.5293 33.4036C17.3587 33.3328 17.2037 33.2291 17.0733 33.0982L13.6658 29.6907C13.1166 29.1415 13.1166 28.2521 13.6658 27.7029C14.215 27.1537 15.1053 27.1537 15.6536 27.7029L18.0677 30.1161L19.9871 28.1968L24.345 23.8389C24.8932 23.2907 25.7835 23.2907 26.3327 23.8389C26.8817 24.3882 26.8817 25.2785 26.3325 25.8276Z" fill="url(#paint2_linear_5402_5837)"/>
<defs>
<linearGradient id="paint0_linear_5402_5837" x1="1.23165" y1="47.9998" x2="39.0087" y2="47.9998" gradientUnits="userSpaceOnUse">
<stop stop-color="#17395C"/>
<stop offset="1" stop-color="#2365AA" stop-opacity="0.89"/>
</linearGradient>
<linearGradient id="paint1_linear_5402_5837" x1="20.0011" y1="0.123819" x2="20.0011" y2="28.8712" gradientUnits="userSpaceOnUse">
<stop stop-color="#FFE5CB"/>
<stop offset="1" stop-color="#EEC093"/>
</linearGradient>
<linearGradient id="paint2_linear_5402_5837" x1="19.9995" y1="23.5005" x2="19.9995" y2="40.4032" gradientUnits="userSpaceOnUse">
<stop stop-color="#FFE5CB"/>
<stop offset="1" stop-color="#EEC093"/>
</linearGradient>
</defs>
</svg>
