<svg width="21" height="20" viewBox="0 0 21 20" fill="none" xmlns="http://www.w3.org/2000/svg">
<path d="M17.8616 18.9561C17.2474 19.6191 16.3766 19.9998 15.4726 19.9998H6.12746C5.22347 19.9998 4.35269 19.6191 3.73843 18.9561C3.12421 18.293 2.8114 17.3957 2.88054 16.494L3.77398 5.23664C3.82941 4.51309 4.44289 3.94531 5.16996 3.94531H16.4301C17.1571 3.94531 17.7706 4.51309 17.8261 5.2382L18.7191 16.4925C18.7886 17.3957 18.4759 18.293 17.8616 18.9561Z" fill="url(#paint0_linear_4450_22900)"/>
<path d="M14.6653 3.86621V6.55941C14.6653 6.88313 14.4033 7.14516 14.0796 7.14516C13.7563 7.14516 13.4938 6.88313 13.4938 6.55941V3.86621C13.4938 2.38039 12.2853 1.17145 10.7995 1.17145H10.7944C9.3109 1.17418 8.10508 2.38195 8.10508 3.86621V6.55941C8.10508 6.88313 7.84266 7.14516 7.51934 7.14516C7.19562 7.14516 6.93359 6.88313 6.93359 6.55941V3.86621C6.93359 1.73609 8.665 0.00273437 10.7943 0H10.7994C12.9312 0 14.6653 1.73453 14.6653 3.86621Z" fill="url(#paint1_linear_4450_22900)"/>
<path fill-rule="evenodd" clip-rule="evenodd" d="M10.8008 8C11.3531 8 11.8008 8.44772 11.8008 9V11H13.8008C14.3531 11 14.8008 11.4477 14.8008 12C14.8008 12.5523 14.3531 13 13.8008 13H11.8008V15C11.8008 15.5523 11.3531 16 10.8008 16C10.2485 16 9.80078 15.5523 9.80078 15V13H7.80078C7.2485 13 6.80078 12.5523 6.80078 12C6.80078 11.4477 7.2485 11 7.80078 11H9.80078V9C9.80078 8.44772 10.2485 8 10.8008 8Z" fill="url(#paint2_linear_4450_22900)"/>
<defs>
<linearGradient id="paint0_linear_4450_22900" x1="10.8002" y1="4.06123" x2="10.8002" y2="19.9792" gradientUnits="userSpaceOnUse">
<stop stop-color="#E0B181"/>
<stop offset="1" stop-color="#BE9367"/>
</linearGradient>
<linearGradient id="paint1_linear_4450_22900" x1="-7.17111" y1="-13.1547" x2="10.0857" y2="24.5849" gradientUnits="userSpaceOnUse">
<stop offset="0.402843" stop-color="#F6BB91"/>
<stop offset="0.907674" stop-color="white"/>
</linearGradient>
<linearGradient id="paint2_linear_4450_22900" x1="-7.79334" y1="-6.72849" x2="10.0921" y2="22.6955" gradientUnits="userSpaceOnUse">
<stop offset="0.402843" stop-color="#F6BB91" stop-opacity="0.549561"/>
<stop offset="0.907674" stop-color="white"/>
</linearGradient>
</defs>
</svg>
