<svg width="20" height="20" viewBox="0 0 20 20" fill="none" xmlns="http://www.w3.org/2000/svg">
<path d="M17.0608 18.9561C16.4466 19.6191 15.5758 19.9998 14.6718 19.9998H5.32667C4.42269 19.9998 3.55191 19.6191 2.93765 18.9561C2.32343 18.293 2.01062 17.3957 2.07976 16.494L2.9732 5.23664C3.02863 4.51309 3.6421 3.94531 4.36917 3.94531H15.6293C16.3564 3.94531 16.9698 4.51309 17.0253 5.2382L17.9183 16.4925C17.9878 17.3957 17.6751 18.293 17.0608 18.9561Z" fill="url(#paint0_linear_3069_226462)"/>
<path d="M13.8645 3.86621V6.55941C13.8645 6.88313 13.6025 7.14516 13.2788 7.14516C12.9555 7.14516 12.693 6.88313 12.693 6.55941V3.86621C12.693 2.38039 11.4845 1.17145 9.99867 1.17145H9.99359C8.51012 1.17418 7.3043 2.38195 7.3043 3.86621V6.55941C7.3043 6.88313 7.04187 7.14516 6.71855 7.14516C6.39484 7.14516 6.13281 6.88313 6.13281 6.55941V3.86621C6.13281 1.73609 7.86422 0.00273438 9.99355 0H9.99863C12.1304 0 13.8645 1.73453 13.8645 3.86621Z" fill="url(#paint1_linear_3069_226462)"/>
<path fill-rule="evenodd" clip-rule="evenodd" d="M10 8C10.5523 8 11 8.44772 11 9V11H13C13.5523 11 14 11.4477 14 12C14 12.5523 13.5523 13 13 13H11V15C11 15.5523 10.5523 16 10 16C9.44772 16 9 15.5523 9 15V13H7C6.44772 13 6 12.5523 6 12C6 11.4477 6.44772 11 7 11H9V9C9 8.44772 9.44772 8 10 8Z" fill="#102841"/>
<defs>
<linearGradient id="paint0_linear_3069_226462" x1="2.07031" y1="7.75826" x2="13.6063" y2="-4.0076" gradientUnits="userSpaceOnUse">
<stop offset="0.193888" stop-color="#FFF0D8"/>
<stop offset="0.948029" stop-color="#FFD797"/>
</linearGradient>
<linearGradient id="paint1_linear_3069_226462" x1="6.13281" y1="1.69697" x2="11.2365" y2="-4.00571" gradientUnits="userSpaceOnUse">
<stop offset="0.193888" stop-color="#FFF0D8"/>
<stop offset="0.948029" stop-color="#FFD797"/>
</linearGradient>
</defs>
</svg>
