<svg width="123" height="123" viewBox="0 0 123 123" fill="none" xmlns="http://www.w3.org/2000/svg">
<path d="M68.5387 66.4666L75.0539 60.7846C75.1423 60.7113 75.2059 60.6124 75.2358 60.5015C75.2657 60.3906 75.2605 60.2732 75.2209 60.1654C75.1813 60.0576 75.1093 59.9647 75.0147 59.8995C74.9201 59.8343 74.8077 59.8001 74.6928 59.8015H67.55C67.4604 59.8023 67.3719 59.7815 67.292 59.7407C67.2122 59.6999 67.1434 59.6404 67.0916 59.5673C67.0397 59.4942 67.0064 59.4096 66.9943 59.3207C66.9822 59.2319 66.9919 59.1415 67.0224 59.0572L70.9381 48.3263C70.9684 48.2424 70.9781 48.1525 70.9664 48.0641C70.9546 47.9757 70.9217 47.8915 70.8705 47.8185C70.8193 47.7455 70.7513 47.6859 70.6721 47.6447C70.593 47.6036 70.5052 47.5821 70.416 47.582H56.5525C56.4377 47.5825 56.3258 47.6185 56.2324 47.6852C56.1389 47.7518 56.0683 47.8458 56.0304 47.9542L50.2928 64.0616C50.2636 64.1452 50.2548 64.2345 50.2671 64.3221C50.2794 64.4098 50.3125 64.4932 50.3636 64.5655C50.4147 64.6378 50.4823 64.6968 50.5608 64.7376C50.6393 64.7785 50.7264 64.8 50.8149 64.8003H57.0302C57.12 64.8 57.2086 64.8215 57.2883 64.863C57.368 64.9045 57.4365 64.9646 57.4878 65.0384C57.5391 65.1121 57.5718 65.1972 57.5831 65.2863C57.5943 65.3755 57.5837 65.466 57.5523 65.5502L52.5201 79.0471C52.4784 79.1618 52.4756 79.2871 52.5122 79.4036C52.5489 79.5201 52.6229 79.6212 52.7228 79.6914C52.8227 79.7616 52.943 79.7969 53.0649 79.7919C53.1869 79.7869 53.3039 79.7418 53.3977 79.6636L59.0408 74.7425L68.5387 66.4666Z" fill="url(#paint0_linear_2968_165877)"/>
<path d="M54.6258 47.75L48.6935 63.6592C48.2366 64.8846 49.1428 66.1896 50.4506 66.1896H55.8759L50.8753 79.6286" stroke="url(#paint1_linear_2968_165877)" strokeWidth="1.25014" stroke-miterlimit="10" strokeLinecap="round" strokeLinejoin="round"/>
<g filter="url(#filter0_f_2968_165877)">
<circle cx="61.502" cy="61.502" r="17.502" fill="#FFE600"/>
</g>
<defs>
<filter id="filter0_f_2968_165877" x="0.245121" y="0.245121" width="122.514" height="122.514" filterUnits="userSpaceOnUse" color-interpolation-filters="sRGB">
<feFlood flood-opacity="0" result="BackgroundImageFix"/>
<feBlend mode="normal" in="SourceGraphic" in2="BackgroundImageFix" result="shape"/>
<feGaussianBlur stdDeviation="21.8774" result="effect1_foregroundBlur_2968_165877"/>
</filter>
<linearGradient id="paint0_linear_2968_165877" x1="62.7583" y1="40.5598" x2="62.7583" y2="87.44" gradientUnits="userSpaceOnUse">
<stop stop-color="#FFD494" stop-opacity="0"/>
<stop offset="0.486898" stop-color="#FFE68D"/>
<stop offset="1" stop-color="#FFD390" stop-opacity="0"/>
</linearGradient>
<linearGradient id="paint1_linear_2968_165877" x1="55.2512" y1="79.8412" x2="60.034" y2="48.4794" gradientUnits="userSpaceOnUse">
<stop stop-color="white" stop-opacity="0"/>
<stop offset="0.371797" stop-color="white"/>
<stop offset="0.583333" stop-color="white"/>
<stop offset="0.969718" stop-color="white" stop-opacity="0"/>
</linearGradient>
</defs>
</svg>
