<svg width="529" height="123" viewBox="0 0 529 123" fill="none" xmlns="http://www.w3.org/2000/svg">
<mask id="path-1-outside-1_3069_228028" maskUnits="userSpaceOnUse" x="0.199219" y="47.5195" width="529" height="32" fill="black">
<rect fill="white" x="0.199219" y="47.5195" width="529" height="32"/>
<path d="M25.2672 56.4835H11.4512V60.5315H22.6272V68.0555H11.4512V77.9995H1.19922V48.9595H25.2672V56.4835Z"/>
<path d="M42.4386 70.4755H55.5946V77.9995H32.1866V48.9595H42.4386V70.4755Z"/>
<path d="M89.5608 48.5195C92.3475 48.5195 94.8408 48.8715 97.0408 49.5755C99.2702 50.2502 101.236 51.2769 102.937 52.6555L98.8008 59.2555C97.4222 58.2875 95.9702 57.5102 94.4448 56.9235C92.9488 56.3369 91.3208 56.0435 89.5608 56.0435C88.7982 56.0435 88.1822 56.1022 87.7128 56.2195C87.2728 56.3369 86.9502 56.4982 86.7448 56.7035C86.5688 56.9089 86.4808 57.1435 86.4808 57.4075C86.4808 57.7595 86.7448 58.0235 87.2728 58.1995C87.8302 58.3755 88.5195 58.5662 89.3408 58.7715L93.3448 59.6955C96.3075 60.3702 98.5368 61.3675 100.033 62.6875C101.558 64.0075 102.321 65.8409 102.321 68.1875C102.321 70.5342 101.749 72.4702 100.605 73.9955C99.4608 75.4915 97.9062 76.6062 95.9408 77.3395C94.0048 78.0729 91.8048 78.4395 89.3408 78.4395C87.4928 78.4395 85.6448 78.2782 83.7968 77.9555C81.9488 77.6035 80.2328 77.1049 78.6488 76.4595C77.0648 75.7849 75.7008 74.9782 74.5568 74.0395L78.6048 67.3075C79.4555 67.9822 80.4822 68.5982 81.6848 69.1555C82.8875 69.6835 84.1342 70.1089 85.4248 70.4315C86.7155 70.7542 87.9182 70.9155 89.0328 70.9155C89.7368 70.9155 90.2942 70.8569 90.7048 70.7395C91.1155 70.6222 91.3942 70.4755 91.5408 70.2995C91.7168 70.0942 91.8048 69.8595 91.8048 69.5955C91.8048 69.1849 91.6288 68.8769 91.2768 68.6715C90.9542 68.4662 90.3528 68.2609 89.4728 68.0555L85.0728 67.0875C83.5182 66.7355 82.0368 66.2662 80.6288 65.6795C79.2208 65.0929 78.0768 64.2422 77.1968 63.1275C76.3168 61.9835 75.8768 60.4435 75.8768 58.5075C75.8768 56.5129 76.4048 54.7675 77.4608 53.2715C78.5462 51.7755 80.1008 50.6169 82.1248 49.7955C84.1782 48.9449 86.6568 48.5195 89.5608 48.5195Z"/>
<path d="M137.804 48.9595V77.9995H127.552V48.9595H137.804ZM119.588 48.9595V77.9995H109.336V48.9595H119.588ZM133.228 59.6515V67.1755H114.264V59.6515H133.228Z"/>
<path d="M189.27 48.9595L179.458 77.9995H167.27L157.458 48.9595H168.15L172.154 64.8435L173.562 70.5195L174.882 64.9315L178.974 48.9595H189.27Z"/>
<path d="M208.08 48.5195C211.16 48.5195 213.8 49.1062 216 50.2795C218.2 51.4529 219.887 53.1542 221.06 55.3835C222.233 57.6129 222.82 60.3115 222.82 63.4795C222.82 66.6475 222.233 69.3462 221.06 71.5755C219.887 73.8049 218.2 75.5062 216 76.6795C213.8 77.8529 211.16 78.4395 208.08 78.4395C205.029 78.4395 202.389 77.8529 200.16 76.6795C197.96 75.5062 196.259 73.8049 195.056 71.5755C193.883 69.3462 193.296 66.6475 193.296 63.4795C193.296 60.3115 193.883 57.6129 195.056 55.3835C196.259 53.1542 197.96 51.4529 200.16 50.2795C202.389 49.1062 205.029 48.5195 208.08 48.5195ZM208.08 56.2195C207.083 56.2195 206.261 56.4835 205.616 57.0115C205 57.5102 204.531 58.2875 204.208 59.3435C203.915 60.3995 203.768 61.7782 203.768 63.4795C203.768 65.1515 203.915 66.5302 204.208 67.6155C204.531 68.6715 205 69.4635 205.616 69.9915C206.261 70.4902 207.083 70.7395 208.08 70.7395C209.077 70.7395 209.884 70.4902 210.5 69.9915C211.145 69.4635 211.615 68.6715 211.908 67.6155C212.201 66.5302 212.348 65.1515 212.348 63.4795C212.348 61.7782 212.201 60.3995 211.908 59.3435C211.615 58.2875 211.145 57.5102 210.5 57.0115C209.884 56.4835 209.077 56.2195 208.08 56.2195Z"/>
<path d="M257.735 48.9595V65.5035C257.735 69.8449 256.561 73.0862 254.215 75.2275C251.897 77.3689 248.392 78.4395 243.699 78.4395C239.005 78.4395 235.485 77.3689 233.139 75.2275C230.821 73.0862 229.663 69.8449 229.663 65.5035V48.9595H239.959V66.2955C239.959 67.7622 240.281 68.8769 240.927 69.6395C241.572 70.3729 242.496 70.7395 243.699 70.7395C244.931 70.7395 245.869 70.3729 246.515 69.6395C247.16 68.8769 247.483 67.7622 247.483 66.2955V48.9595H257.735Z"/>
<path d="M292.799 69.1115C292.271 71.3702 291.362 73.1889 290.071 74.5675C288.81 75.9462 287.27 76.9435 285.451 77.5595C283.632 78.1462 281.608 78.4395 279.379 78.4395C276.328 78.4395 273.688 77.8529 271.459 76.6795C269.259 75.5062 267.558 73.8049 266.355 71.5755C265.182 69.3462 264.595 66.6475 264.595 63.4795C264.595 60.3115 265.182 57.6129 266.355 55.3835C267.558 53.1542 269.259 51.4529 271.459 50.2795C273.688 49.1062 276.328 48.5195 279.379 48.5195C281.52 48.5195 283.515 48.8275 285.363 49.4435C287.211 50.0302 288.766 50.9689 290.027 52.2595C291.318 53.5502 292.168 55.2369 292.579 57.3195L283.779 60.7515C283.544 58.8449 283.06 57.6129 282.327 57.0555C281.623 56.4982 280.728 56.2195 279.643 56.2195C278.646 56.2195 277.795 56.4835 277.091 57.0115C276.416 57.5102 275.903 58.3022 275.551 59.3875C275.228 60.4435 275.067 61.8075 275.067 63.4795C275.067 65.1222 275.214 66.4862 275.507 67.5715C275.83 68.6569 276.343 69.4635 277.047 69.9915C277.751 70.4902 278.69 70.7395 279.863 70.7395C280.919 70.7395 281.784 70.4315 282.459 69.8155C283.134 69.1702 283.559 68.1582 283.735 66.7795L292.799 69.1115Z"/>
<path d="M327.724 48.9595V77.9995H317.472V48.9595H327.724ZM309.508 48.9595V77.9995H299.256V48.9595H309.508ZM323.148 59.6515V67.1755H304.184V59.6515H323.148Z"/>
<path d="M336.087 77.9995V48.9595H360.199V56.4835H346.339V60.0915H357.515V67.0435H346.339V70.4755H360.727V77.9995H336.087Z"/>
<path d="M383.342 48.9595C387.126 48.9595 390.03 49.8102 392.054 51.5115C394.078 53.1835 395.09 55.4129 395.09 58.1995C395.09 61.3969 394.093 63.8022 392.098 65.4155C390.133 67.0289 387.258 67.8355 383.474 67.8355L382.462 68.3635H377.622V77.9995H367.59V48.9595H383.342ZM381.582 61.6315C382.668 61.6315 383.474 61.4409 384.002 61.0595C384.56 60.6489 384.838 59.9449 384.838 58.9475C384.838 57.9795 384.56 57.2902 384.002 56.8795C383.474 56.4689 382.668 56.2635 381.582 56.2635H377.622V61.6315H381.582ZM387.654 63.7875L396.718 77.9995H385.586L378.81 65.2835L387.654 63.7875Z"/>
<path d="M417.919 77.9995V64.3595C417.919 63.3915 417.919 62.4235 417.919 61.4555C417.919 60.4875 417.919 59.5195 417.919 58.5515C416.981 59.3729 415.969 60.0915 414.883 60.7075C413.798 61.2942 412.654 61.6755 411.451 61.8515L410.879 53.6235C411.789 53.5355 412.698 53.3449 413.607 53.0515C414.517 52.7289 415.367 52.3475 416.159 51.9075C416.981 51.4675 417.699 50.9982 418.315 50.4995C418.961 50.0009 419.445 49.4875 419.767 48.9595H427.731V77.9995H417.919Z"/>
<path d="M436.399 77.9995V71.8395C438.599 70.6662 440.505 69.4929 442.119 68.3195C443.761 67.1462 445.111 66.0022 446.167 64.8875C447.252 63.7435 448.059 62.6729 448.587 61.6755C449.115 60.6489 449.379 59.7102 449.379 58.8595C449.379 58.1555 449.203 57.5395 448.851 57.0115C448.499 56.4835 447.883 56.2195 447.003 56.2195C446.005 56.2195 445.272 56.6302 444.803 57.4515C444.333 58.2729 444.128 59.5782 444.187 61.3675L435.431 59.2555C435.372 56.7915 435.885 54.7675 436.971 53.1835C438.056 51.5995 439.537 50.4262 441.415 49.6635C443.321 48.9009 445.419 48.5195 447.707 48.5195C449.907 48.5195 451.755 48.8275 453.251 49.4435C454.776 50.0302 455.993 50.8075 456.903 51.7755C457.812 52.7142 458.457 53.7409 458.839 54.8555C459.249 55.9409 459.455 56.9822 459.455 57.9795C459.455 59.9155 458.941 61.6609 457.915 63.2155C456.917 64.7702 455.568 66.1635 453.867 67.3955C452.165 68.6275 450.273 69.7422 448.191 70.7395V70.8275C448.807 70.7689 449.481 70.7249 450.215 70.6955C450.977 70.6369 451.769 70.6075 452.591 70.6075C453.441 70.5782 454.277 70.5635 455.099 70.5635H459.631V77.9995H436.399Z"/>
<path d="M471.487 68.9355C473.218 68.9355 474.552 69.3462 475.491 70.1675C476.43 70.9889 476.899 72.1475 476.899 73.6435C476.899 75.1395 476.43 76.2982 475.491 77.1195C474.552 77.9409 473.218 78.3515 471.487 78.3515C469.786 78.3515 468.451 77.9409 467.483 77.1195C466.544 76.2982 466.075 75.1395 466.075 73.6435C466.075 72.1475 466.544 70.9889 467.483 70.1675C468.451 69.3462 469.786 68.9355 471.487 68.9355Z"/>
<path d="M486.131 77.9995V64.3595C486.131 63.3915 486.131 62.4235 486.131 61.4555C486.131 60.4875 486.131 59.5195 486.131 58.5515C485.193 59.3729 484.181 60.0915 483.095 60.7075C482.01 61.2942 480.866 61.6755 479.663 61.8515L479.091 53.6235C480.001 53.5355 480.91 53.3449 481.819 53.0515C482.729 52.7289 483.579 52.3475 484.371 51.9075C485.193 51.4675 485.911 50.9982 486.527 50.4995C487.173 50.0009 487.657 49.4875 487.979 48.9595H495.943V77.9995H486.131Z"/>
<path d="M504.611 77.9995V71.8395C506.811 70.6662 508.717 69.4929 510.331 68.3195C511.973 67.1462 513.323 66.0022 514.379 64.8875C515.464 63.7435 516.271 62.6729 516.799 61.6755C517.327 60.6489 517.591 59.7102 517.591 58.8595C517.591 58.1555 517.415 57.5395 517.063 57.0115C516.711 56.4835 516.095 56.2195 515.215 56.2195C514.217 56.2195 513.484 56.6302 513.015 57.4515C512.545 58.2729 512.34 59.5782 512.399 61.3675L503.643 59.2555C503.584 56.7915 504.097 54.7675 505.183 53.1835C506.268 51.5995 507.749 50.4262 509.627 49.6635C511.533 48.9009 513.631 48.5195 515.919 48.5195C518.119 48.5195 519.967 48.8275 521.463 49.4435C522.988 50.0302 524.205 50.8075 525.115 51.7755C526.024 52.7142 526.669 53.7409 527.051 54.8555C527.461 55.9409 527.667 56.9822 527.667 57.9795C527.667 59.9155 527.153 61.6609 526.127 63.2155C525.129 64.7702 523.78 66.1635 522.079 67.3955C520.377 68.6275 518.485 69.7422 516.403 70.7395V70.8275C517.019 70.7689 517.693 70.7249 518.427 70.6955C519.189 70.6369 519.981 70.6075 520.803 70.6075C521.653 70.5782 522.489 70.5635 523.311 70.5635H527.843V77.9995H504.611Z"/>
</mask>
<path d="M25.2672 56.4835H11.4512V60.5315H22.6272V68.0555H11.4512V77.9995H1.19922V48.9595H25.2672V56.4835Z" fill="white"/>
<path d="M42.4386 70.4755H55.5946V77.9995H32.1866V48.9595H42.4386V70.4755Z" fill="white"/>
<path d="M89.5608 48.5195C92.3475 48.5195 94.8408 48.8715 97.0408 49.5755C99.2702 50.2502 101.236 51.2769 102.937 52.6555L98.8008 59.2555C97.4222 58.2875 95.9702 57.5102 94.4448 56.9235C92.9488 56.3369 91.3208 56.0435 89.5608 56.0435C88.7982 56.0435 88.1822 56.1022 87.7128 56.2195C87.2728 56.3369 86.9502 56.4982 86.7448 56.7035C86.5688 56.9089 86.4808 57.1435 86.4808 57.4075C86.4808 57.7595 86.7448 58.0235 87.2728 58.1995C87.8302 58.3755 88.5195 58.5662 89.3408 58.7715L93.3448 59.6955C96.3075 60.3702 98.5368 61.3675 100.033 62.6875C101.558 64.0075 102.321 65.8409 102.321 68.1875C102.321 70.5342 101.749 72.4702 100.605 73.9955C99.4608 75.4915 97.9062 76.6062 95.9408 77.3395C94.0048 78.0729 91.8048 78.4395 89.3408 78.4395C87.4928 78.4395 85.6448 78.2782 83.7968 77.9555C81.9488 77.6035 80.2328 77.1049 78.6488 76.4595C77.0648 75.7849 75.7008 74.9782 74.5568 74.0395L78.6048 67.3075C79.4555 67.9822 80.4822 68.5982 81.6848 69.1555C82.8875 69.6835 84.1342 70.1089 85.4248 70.4315C86.7155 70.7542 87.9182 70.9155 89.0328 70.9155C89.7368 70.9155 90.2942 70.8569 90.7048 70.7395C91.1155 70.6222 91.3942 70.4755 91.5408 70.2995C91.7168 70.0942 91.8048 69.8595 91.8048 69.5955C91.8048 69.1849 91.6288 68.8769 91.2768 68.6715C90.9542 68.4662 90.3528 68.2609 89.4728 68.0555L85.0728 67.0875C83.5182 66.7355 82.0368 66.2662 80.6288 65.6795C79.2208 65.0929 78.0768 64.2422 77.1968 63.1275C76.3168 61.9835 75.8768 60.4435 75.8768 58.5075C75.8768 56.5129 76.4048 54.7675 77.4608 53.2715C78.5462 51.7755 80.1008 50.6169 82.1248 49.7955C84.1782 48.9449 86.6568 48.5195 89.5608 48.5195Z" fill="white"/>
<path d="M137.804 48.9595V77.9995H127.552V48.9595H137.804ZM119.588 48.9595V77.9995H109.336V48.9595H119.588ZM133.228 59.6515V67.1755H114.264V59.6515H133.228Z" fill="white"/>
<path d="M189.27 48.9595L179.458 77.9995H167.27L157.458 48.9595H168.15L172.154 64.8435L173.562 70.5195L174.882 64.9315L178.974 48.9595H189.27Z" fill="white"/>
<path d="M208.08 48.5195C211.16 48.5195 213.8 49.1062 216 50.2795C218.2 51.4529 219.887 53.1542 221.06 55.3835C222.233 57.6129 222.82 60.3115 222.82 63.4795C222.82 66.6475 222.233 69.3462 221.06 71.5755C219.887 73.8049 218.2 75.5062 216 76.6795C213.8 77.8529 211.16 78.4395 208.08 78.4395C205.029 78.4395 202.389 77.8529 200.16 76.6795C197.96 75.5062 196.259 73.8049 195.056 71.5755C193.883 69.3462 193.296 66.6475 193.296 63.4795C193.296 60.3115 193.883 57.6129 195.056 55.3835C196.259 53.1542 197.96 51.4529 200.16 50.2795C202.389 49.1062 205.029 48.5195 208.08 48.5195ZM208.08 56.2195C207.083 56.2195 206.261 56.4835 205.616 57.0115C205 57.5102 204.531 58.2875 204.208 59.3435C203.915 60.3995 203.768 61.7782 203.768 63.4795C203.768 65.1515 203.915 66.5302 204.208 67.6155C204.531 68.6715 205 69.4635 205.616 69.9915C206.261 70.4902 207.083 70.7395 208.08 70.7395C209.077 70.7395 209.884 70.4902 210.5 69.9915C211.145 69.4635 211.615 68.6715 211.908 67.6155C212.201 66.5302 212.348 65.1515 212.348 63.4795C212.348 61.7782 212.201 60.3995 211.908 59.3435C211.615 58.2875 211.145 57.5102 210.5 57.0115C209.884 56.4835 209.077 56.2195 208.08 56.2195Z" fill="white"/>
<path d="M257.735 48.9595V65.5035C257.735 69.8449 256.561 73.0862 254.215 75.2275C251.897 77.3689 248.392 78.4395 243.699 78.4395C239.005 78.4395 235.485 77.3689 233.139 75.2275C230.821 73.0862 229.663 69.8449 229.663 65.5035V48.9595H239.959V66.2955C239.959 67.7622 240.281 68.8769 240.927 69.6395C241.572 70.3729 242.496 70.7395 243.699 70.7395C244.931 70.7395 245.869 70.3729 246.515 69.6395C247.16 68.8769 247.483 67.7622 247.483 66.2955V48.9595H257.735Z" fill="white"/>
<path d="M292.799 69.1115C292.271 71.3702 291.362 73.1889 290.071 74.5675C288.81 75.9462 287.27 76.9435 285.451 77.5595C283.632 78.1462 281.608 78.4395 279.379 78.4395C276.328 78.4395 273.688 77.8529 271.459 76.6795C269.259 75.5062 267.558 73.8049 266.355 71.5755C265.182 69.3462 264.595 66.6475 264.595 63.4795C264.595 60.3115 265.182 57.6129 266.355 55.3835C267.558 53.1542 269.259 51.4529 271.459 50.2795C273.688 49.1062 276.328 48.5195 279.379 48.5195C281.52 48.5195 283.515 48.8275 285.363 49.4435C287.211 50.0302 288.766 50.9689 290.027 52.2595C291.318 53.5502 292.168 55.2369 292.579 57.3195L283.779 60.7515C283.544 58.8449 283.06 57.6129 282.327 57.0555C281.623 56.4982 280.728 56.2195 279.643 56.2195C278.646 56.2195 277.795 56.4835 277.091 57.0115C276.416 57.5102 275.903 58.3022 275.551 59.3875C275.228 60.4435 275.067 61.8075 275.067 63.4795C275.067 65.1222 275.214 66.4862 275.507 67.5715C275.83 68.6569 276.343 69.4635 277.047 69.9915C277.751 70.4902 278.69 70.7395 279.863 70.7395C280.919 70.7395 281.784 70.4315 282.459 69.8155C283.134 69.1702 283.559 68.1582 283.735 66.7795L292.799 69.1115Z" fill="white"/>
<path d="M327.724 48.9595V77.9995H317.472V48.9595H327.724ZM309.508 48.9595V77.9995H299.256V48.9595H309.508ZM323.148 59.6515V67.1755H304.184V59.6515H323.148Z" fill="white"/>
<path d="M336.087 77.9995V48.9595H360.199V56.4835H346.339V60.0915H357.515V67.0435H346.339V70.4755H360.727V77.9995H336.087Z" fill="white"/>
<path d="M383.342 48.9595C387.126 48.9595 390.03 49.8102 392.054 51.5115C394.078 53.1835 395.09 55.4129 395.09 58.1995C395.09 61.3969 394.093 63.8022 392.098 65.4155C390.133 67.0289 387.258 67.8355 383.474 67.8355L382.462 68.3635H377.622V77.9995H367.59V48.9595H383.342ZM381.582 61.6315C382.668 61.6315 383.474 61.4409 384.002 61.0595C384.56 60.6489 384.838 59.9449 384.838 58.9475C384.838 57.9795 384.56 57.2902 384.002 56.8795C383.474 56.4689 382.668 56.2635 381.582 56.2635H377.622V61.6315H381.582ZM387.654 63.7875L396.718 77.9995H385.586L378.81 65.2835L387.654 63.7875Z" fill="white"/>
<path d="M417.919 77.9995V64.3595C417.919 63.3915 417.919 62.4235 417.919 61.4555C417.919 60.4875 417.919 59.5195 417.919 58.5515C416.981 59.3729 415.969 60.0915 414.883 60.7075C413.798 61.2942 412.654 61.6755 411.451 61.8515L410.879 53.6235C411.789 53.5355 412.698 53.3449 413.607 53.0515C414.517 52.7289 415.367 52.3475 416.159 51.9075C416.981 51.4675 417.699 50.9982 418.315 50.4995C418.961 50.0009 419.445 49.4875 419.767 48.9595H427.731V77.9995H417.919Z" fill="white"/>
<path d="M436.399 77.9995V71.8395C438.599 70.6662 440.505 69.4929 442.119 68.3195C443.761 67.1462 445.111 66.0022 446.167 64.8875C447.252 63.7435 448.059 62.6729 448.587 61.6755C449.115 60.6489 449.379 59.7102 449.379 58.8595C449.379 58.1555 449.203 57.5395 448.851 57.0115C448.499 56.4835 447.883 56.2195 447.003 56.2195C446.005 56.2195 445.272 56.6302 444.803 57.4515C444.333 58.2729 444.128 59.5782 444.187 61.3675L435.431 59.2555C435.372 56.7915 435.885 54.7675 436.971 53.1835C438.056 51.5995 439.537 50.4262 441.415 49.6635C443.321 48.9009 445.419 48.5195 447.707 48.5195C449.907 48.5195 451.755 48.8275 453.251 49.4435C454.776 50.0302 455.993 50.8075 456.903 51.7755C457.812 52.7142 458.457 53.7409 458.839 54.8555C459.249 55.9409 459.455 56.9822 459.455 57.9795C459.455 59.9155 458.941 61.6609 457.915 63.2155C456.917 64.7702 455.568 66.1635 453.867 67.3955C452.165 68.6275 450.273 69.7422 448.191 70.7395V70.8275C448.807 70.7689 449.481 70.7249 450.215 70.6955C450.977 70.6369 451.769 70.6075 452.591 70.6075C453.441 70.5782 454.277 70.5635 455.099 70.5635H459.631V77.9995H436.399Z" fill="white"/>
<path d="M471.487 68.9355C473.218 68.9355 474.552 69.3462 475.491 70.1675C476.43 70.9889 476.899 72.1475 476.899 73.6435C476.899 75.1395 476.43 76.2982 475.491 77.1195C474.552 77.9409 473.218 78.3515 471.487 78.3515C469.786 78.3515 468.451 77.9409 467.483 77.1195C466.544 76.2982 466.075 75.1395 466.075 73.6435C466.075 72.1475 466.544 70.9889 467.483 70.1675C468.451 69.3462 469.786 68.9355 471.487 68.9355Z" fill="white"/>
<path d="M486.131 77.9995V64.3595C486.131 63.3915 486.131 62.4235 486.131 61.4555C486.131 60.4875 486.131 59.5195 486.131 58.5515C485.193 59.3729 484.181 60.0915 483.095 60.7075C482.01 61.2942 480.866 61.6755 479.663 61.8515L479.091 53.6235C480.001 53.5355 480.91 53.3449 481.819 53.0515C482.729 52.7289 483.579 52.3475 484.371 51.9075C485.193 51.4675 485.911 50.9982 486.527 50.4995C487.173 50.0009 487.657 49.4875 487.979 48.9595H495.943V77.9995H486.131Z" fill="white"/>
<path d="M504.611 77.9995V71.8395C506.811 70.6662 508.717 69.4929 510.331 68.3195C511.973 67.1462 513.323 66.0022 514.379 64.8875C515.464 63.7435 516.271 62.6729 516.799 61.6755C517.327 60.6489 517.591 59.7102 517.591 58.8595C517.591 58.1555 517.415 57.5395 517.063 57.0115C516.711 56.4835 516.095 56.2195 515.215 56.2195C514.217 56.2195 513.484 56.6302 513.015 57.4515C512.545 58.2729 512.34 59.5782 512.399 61.3675L503.643 59.2555C503.584 56.7915 504.097 54.7675 505.183 53.1835C506.268 51.5995 507.749 50.4262 509.627 49.6635C511.533 48.9009 513.631 48.5195 515.919 48.5195C518.119 48.5195 519.967 48.8275 521.463 49.4435C522.988 50.0302 524.205 50.8075 525.115 51.7755C526.024 52.7142 526.669 53.7409 527.051 54.8555C527.461 55.9409 527.667 56.9822 527.667 57.9795C527.667 59.9155 527.153 61.6609 526.127 63.2155C525.129 64.7702 523.78 66.1635 522.079 67.3955C520.377 68.6275 518.485 69.7422 516.403 70.7395V70.8275C517.019 70.7689 517.693 70.7249 518.427 70.6955C519.189 70.6369 519.981 70.6075 520.803 70.6075C521.653 70.5782 522.489 70.5635 523.311 70.5635H527.843V77.9995H504.611Z" fill="white"/>
<path d="M25.2672 56.4835H11.4512V60.5315H22.6272V68.0555H11.4512V77.9995H1.19922V48.9595H25.2672V56.4835Z" stroke="white" mask="url(#path-1-outside-1_3069_228028)"/>
<path d="M42.4386 70.4755H55.5946V77.9995H32.1866V48.9595H42.4386V70.4755Z" stroke="white" mask="url(#path-1-outside-1_3069_228028)"/>
<path d="M89.5608 48.5195C92.3475 48.5195 94.8408 48.8715 97.0408 49.5755C99.2702 50.2502 101.236 51.2769 102.937 52.6555L98.8008 59.2555C97.4222 58.2875 95.9702 57.5102 94.4448 56.9235C92.9488 56.3369 91.3208 56.0435 89.5608 56.0435C88.7982 56.0435 88.1822 56.1022 87.7128 56.2195C87.2728 56.3369 86.9502 56.4982 86.7448 56.7035C86.5688 56.9089 86.4808 57.1435 86.4808 57.4075C86.4808 57.7595 86.7448 58.0235 87.2728 58.1995C87.8302 58.3755 88.5195 58.5662 89.3408 58.7715L93.3448 59.6955C96.3075 60.3702 98.5368 61.3675 100.033 62.6875C101.558 64.0075 102.321 65.8409 102.321 68.1875C102.321 70.5342 101.749 72.4702 100.605 73.9955C99.4608 75.4915 97.9062 76.6062 95.9408 77.3395C94.0048 78.0729 91.8048 78.4395 89.3408 78.4395C87.4928 78.4395 85.6448 78.2782 83.7968 77.9555C81.9488 77.6035 80.2328 77.1049 78.6488 76.4595C77.0648 75.7849 75.7008 74.9782 74.5568 74.0395L78.6048 67.3075C79.4555 67.9822 80.4822 68.5982 81.6848 69.1555C82.8875 69.6835 84.1342 70.1089 85.4248 70.4315C86.7155 70.7542 87.9182 70.9155 89.0328 70.9155C89.7368 70.9155 90.2942 70.8569 90.7048 70.7395C91.1155 70.6222 91.3942 70.4755 91.5408 70.2995C91.7168 70.0942 91.8048 69.8595 91.8048 69.5955C91.8048 69.1849 91.6288 68.8769 91.2768 68.6715C90.9542 68.4662 90.3528 68.2609 89.4728 68.0555L85.0728 67.0875C83.5182 66.7355 82.0368 66.2662 80.6288 65.6795C79.2208 65.0929 78.0768 64.2422 77.1968 63.1275C76.3168 61.9835 75.8768 60.4435 75.8768 58.5075C75.8768 56.5129 76.4048 54.7675 77.4608 53.2715C78.5462 51.7755 80.1008 50.6169 82.1248 49.7955C84.1782 48.9449 86.6568 48.5195 89.5608 48.5195Z" stroke="white" mask="url(#path-1-outside-1_3069_228028)"/>
<path d="M137.804 48.9595V77.9995H127.552V48.9595H137.804ZM119.588 48.9595V77.9995H109.336V48.9595H119.588ZM133.228 59.6515V67.1755H114.264V59.6515H133.228Z" stroke="white" mask="url(#path-1-outside-1_3069_228028)"/>
<path d="M189.27 48.9595L179.458 77.9995H167.27L157.458 48.9595H168.15L172.154 64.8435L173.562 70.5195L174.882 64.9315L178.974 48.9595H189.27Z" stroke="white" mask="url(#path-1-outside-1_3069_228028)"/>
<path d="M208.08 48.5195C211.16 48.5195 213.8 49.1062 216 50.2795C218.2 51.4529 219.887 53.1542 221.06 55.3835C222.233 57.6129 222.82 60.3115 222.82 63.4795C222.82 66.6475 222.233 69.3462 221.06 71.5755C219.887 73.8049 218.2 75.5062 216 76.6795C213.8 77.8529 211.16 78.4395 208.08 78.4395C205.029 78.4395 202.389 77.8529 200.16 76.6795C197.96 75.5062 196.259 73.8049 195.056 71.5755C193.883 69.3462 193.296 66.6475 193.296 63.4795C193.296 60.3115 193.883 57.6129 195.056 55.3835C196.259 53.1542 197.96 51.4529 200.16 50.2795C202.389 49.1062 205.029 48.5195 208.08 48.5195ZM208.08 56.2195C207.083 56.2195 206.261 56.4835 205.616 57.0115C205 57.5102 204.531 58.2875 204.208 59.3435C203.915 60.3995 203.768 61.7782 203.768 63.4795C203.768 65.1515 203.915 66.5302 204.208 67.6155C204.531 68.6715 205 69.4635 205.616 69.9915C206.261 70.4902 207.083 70.7395 208.08 70.7395C209.077 70.7395 209.884 70.4902 210.5 69.9915C211.145 69.4635 211.615 68.6715 211.908 67.6155C212.201 66.5302 212.348 65.1515 212.348 63.4795C212.348 61.7782 212.201 60.3995 211.908 59.3435C211.615 58.2875 211.145 57.5102 210.5 57.0115C209.884 56.4835 209.077 56.2195 208.08 56.2195Z" stroke="white" mask="url(#path-1-outside-1_3069_228028)"/>
<path d="M257.735 48.9595V65.5035C257.735 69.8449 256.561 73.0862 254.215 75.2275C251.897 77.3689 248.392 78.4395 243.699 78.4395C239.005 78.4395 235.485 77.3689 233.139 75.2275C230.821 73.0862 229.663 69.8449 229.663 65.5035V48.9595H239.959V66.2955C239.959 67.7622 240.281 68.8769 240.927 69.6395C241.572 70.3729 242.496 70.7395 243.699 70.7395C244.931 70.7395 245.869 70.3729 246.515 69.6395C247.16 68.8769 247.483 67.7622 247.483 66.2955V48.9595H257.735Z" stroke="white" mask="url(#path-1-outside-1_3069_228028)"/>
<path d="M292.799 69.1115C292.271 71.3702 291.362 73.1889 290.071 74.5675C288.81 75.9462 287.27 76.9435 285.451 77.5595C283.632 78.1462 281.608 78.4395 279.379 78.4395C276.328 78.4395 273.688 77.8529 271.459 76.6795C269.259 75.5062 267.558 73.8049 266.355 71.5755C265.182 69.3462 264.595 66.6475 264.595 63.4795C264.595 60.3115 265.182 57.6129 266.355 55.3835C267.558 53.1542 269.259 51.4529 271.459 50.2795C273.688 49.1062 276.328 48.5195 279.379 48.5195C281.52 48.5195 283.515 48.8275 285.363 49.4435C287.211 50.0302 288.766 50.9689 290.027 52.2595C291.318 53.5502 292.168 55.2369 292.579 57.3195L283.779 60.7515C283.544 58.8449 283.06 57.6129 282.327 57.0555C281.623 56.4982 280.728 56.2195 279.643 56.2195C278.646 56.2195 277.795 56.4835 277.091 57.0115C276.416 57.5102 275.903 58.3022 275.551 59.3875C275.228 60.4435 275.067 61.8075 275.067 63.4795C275.067 65.1222 275.214 66.4862 275.507 67.5715C275.83 68.6569 276.343 69.4635 277.047 69.9915C277.751 70.4902 278.69 70.7395 279.863 70.7395C280.919 70.7395 281.784 70.4315 282.459 69.8155C283.134 69.1702 283.559 68.1582 283.735 66.7795L292.799 69.1115Z" stroke="white" mask="url(#path-1-outside-1_3069_228028)"/>
<path d="M327.724 48.9595V77.9995H317.472V48.9595H327.724ZM309.508 48.9595V77.9995H299.256V48.9595H309.508ZM323.148 59.6515V67.1755H304.184V59.6515H323.148Z" stroke="white" mask="url(#path-1-outside-1_3069_228028)"/>
<path d="M336.087 77.9995V48.9595H360.199V56.4835H346.339V60.0915H357.515V67.0435H346.339V70.4755H360.727V77.9995H336.087Z" stroke="white" mask="url(#path-1-outside-1_3069_228028)"/>
<path d="M383.342 48.9595C387.126 48.9595 390.03 49.8102 392.054 51.5115C394.078 53.1835 395.09 55.4129 395.09 58.1995C395.09 61.3969 394.093 63.8022 392.098 65.4155C390.133 67.0289 387.258 67.8355 383.474 67.8355L382.462 68.3635H377.622V77.9995H367.59V48.9595H383.342ZM381.582 61.6315C382.668 61.6315 383.474 61.4409 384.002 61.0595C384.56 60.6489 384.838 59.9449 384.838 58.9475C384.838 57.9795 384.56 57.2902 384.002 56.8795C383.474 56.4689 382.668 56.2635 381.582 56.2635H377.622V61.6315H381.582ZM387.654 63.7875L396.718 77.9995H385.586L378.81 65.2835L387.654 63.7875Z" stroke="white" mask="url(#path-1-outside-1_3069_228028)"/>
<path d="M417.919 77.9995V64.3595C417.919 63.3915 417.919 62.4235 417.919 61.4555C417.919 60.4875 417.919 59.5195 417.919 58.5515C416.981 59.3729 415.969 60.0915 414.883 60.7075C413.798 61.2942 412.654 61.6755 411.451 61.8515L410.879 53.6235C411.789 53.5355 412.698 53.3449 413.607 53.0515C414.517 52.7289 415.367 52.3475 416.159 51.9075C416.981 51.4675 417.699 50.9982 418.315 50.4995C418.961 50.0009 419.445 49.4875 419.767 48.9595H427.731V77.9995H417.919Z" stroke="white" mask="url(#path-1-outside-1_3069_228028)"/>
<path d="M436.399 77.9995V71.8395C438.599 70.6662 440.505 69.4929 442.119 68.3195C443.761 67.1462 445.111 66.0022 446.167 64.8875C447.252 63.7435 448.059 62.6729 448.587 61.6755C449.115 60.6489 449.379 59.7102 449.379 58.8595C449.379 58.1555 449.203 57.5395 448.851 57.0115C448.499 56.4835 447.883 56.2195 447.003 56.2195C446.005 56.2195 445.272 56.6302 444.803 57.4515C444.333 58.2729 444.128 59.5782 444.187 61.3675L435.431 59.2555C435.372 56.7915 435.885 54.7675 436.971 53.1835C438.056 51.5995 439.537 50.4262 441.415 49.6635C443.321 48.9009 445.419 48.5195 447.707 48.5195C449.907 48.5195 451.755 48.8275 453.251 49.4435C454.776 50.0302 455.993 50.8075 456.903 51.7755C457.812 52.7142 458.457 53.7409 458.839 54.8555C459.249 55.9409 459.455 56.9822 459.455 57.9795C459.455 59.9155 458.941 61.6609 457.915 63.2155C456.917 64.7702 455.568 66.1635 453.867 67.3955C452.165 68.6275 450.273 69.7422 448.191 70.7395V70.8275C448.807 70.7689 449.481 70.7249 450.215 70.6955C450.977 70.6369 451.769 70.6075 452.591 70.6075C453.441 70.5782 454.277 70.5635 455.099 70.5635H459.631V77.9995H436.399Z" stroke="white" mask="url(#path-1-outside-1_3069_228028)"/>
<path d="M471.487 68.9355C473.218 68.9355 474.552 69.3462 475.491 70.1675C476.43 70.9889 476.899 72.1475 476.899 73.6435C476.899 75.1395 476.43 76.2982 475.491 77.1195C474.552 77.9409 473.218 78.3515 471.487 78.3515C469.786 78.3515 468.451 77.9409 467.483 77.1195C466.544 76.2982 466.075 75.1395 466.075 73.6435C466.075 72.1475 466.544 70.9889 467.483 70.1675C468.451 69.3462 469.786 68.9355 471.487 68.9355Z" stroke="white" mask="url(#path-1-outside-1_3069_228028)"/>
<path d="M486.131 77.9995V64.3595C486.131 63.3915 486.131 62.4235 486.131 61.4555C486.131 60.4875 486.131 59.5195 486.131 58.5515C485.193 59.3729 484.181 60.0915 483.095 60.7075C482.01 61.2942 480.866 61.6755 479.663 61.8515L479.091 53.6235C480.001 53.5355 480.91 53.3449 481.819 53.0515C482.729 52.7289 483.579 52.3475 484.371 51.9075C485.193 51.4675 485.911 50.9982 486.527 50.4995C487.173 50.0009 487.657 49.4875 487.979 48.9595H495.943V77.9995H486.131Z" stroke="white" mask="url(#path-1-outside-1_3069_228028)"/>
<path d="M504.611 77.9995V71.8395C506.811 70.6662 508.717 69.4929 510.331 68.3195C511.973 67.1462 513.323 66.0022 514.379 64.8875C515.464 63.7435 516.271 62.6729 516.799 61.6755C517.327 60.6489 517.591 59.7102 517.591 58.8595C517.591 58.1555 517.415 57.5395 517.063 57.0115C516.711 56.4835 516.095 56.2195 515.215 56.2195C514.217 56.2195 513.484 56.6302 513.015 57.4515C512.545 58.2729 512.34 59.5782 512.399 61.3675L503.643 59.2555C503.584 56.7915 504.097 54.7675 505.183 53.1835C506.268 51.5995 507.749 50.4262 509.627 49.6635C511.533 48.9009 513.631 48.5195 515.919 48.5195C518.119 48.5195 519.967 48.8275 521.463 49.4435C522.988 50.0302 524.205 50.8075 525.115 51.7755C526.024 52.7142 526.669 53.7409 527.051 54.8555C527.461 55.9409 527.667 56.9822 527.667 57.9795C527.667 59.9155 527.153 61.6609 526.127 63.2155C525.129 64.7702 523.78 66.1635 522.079 67.3955C520.377 68.6275 518.485 69.7422 516.403 70.7395V70.8275C517.019 70.7689 517.693 70.7249 518.427 70.6955C519.189 70.6369 519.981 70.6075 520.803 70.6075C521.653 70.5782 522.489 70.5635 523.311 70.5635H527.843V77.9995H504.611Z" stroke="white" mask="url(#path-1-outside-1_3069_228028)"/>
<path d="M72.5387 66.4666L79.0539 60.7846C79.1423 60.7113 79.2059 60.6124 79.2358 60.5015C79.2657 60.3906 79.2605 60.2732 79.2209 60.1654C79.1813 60.0576 79.1093 59.9647 79.0147 59.8995C78.9201 59.8343 78.8077 59.8001 78.6928 59.8015H71.55C71.4604 59.8023 71.3719 59.7815 71.292 59.7407C71.2122 59.6999 71.1434 59.6404 71.0916 59.5673C71.0397 59.4942 71.0064 59.4096 70.9943 59.3207C70.9822 59.2319 70.9919 59.1415 71.0224 59.0572L74.9381 48.3263C74.9684 48.2424 74.9781 48.1525 74.9664 48.0641C74.9546 47.9757 74.9217 47.8915 74.8705 47.8185C74.8193 47.7455 74.7513 47.6859 74.6721 47.6447C74.593 47.6036 74.5052 47.5821 74.416 47.582H60.5525C60.4377 47.5825 60.3258 47.6185 60.2324 47.6852C60.1389 47.7518 60.0683 47.8458 60.0304 47.9542L54.2928 64.0616C54.2636 64.1452 54.2548 64.2345 54.2671 64.3221C54.2794 64.4098 54.3125 64.4932 54.3636 64.5655C54.4147 64.6378 54.4823 64.6968 54.5608 64.7376C54.6393 64.7785 54.7264 64.8 54.8149 64.8003H61.0302C61.12 64.8 61.2086 64.8215 61.2883 64.863C61.368 64.9045 61.4365 64.9646 61.4878 65.0384C61.5391 65.1121 61.5718 65.1972 61.5831 65.2863C61.5943 65.3755 61.5837 65.466 61.5523 65.5502L56.5201 79.0471C56.4784 79.1618 56.4756 79.2871 56.5122 79.4036C56.5489 79.5201 56.6229 79.6212 56.7228 79.6914C56.8227 79.7616 56.943 79.7969 57.0649 79.7919C57.1869 79.7869 57.3039 79.7418 57.3977 79.6636L63.0408 74.7425L72.5387 66.4666Z" fill="url(#paint0_linear_3069_228028)"/>
<path d="M58.6258 47.75L52.6935 63.6592C52.2366 64.8846 53.1428 66.1896 54.4506 66.1896H59.8759L54.8753 79.6286" stroke="url(#paint1_linear_3069_228028)" stroke-width="1.25014" stroke-miterlimit="10" stroke-linecap="round" stroke-linejoin="round"/>
<g filter="url(#filter0_f_3069_228028)">
<circle cx="65.502" cy="61.502" r="17.502" fill="#FFE600"/>
</g>
<defs>
<filter id="filter0_f_3069_228028" x="4.24512" y="0.245121" width="122.514" height="122.514" filterUnits="userSpaceOnUse" color-interpolation-filters="sRGB">
<feFlood flood-opacity="0" result="BackgroundImageFix"/>
<feBlend mode="normal" in="SourceGraphic" in2="BackgroundImageFix" result="shape"/>
<feGaussianBlur stdDeviation="21.8774" result="effect1_foregroundBlur_3069_228028"/>
</filter>
<linearGradient id="paint0_linear_3069_228028" x1="66.7583" y1="40.5598" x2="66.7583" y2="87.44" gradientUnits="userSpaceOnUse">
<stop stop-color="#FFD494" stop-opacity="0"/>
<stop offset="0.486898" stop-color="#FFE68D"/>
<stop offset="1" stop-color="#FFD390" stop-opacity="0"/>
</linearGradient>
<linearGradient id="paint1_linear_3069_228028" x1="59.2512" y1="79.8412" x2="64.034" y2="48.4794" gradientUnits="userSpaceOnUse">
<stop stop-color="white" stop-opacity="0"/>
<stop offset="0.371797" stop-color="white"/>
<stop offset="0.583333" stop-color="white"/>
<stop offset="0.969718" stop-color="white" stop-opacity="0"/>
</linearGradient>
</defs>
</svg>
