<svg width="48" height="49" viewBox="0 0 48 49" fill="none" xmlns="http://www.w3.org/2000/svg">
<g clip-path="url(#clip0_3069_227779)">
<path d="M19.641 14.0467L36.1784 22.8259C36.4035 22.9454 36.5918 23.1239 36.7232 23.3423C36.8545 23.5608 36.9239 23.8108 36.9238 24.0657L36.9238 37.8918C36.9238 38.3283 36.8029 38.7562 36.5745 39.1282C36.3461 39.5001 36.0192 39.8015 35.6299 39.999L19.413 48.2243C19.1579 48.3537 18.8759 48.4211 18.5898 48.4211C18.3038 48.4211 18.0218 48.3537 17.7667 48.2243L1.54963 39.999C1.16037 39.8015 0.833412 39.5001 0.605019 39.1281C0.376625 38.7562 0.255718 38.3282 0.255711 37.8918V24.0657C0.255684 23.8108 0.325073 23.5607 0.456425 23.3423C0.58778 23.1239 0.776138 22.9453 1.00129 22.8259L17.5385 14.0467C17.8623 13.875 18.2233 13.7852 18.5898 13.7852C18.9563 13.7852 19.3172 13.875 19.641 14.0467Z" fill="url(#paint0_linear_3069_227779)"/>
<path d="M18.5898 48.4226C18.3076 48.4226 18.0253 48.3571 17.7667 48.2258L1.54963 40.0006C1.16038 39.8031 0.83342 39.5017 0.605026 39.1297C0.376631 38.7578 0.25572 38.3298 0.255711 37.8933V24.0672C0.256565 23.8423 0.31164 23.621 0.416258 23.4219L18.5898 33.1013V48.4226Z" fill="url(#paint1_linear_3069_227779)"/>
<path d="M18.5897 33.1015L36.7631 23.4219C36.8679 23.6209 36.923 23.8423 36.9238 24.0672L36.9238 37.8933C36.9238 38.3298 36.8029 38.7578 36.5745 39.1297C36.3461 39.5017 36.0192 39.8031 35.6299 40.0006L19.413 48.2258C19.1579 48.3553 18.8759 48.4227 18.5898 48.4226L18.5897 33.1015Z" fill="url(#paint2_linear_3069_227779)"/>
<path d="M12.1115 16.9297L30.5039 26.7246V32.4243C30.5039 32.5719 30.4637 32.7167 30.3878 32.8433C30.3118 32.9699 30.2029 33.0734 30.0726 33.1429L28.6528 32.9844L26.8762 34.8465C26.6226 34.9817 26.3164 34.7979 26.3164 34.5105V29.0197L7.89544 19.1679L12.1115 16.9297Z" fill="url(#paint3_linear_3069_227779)"/>
<path d="M30.5059 26.7402L30.5041 32.3946C30.504 32.5422 30.4639 32.687 30.3879 32.8136C30.312 32.9402 30.203 33.0437 30.0728 33.1132L28.6528 32.9548L26.8764 34.8168C26.6227 34.9519 26.3166 34.7682 26.3166 34.4807V31.5556L26.2872 28.9873L30.5059 26.7402Z" fill="url(#paint4_linear_3069_227779)"/>
<g clip-path="url(#clip1_3069_227779)">
<path fill-rule="evenodd" clip-rule="evenodd" d="M45.2808 25.4581C45.2569 25.4722 45.233 25.4861 45.2089 25.4997C45.1554 25.5322 45.1013 25.5637 45.0465 25.594C45.0201 25.6097 44.9935 25.6252 44.9668 25.6403C44.9296 25.6629 44.8921 25.685 44.8543 25.7066C44.7956 25.7424 44.7362 25.7769 44.676 25.8101C44.655 25.8225 44.6339 25.8348 44.6127 25.8468L44.5813 25.8653L44.5521 25.882C44.522 25.8998 44.4917 25.9173 44.4612 25.9344L44.4299 25.953C44.3909 25.9768 44.3516 26 44.3119 26.0226C44.2818 26.0404 44.2514 26.0579 44.2209 26.075C44.175 26.1026 44.1287 26.1294 44.0819 26.1554C44.0208 26.193 43.9589 26.2292 43.8962 26.2639C43.8678 26.2808 43.8392 26.2974 43.8104 26.3136C43.7668 26.34 43.7229 26.3657 43.6785 26.3907C43.6274 26.4214 43.5757 26.4512 43.5235 26.48C43.4833 26.5046 43.4427 26.5286 43.4017 26.552C43.3815 26.5639 43.3611 26.5757 43.3407 26.5874C43.2829 26.6227 43.2243 26.6567 43.1651 26.6894L43.1596 26.6925C43.1207 26.7155 43.0815 26.7379 43.042 26.7597L43.0291 26.7671L43.0281 26.7677C42.9584 26.8115 42.8875 26.8535 42.8156 26.8935L42.7867 26.9101C42.7312 26.9438 42.675 26.9764 42.6182 27.0078C42.6024 27.0168 42.5866 27.0258 42.5707 27.0346L42.5541 27.0441C42.5338 27.0561 42.5135 27.0679 42.493 27.0796C42.4502 27.1057 42.4069 27.1312 42.3632 27.1559C40.5584 28.253 38.0377 28.1277 35.2527 26.5198C29.7764 23.3579 25.3223 15.6413 25.3223 9.3202C25.3223 6.14176 26.4475 3.91128 28.2622 2.88028C28.3372 2.8332 28.4134 2.78826 28.4908 2.74548L28.4962 2.74237C28.5302 2.72231 28.5644 2.70268 28.5989 2.68347L28.6266 2.66763C28.6729 2.63949 28.7196 2.61216 28.7669 2.58563C28.8285 2.54732 28.8909 2.51045 28.9542 2.47502L28.9862 2.45665C29.0226 2.43525 29.0593 2.41434 29.0963 2.39392L29.1017 2.39081C29.1255 2.37675 29.1494 2.36291 29.1734 2.34927C29.2171 2.32273 29.2612 2.2969 29.3057 2.27179C29.3761 2.22793 29.4475 2.18596 29.5201 2.14587L29.556 2.12552C29.596 2.10148 29.6364 2.07805 29.6771 2.05521C29.7073 2.03706 29.7377 2.01926 29.7683 2.0018C29.827 1.966 29.8864 1.93149 29.9466 1.89829C29.9676 1.88586 29.9887 1.8736 30.0099 1.8615L30.0522 1.83684C30.1282 1.78992 30.2055 1.74519 30.2841 1.70265C30.3589 1.65621 30.4349 1.6119 30.5122 1.56972L30.5548 1.54511L30.5767 1.53228C30.6201 1.50601 30.664 1.48045 30.7083 1.4556C30.7385 1.43746 30.7689 1.41965 30.7995 1.40219C30.8507 1.371 30.9024 1.3408 30.9546 1.31158C30.9844 1.29374 31.0144 1.27623 31.0446 1.25905C31.1096 1.21939 31.1756 1.18133 31.2425 1.14486C33.0422 0.0936733 35.5333 0.236347 38.282 1.82335C43.7583 4.98521 48.2125 12.7018 48.2125 19.0229C48.2125 22.1965 47.0906 24.4251 45.2808 25.4581Z" fill="url(#paint5_linear_3069_227779)"/>
<path d="M35.1922 26.553C29.7159 23.3938 25.2617 15.6771 25.2617 9.35341C25.2617 3.02969 29.7159 0.458365 35.1922 3.62022C40.6685 6.78208 45.1226 14.4987 45.1226 20.8198C45.1226 27.1435 40.6685 29.7148 35.1922 26.553Z" fill="url(#paint6_linear_3069_227779)"/>
<path fill-rule="evenodd" clip-rule="evenodd" d="M36.3389 12.8144L34.5301 11.7699C34.4599 11.7302 34.4214 11.6205 34.4514 11.5729L34.4591 11.5685C34.4655 11.5648 34.4717 11.5609 34.4778 11.5568L34.545 11.5177C34.5513 11.5141 34.5575 11.5102 34.5635 11.5062L34.6075 11.4806C34.6144 11.4766 34.6211 11.4724 34.6277 11.468L34.6563 11.4513C34.6633 11.4473 34.6701 11.443 34.6768 11.4385L34.7286 11.4083C34.7489 11.3966 34.7677 11.383 34.7851 11.3677C35.0246 11.1741 35.0079 10.6715 34.7402 10.2071C34.4547 9.71341 33.9938 9.44615 33.7084 9.6114L32.0362 10.5805L32.028 10.5854L32.0129 10.5941C32.0066 10.5979 32.0003 10.6018 31.9942 10.6059L31.9133 10.6527C31.9035 10.6585 31.894 10.6646 31.8848 10.6713L31.8157 10.7113C31.8091 10.7151 31.8027 10.7192 31.7964 10.7234L31.7903 10.727L31.7846 10.7303L31.7668 10.7406C31.7567 10.7466 31.7468 10.753 31.7373 10.7599C31.7313 10.7636 31.7254 10.7674 31.7196 10.7714L31.7132 10.7756L31.6829 10.7932C31.6759 10.7973 31.6691 10.8015 31.6625 10.806L31.5833 10.852C31.5765 10.8559 31.57 10.86 31.5635 10.8643L31.4602 10.9242C31.45 10.9301 31.4402 10.9366 31.4307 10.9435C31.4246 10.9472 31.4187 10.951 31.413 10.955C31.2839 11.0374 31.2109 11.2033 31.2109 11.421C31.2109 11.6454 31.2884 11.9024 31.4251 12.1411L33.1013 15.0422C33.1685 15.1585 33.2501 15.2687 33.3378 15.3605C33.4255 15.4543 33.5213 15.5298 33.6172 15.5849C33.8048 15.693 33.9903 15.7175 34.1331 15.6359C34.1352 15.6347 34.1373 15.6334 34.1394 15.6322C34.1458 15.629 34.1521 15.6256 34.1583 15.6221L34.1695 15.6153L34.1819 15.6086C34.1945 15.6013 34.2066 15.5933 34.218 15.5845L34.2214 15.5826C34.2285 15.5791 34.2355 15.5754 34.2425 15.5715C34.2496 15.5673 34.2566 15.5629 34.2634 15.5583L34.2678 15.5558L34.2749 15.5517C34.2851 15.547 34.2951 15.5419 34.305 15.5363C34.3176 15.529 34.3296 15.521 34.3411 15.5123L34.3461 15.5093L34.3538 15.505C34.361 15.5009 34.3681 15.4964 34.3749 15.4918L34.3792 15.4894C34.3837 15.4868 34.3881 15.4841 34.3924 15.4814L34.4026 15.4758C34.4071 15.4732 34.4115 15.4705 34.4159 15.4677L34.426 15.4621C34.4365 15.456 34.4466 15.4494 34.4564 15.4424L34.4632 15.4386C34.4703 15.4345 34.4773 15.4301 34.4841 15.4255L34.4885 15.423C34.4986 15.4172 34.5084 15.4109 34.5178 15.4041L34.5257 15.4001C34.5336 15.3963 34.5414 15.3923 34.5491 15.3879C34.5595 15.3818 34.5696 15.3753 34.5792 15.3683L34.5862 15.3644L34.5905 15.3619C34.5976 15.3584 34.6047 15.3547 34.6116 15.3508C34.6201 15.3458 34.6284 15.3405 34.6365 15.3349L34.6468 15.3293L34.6527 15.3257L34.6604 15.3215C34.668 15.3171 34.6753 15.3124 34.6825 15.3076C34.6878 15.3043 34.6929 15.3008 34.698 15.2973L34.7073 15.2922L34.7116 15.2896C34.7187 15.2861 34.7258 15.2824 34.7327 15.2785C34.7529 15.2668 34.7718 15.2532 34.7891 15.2379C34.9772 15.0859 35.0073 14.7434 34.882 14.3784L35.7298 14.8688C36.4802 15.3034 37.0919 16.3622 37.0919 17.2293V17.2843C37.0919 17.529 37.0432 17.7326 36.9565 17.8893C36.7714 17.8914 36.5622 17.8322 36.3409 17.7047L32.9375 15.738C32.7286 15.6176 32.5404 15.6098 32.4075 15.695C32.397 15.7006 32.3869 15.7067 32.377 15.7134C32.367 15.719 32.3572 15.7251 32.3477 15.7317L32.3408 15.7362C32.329 15.7416 32.3176 15.7477 32.3065 15.7544C32.2931 15.7616 32.2802 15.7697 32.2678 15.7787L32.2562 15.7861C32.2434 15.7925 32.2311 15.7996 32.2191 15.8076C32.2055 15.8144 32.1924 15.8221 32.1797 15.8306C32.1738 15.8339 32.168 15.8374 32.1623 15.841C32.1481 15.8486 32.1344 15.8571 32.1213 15.8666C32.1153 15.8703 32.1094 15.8741 32.1036 15.8782L32.0958 15.8833C32.0903 15.8863 32.085 15.8895 32.0797 15.8928C32.068 15.899 32.0566 15.9058 32.0457 15.9133C32.0374 15.918 32.0294 15.9229 32.0215 15.9282C32.0166 15.931 32.0118 15.9338 32.0071 15.9368L32.0018 15.9399L31.99 15.9466C31.9738 15.9545 31.9583 15.9635 31.9435 15.9738C31.9327 15.9796 31.9223 15.9859 31.9122 15.9927L31.9022 15.9985C31.896 16.0018 31.89 16.0053 31.8841 16.009L31.8788 16.0121L31.8669 16.0189C31.8486 16.0278 31.8312 16.0382 31.8147 16.0502C31.8086 16.0539 31.8027 16.0577 31.797 16.0618C31.6726 16.1411 31.5963 16.3016 31.5963 16.5275C31.5963 16.9926 31.9226 17.5598 32.3264 17.7923L35.7298 19.759C36.5004 20.2037 37.1996 20.2489 37.709 19.9628C37.7249 19.9543 37.7407 19.9455 37.7563 19.9363C37.782 19.9219 37.8072 19.9067 37.832 19.8906L37.8502 19.8799C37.8918 19.8579 37.9322 19.8338 37.9714 19.8075L37.9876 19.7975L38.0092 19.7848C38.0332 19.7712 38.0567 19.7568 38.0798 19.7417L38.0979 19.7305L38.1112 19.7224C38.1359 19.7089 38.1602 19.6946 38.184 19.6796C38.2046 19.6681 38.225 19.656 38.245 19.6434C38.2639 19.6326 38.2825 19.6214 38.3008 19.6097C38.3801 19.5659 38.4548 19.5141 38.5246 19.4545C38.9223 19.1225 39.1611 18.5429 39.1611 17.7618V17.7067C39.1611 15.9093 37.8948 13.7162 36.3409 12.8185L36.3389 12.8144Z" fill="url(#paint7_linear_3069_227779)"/>
<path d="M35.716 13.1875L33.9072 12.1429C33.8277 12.098 33.789 11.9634 33.844 11.9307L34.1173 11.7716C34.4028 11.6064 34.4007 11.0718 34.1173 10.5802C33.8318 10.0865 33.3709 9.81919 33.0855 9.98445L31.4133 10.9535C31.2767 11.0331 31.1992 11.2024 31.1992 11.4268C31.1992 11.6512 31.2767 11.9083 31.4133 12.147L33.0895 15.0481C33.1568 15.1644 33.2384 15.2745 33.3261 15.3663C33.4138 15.4602 33.5096 15.5357 33.6054 15.5908C33.7931 15.6989 33.9786 15.7234 34.1214 15.6418C34.4068 15.4765 34.4048 14.942 34.1214 14.4503L33.842 13.9648C33.7849 13.8668 33.8257 13.7791 33.9052 13.826L35.718 14.8747C36.4685 15.3092 37.0802 16.3681 37.0802 17.2351V17.2902C37.0802 18.1573 36.4685 18.5102 35.718 18.0777L32.3146 16.111C31.9109 15.8784 31.5846 16.0661 31.5846 16.5333C31.5846 16.9985 31.9109 17.5656 32.3146 17.7982L35.718 19.7649C37.2739 20.6626 38.5382 19.9322 38.5382 18.1348V18.0797C38.5382 16.2824 37.2719 14.0892 35.718 13.1916L35.716 13.1875Z" fill="url(#paint8_linear_3069_227779)"/>
</g>
</g>
<defs>
<linearGradient id="paint0_linear_3069_227779" x1="18.589" y1="14.0945" x2="6.73404" y2="60.3448" gradientUnits="userSpaceOnUse">
<stop stop-color="#FFE5CB"/>
<stop offset="0.408938" stop-color="#EEC093"/>
</linearGradient>
<linearGradient id="paint1_linear_3069_227779" x1="9.42239" y1="23.6617" x2="-8.26282" y2="76.6056" gradientUnits="userSpaceOnUse">
<stop offset="0.173176" stop-color="#FFE5CB"/>
<stop offset="0.60834" stop-color="#EEC093"/>
</linearGradient>
<linearGradient id="paint2_linear_3069_227779" x1="27.7564" y1="23.6617" x2="10.0713" y2="76.6055" gradientUnits="userSpaceOnUse">
<stop stop-color="#FFE5CB"/>
<stop offset="0.408938" stop-color="#EEC093"/>
</linearGradient>
<linearGradient id="paint3_linear_3069_227779" x1="15.5787" y1="16.9297" x2="15.5787" y2="32.3262" gradientUnits="userSpaceOnUse">
<stop stop-color="#17395C"/>
<stop offset="1" stop-color="#2365AA" stop-opacity="0.89"/>
</linearGradient>
<linearGradient id="paint4_linear_3069_227779" x1="27.7191" y1="26.7546" x2="27.7191" y2="32.3248" gradientUnits="userSpaceOnUse">
<stop stop-color="#17395C"/>
<stop offset="1" stop-color="#2365AA" stop-opacity="0.89"/>
</linearGradient>
<linearGradient id="paint5_linear_3069_227779" x1="40.1463" y1="6.57928" x2="23.4973" y2="35.412" gradientUnits="userSpaceOnUse">
<stop stop-color="#FFE5CB"/>
<stop offset="1" stop-color="#EEC093"/>
</linearGradient>
<linearGradient id="paint6_linear_3069_227779" x1="23.0145" y1="-2.25938" x2="40.7701" y2="22.9773" gradientUnits="userSpaceOnUse">
<stop offset="0.155949" stop-color="#17395C"/>
<stop offset="0.764672" stop-color="#2365AA" stop-opacity="0.89"/>
</linearGradient>
<linearGradient id="paint7_linear_3069_227779" x1="33.3344" y1="15.0274" x2="50.5021" y2="4.90356" gradientUnits="userSpaceOnUse">
<stop stop-color="#17395C"/>
<stop offset="1" stop-color="#2365AA" stop-opacity="0.89"/>
</linearGradient>
<linearGradient id="paint8_linear_3069_227779" x1="32.589" y1="15.4461" x2="34.8689" y2="27.1307" gradientUnits="userSpaceOnUse">
<stop stop-color="#FFEEDD"/>
<stop offset="1" stop-color="#EEC093"/>
</linearGradient>
<clipPath id="clip0_3069_227779">
<rect width="48" height="48" fill="white" transform="translate(0 0.214844)"/>
</clipPath>
<clipPath id="clip1_3069_227779">
<rect width="22.9513" height="27.4372" fill="white" transform="translate(25.2637 0.470703)"/>
</clipPath>
</defs>
</svg>
