<svg width="22" height="23" viewBox="0 0 22 23" fill="none" xmlns="http://www.w3.org/2000/svg">
<path d="M10.9456 0.179688C8.48718 0.179688 6.60951 2.49325 6.40733 5.31768H1.74289C1.2191 5.31768 0.79259 5.77589 0.821721 6.30477L1.6176 20.3978C1.68659 21.6295 2.702 22.6 3.92053 22.6H17.9706C19.1895 22.6 20.2046 21.6293 20.2735 20.3978L21.0694 6.30568C21.0995 5.77643 20.672 5.31768 20.1483 5.31768H15.4838C15.2816 2.49325 13.404 0.179688 10.9456 0.179688ZM10.9456 1.11387C12.8086 1.11387 14.3647 2.92935 14.5618 5.31768H7.3294C7.52646 2.92935 9.08259 1.11387 10.9456 1.11387ZM10.9825 8.12022C12.7546 8.12022 14.0832 9.08286 14.194 9.15292L13.719 9.93293C13.6036 9.85352 13.3964 9.72693 13.3179 9.68023C12.8472 9.42333 11.9793 9.04071 10.9825 9.04071C9.4827 9.04071 8.39839 9.88115 8.39839 11.0395C8.39839 12.1932 9.40432 12.6509 11.0564 13.2628C12.7316 13.8793 14.6239 14.5799 14.6239 16.8079C14.6239 18.4848 12.99 19.802 10.9041 19.802C9.06278 19.802 7.54907 18.6578 7.17527 18.3542L7.68723 17.5834C7.70108 17.5974 9.17354 18.877 10.9041 18.877C12.4547 18.877 13.7145 17.9476 13.7145 16.8079C13.7145 15.3319 12.5933 14.8087 10.7428 14.1267C9.21987 13.5615 7.48894 12.9219 7.48894 11.0395C7.48894 9.37669 8.98891 8.12022 10.9825 8.12022Z" fill="#EE4E2E"/>
</svg>
