<svg xmlns="http://www.w3.org/2000/svg" width="117" height="160" viewBox="0 0 117 160" fill="none">
  <g clip-path="url(#clip0_2596_346033)">
    <path style="mix-blend-mode:screen" d="M-14.6889 83.7875C-14.6889 86.7638 20.8003 89.1766 64.5784 89.1766C108.357 89.1766 143.846 86.7638 143.846 83.7875C143.846 80.8112 108.357 78.3984 64.5784 78.3984C20.8003 78.3984 -14.6889 80.8112 -14.6889 83.7875Z" fill="url(#paint0_radial_2596_346033)"/>
    <path style="mix-blend-mode:screen" d="M57.317 83.7888C57.317 116.279 60.5681 142.617 64.5784 142.617C68.5888 142.617 71.8398 116.279 71.8398 83.7888C71.8398 51.2991 68.5888 24.9609 64.5784 24.9609C60.5681 24.9609 57.317 51.2991 57.317 83.7888Z" fill="url(#paint1_radial_2596_346033)"/>
    <path style="mix-blend-mode:screen" d="M67.503 85.9587C49.8669 99.0473 34.2585 108.686 32.6448 107.487C31.0291 106.289 44.0164 94.7064 61.6525 81.6177C79.2886 68.5291 94.897 58.8903 96.5107 60.089C98.1264 61.2878 85.1391 72.87 67.503 85.9608L67.503 85.9587Z" fill="url(#paint2_radial_2596_346033)"/>
  </g>
  <defs>
    <radialGradient id="paint0_radial_2596_346033" cx="0" cy="0" r="1" gradientUnits="userSpaceOnUse" gradientTransform="translate(63.8001 83.6859) rotate(90) scale(5.40724 79.2044)">
      <stop offset="0.02" stop-color="white"/>
      <stop offset="0.03" stop-color="#F5F5F5"/>
      <stop offset="0.05" stop-color="#C7C7C7"/>
      <stop offset="0.08" stop-color="#9C9C9C"/>
      <stop offset="0.1" stop-color="#777777"/>
      <stop offset="0.14" stop-color="#565656"/>
      <stop offset="0.17" stop-color="#3B3B3B"/>
      <stop offset="0.21" stop-color="#252525"/>
      <stop offset="0.25" stop-color="#141414"/>
      <stop offset="0.31" stop-color="#080808"/>
      <stop offset="0.38" stop-color="#010101"/>
      <stop offset="0.6"/>
    </radialGradient>
    <radialGradient id="paint1_radial_2596_346033" cx="0" cy="0" r="1" gradientUnits="userSpaceOnUse" gradientTransform="translate(61.5345 82.4944) scale(7.30366 58.8873)">
      <stop offset="0.02" stop-color="white"/>
      <stop offset="0.03" stop-color="#F5F5F5"/>
      <stop offset="0.05" stop-color="#C7C7C7"/>
      <stop offset="0.08" stop-color="#9C9C9C"/>
      <stop offset="0.1" stop-color="#777777"/>
      <stop offset="0.14" stop-color="#565656"/>
      <stop offset="0.17" stop-color="#3B3B3B"/>
      <stop offset="0.21" stop-color="#252525"/>
      <stop offset="0.25" stop-color="#141414"/>
      <stop offset="0.31" stop-color="#080808"/>
      <stop offset="0.38" stop-color="#010101"/>
      <stop offset="0.6"/>
    </radialGradient>
    <radialGradient id="paint2_radial_2596_346033" cx="0" cy="0" r="1" gradientUnits="userSpaceOnUse" gradientTransform="translate(-166.574 -89.4107) rotate(36.604) scale(3.61972 38.112)">
      <stop offset="0.02" stop-color="white"/>
      <stop offset="0.03" stop-color="#F5F5F5"/>
      <stop offset="0.05" stop-color="#C7C7C7"/>
      <stop offset="0.08" stop-color="#9C9C9C"/>
      <stop offset="0.1" stop-color="#777777"/>
      <stop offset="0.14" stop-color="#565656"/>
      <stop offset="0.17" stop-color="#3B3B3B"/>
      <stop offset="0.21" stop-color="#252525"/>
      <stop offset="0.25" stop-color="#141414"/>
      <stop offset="0.31" stop-color="#080808"/>
      <stop offset="0.38" stop-color="#010101"/>
      <stop offset="0.6"/>
    </radialGradient>
    <clipPath id="clip0_2596_346033">
      <rect width="117" height="159.421" fill="white"/>
    </clipPath>
  </defs>
</svg>