<svg width="33" height="33" viewBox="0 0 33 33" fill="none" xmlns="http://www.w3.org/2000/svg">
<g clip-path="url(#clip0_5403_17978)">
<path d="M11.8825 17.0875C9.34504 17.0875 7.29504 19.1375 7.33254 21.65C7.35754 23.2625 8.24504 24.6625 9.55129 25.4438C9.10754 24.7625 8.84504 23.9562 8.83254 23.0875C8.79504 20.575 10.845 18.525 13.3825 18.525C13.8825 18.525 14.3638 18.6063 14.8138 18.75V13.7188C14.345 13.65 13.8638 13.6125 13.3825 13.6125H13.3138V17.3125C12.8638 17.1687 12.3825 17.0875 11.8825 17.0875ZM22.8513 2H21.5138C21.8888 3.88125 22.945 5.51875 24.42 6.63125C23.4513 5.35 22.8638 3.75 22.8513 2Z" fill="#F00044"/>
<path d="M30.5008 9.65703C30.007 9.65703 29.532 9.60703 29.0633 9.51953L21.3758 10.507L13.3133 30.8883C12.8445 30.957 12.3633 30.9945 11.882 30.9945C9.74453 30.9945 7.70703 30.3008 6.05078 29.0195C6.23828 29.2445 6.43828 29.4633 6.65703 29.6758C8.45703 31.4508 10.8445 32.432 13.3883 32.432C13.8695 32.432 14.3508 32.3945 14.8195 32.3258C16.8195 32.032 18.6633 31.1133 20.1195 29.6758C21.907 27.907 22.8945 25.5633 22.907 23.0633L22.8133 11.9445C23.6633 12.6008 24.5945 13.1508 25.6008 13.5695C27.157 14.2258 28.807 14.5633 30.5008 14.5633" fill="#F00044"/>
<path d="M6.63831 16.3809C8.41956 14.6121 10.7883 13.6309 13.3133 13.6121V12.2809C12.8446 12.2121 12.3633 12.1746 11.8821 12.1746C9.33206 12.1746 6.93831 13.1559 5.13831 14.9434C3.36956 16.6996 2.35706 19.0996 2.36331 21.5934C2.36331 24.1059 3.35706 26.4621 5.15081 28.2434C5.43831 28.5246 5.73206 28.7871 6.04456 29.0246C4.63206 27.3434 3.86331 25.2434 3.85706 23.0309C3.86331 20.5371 4.86956 18.1371 6.63831 16.3809ZM29.0633 9.51836V8.18086H29.0508C27.3133 8.18086 25.7133 7.60586 24.4258 6.63086C25.5446 8.10586 27.1821 9.15586 29.0633 9.51836Z" fill="#08FFF9"/>
<path d="M13.1258 27.5125C13.7195 27.5437 14.2883 27.4625 14.8133 27.2937C16.6258 26.7 17.932 25.0125 17.932 23.025L17.9383 15.5875V2H21.5133C21.4195 1.53125 21.3695 1.05625 21.3633 0.5625H16.4383V14.1437L16.432 21.5812C16.432 23.5687 15.1258 25.2562 13.3133 25.85C12.7883 26.025 12.2195 26.1062 11.6258 26.0687C10.8695 26.025 10.1633 25.8 9.55078 25.4375C10.3195 26.625 11.632 27.4312 13.1258 27.5125Z" fill="#08FFF9"/>
<path d="M13.3133 30.8875C15.3133 30.5938 17.1571 29.675 18.6133 28.2375C20.4008 26.4688 21.3883 24.125 21.4008 21.625L21.3758 10.5063C22.2258 11.1625 23.1571 11.7125 24.1633 12.1313C25.7196 12.7875 27.3696 13.125 29.0633 13.125V9.51875C27.1821 9.15625 25.5446 8.10625 24.4258 6.63125C22.9508 5.51875 21.8883 3.88125 21.5196 2H17.9383V15.5813L17.9321 23.0187C17.9321 25.0062 16.6258 26.6938 14.8133 27.2875C14.2883 27.4625 13.7196 27.5438 13.1258 27.5063C11.6258 27.425 10.3196 26.6187 9.55081 25.4375C8.24456 24.6625 7.35706 23.2562 7.33206 21.6437C7.29456 19.1312 9.34456 17.0812 11.8821 17.0812C12.3821 17.0812 12.8633 17.1625 13.3133 17.3062V13.6062C10.7883 13.625 8.41956 14.6062 6.63831 16.375C4.86956 18.1313 3.85706 20.5312 3.86331 23.0187C3.86331 25.2312 4.63206 27.3313 6.05081 29.0125C7.71331 30.2938 9.74456 30.9875 11.8821 30.9875C12.3633 30.9937 12.8446 30.9563 13.3133 30.8875Z" fill="black"/>
</g>
<defs>
<clipPath id="clip0_5403_17978">
<rect width="32" height="32" fill="white" transform="translate(0.5 0.5)"/>
</clipPath>
</defs>
</svg>
