<svg width="36" height="37" viewBox="0 0 36 37" fill="none" xmlns="http://www.w3.org/2000/svg">
<path d="M9.8025 12.6713C9.0375 12.6713 9 11.9213 9 11.1713C9.00223 10.3483 9.17374 9.53454 9.50387 8.78068C9.834 8.02681 10.3157 7.34891 10.919 6.78915C11.5223 6.22938 12.2343 5.79972 13.0107 5.52686C13.7872 5.25401 14.6114 5.1438 15.4323 5.20309C16.2531 5.26239 17.053 5.48992 17.7821 5.87153C18.5113 6.25314 19.1542 6.78068 19.6707 7.42134C20.1873 8.062 20.5666 8.80209 20.7849 9.59558C21.0033 10.3891 21.0561 11.219 20.94 12.0337C20.9102 12.2327 20.8025 12.4116 20.6408 12.5311C20.479 12.6507 20.2764 12.7011 20.0775 12.6713C19.8786 12.6414 19.6997 12.5338 19.5801 12.372C19.4606 12.2103 19.4102 12.0077 19.44 11.8088C19.5309 11.1706 19.4837 10.5204 19.3015 9.90207C19.1193 9.28376 18.8064 8.71181 18.384 8.22493C17.9616 7.73805 17.4395 7.3476 16.8531 7.08001C16.2667 6.81243 15.6296 6.67395 14.985 6.67395C14.3404 6.67395 13.7033 6.81243 13.1169 7.08001C12.5305 7.3476 12.0084 7.73805 11.586 8.22493C11.1636 8.71181 10.8507 9.28376 10.6685 9.90207C10.4863 10.5204 10.4391 11.1706 10.53 11.8088C10.546 11.9144 10.5393 12.0222 10.5103 12.125C10.4813 12.2278 10.4307 12.3233 10.3618 12.4049C10.2929 12.4866 10.2074 12.5526 10.1109 12.5985C10.0145 12.6445 9.90931 12.6693 9.8025 12.6713Z" fill="#262626"/>
<path d="M22.9875 13.234C23.3026 12.0148 23.3345 10.7397 23.0806 9.50624C22.8267 8.27282 22.2939 7.11389 21.5228 6.11825C20.7518 5.1226 19.7631 4.31667 18.6325 3.76222C17.5018 3.20776 16.2593 2.91948 15 2.91948C13.7407 2.91948 12.4982 3.20776 11.3675 3.76222C10.2369 4.31667 9.24817 5.1226 8.47716 6.11825C7.70614 7.11389 7.17328 8.27282 6.9194 9.50624C6.66552 10.7397 6.69737 12.0148 7.0125 13.234C7.06223 13.427 7.03327 13.6318 6.932 13.8034C6.83073 13.975 6.66545 14.0993 6.4725 14.149C6.27956 14.1988 6.07476 14.1698 5.90316 14.0685C5.73157 13.9673 5.60723 13.802 5.5575 13.609C5.18692 12.1686 5.15078 10.6625 5.45185 9.20601C5.75293 7.74949 6.38323 6.38116 7.29453 5.20573C8.20583 4.0303 9.37396 3.07893 10.7095 2.42444C12.0451 1.76995 13.5127 1.42969 15 1.42969C16.4873 1.42969 17.9549 1.76995 19.2905 2.42444C20.626 3.07893 21.7942 4.0303 22.7055 5.20573C23.6168 6.38116 24.2471 7.74949 24.5481 9.20601C24.8492 10.6625 24.8131 12.1686 24.4425 13.609C24.3928 13.802 24.2684 13.9673 24.0968 14.0685C23.9252 14.1698 23.7204 14.1988 23.5275 14.149C23.3346 14.0993 23.1693 13.975 23.068 13.8034C22.9667 13.6318 22.9378 13.427 22.9875 13.234Z" fill="#262626"/>
<path fill-rule="evenodd" clip-rule="evenodd" d="M30.7503 26.9235V21.051C30.77 20.5014 30.5961 19.9623 30.2589 19.5277C29.9217 19.0932 29.4426 18.7909 28.9053 18.6735C28.5778 18.6136 28.2411 18.627 27.9195 18.7129C27.5979 18.7988 27.2993 18.955 27.0453 19.1702C26.7913 19.3854 26.5883 19.6543 26.4508 19.9575C26.3235 20.2384 26.2553 20.5421 26.2503 20.8499V18.7935C26.2508 18.7622 26.2507 18.7309 26.25 18.6996V18.6712C26.25 18.0744 26.0129 17.5021 25.591 17.0802C25.2031 16.6923 24.6882 16.4607 24.1441 16.4258C24.1362 16.425 24.1282 16.4242 24.1203 16.4235C23.8149 16.4072 23.5094 16.4533 23.2224 16.5591C22.9354 16.6648 22.673 16.828 22.4512 17.0386C22.2293 17.2491 22.0528 17.5027 21.9323 17.7838C21.9129 17.8292 21.895 17.8751 21.8786 17.9214C21.7983 18.1486 21.7543 18.3892 21.7503 18.6343V17.2935C21.7508 17.2622 21.7507 17.2309 21.75 17.1996V17.1712C21.75 16.5744 21.5129 16.0021 21.091 15.5802C20.7031 15.1923 20.1882 14.9607 19.6441 14.9258C19.6362 14.925 19.6282 14.9242 19.6203 14.9235C19.3149 14.9072 19.0094 14.9533 18.7224 15.0591C18.4354 15.1648 18.173 15.328 17.9512 15.5386C17.7293 15.7491 17.5528 16.0027 17.4323 16.2838C17.4129 16.3292 17.395 16.3751 17.3786 16.4214C17.2983 16.6486 17.2543 16.8892 17.2503 17.1343V11.301C17.27 10.7514 17.0961 10.2123 16.7589 9.77774C16.4217 9.34323 15.9426 9.0409 15.4053 8.92352C15.0778 8.86356 14.7411 8.877 14.4195 8.96289C14.0979 9.04878 13.7993 9.20497 13.5453 9.4202C13.2914 9.63544 13.0883 9.90435 12.9508 10.2075C12.8163 10.5043 12.7478 10.8266 12.7501 11.1522C12.75 11.1585 12.75 11.1648 12.75 11.1712V22.4212C12.75 19.2487 8.25 18.3187 8.25 20.9212V26.9212C8.25 29.3081 9.19821 31.5973 10.886 33.2851C12.5739 34.973 14.8631 35.9212 17.25 35.9212C17.8137 35.9212 18.3589 35.9297 18.8879 35.938C22.3495 35.9924 25.1146 36.0359 27.795 33.5962C28.7265 32.7517 29.4707 31.7214 29.9796 30.5717C30.2625 29.9327 30.4692 29.2647 30.5969 28.5814C30.6988 28.0367 30.7505 27.4817 30.7503 26.9235Z" fill="#262626"/>
</svg>
