<svg width="36" height="36" viewBox="0 0 36 36" fill="none" xmlns="http://www.w3.org/2000/svg">
<path d="M9.8025 12.0033C9.0375 12.0033 9 11.2533 9 10.5033C9.00223 9.6803 9.17374 8.86658 9.50387 8.11271C9.834 7.35884 10.3157 6.68095 10.919 6.12118C11.5223 5.56141 12.2343 5.13175 13.0107 4.85889C13.7872 4.58604 14.6114 4.47583 15.4323 4.53512C16.2531 4.59442 17.053 4.82195 17.7821 5.20356C18.5113 5.58517 19.1542 6.11271 19.6707 6.75337C20.1873 7.39404 20.5666 8.13412 20.7849 8.92761C21.0033 9.7211 21.0561 10.551 20.94 11.3658C20.9102 11.5647 20.8025 11.7436 20.6408 11.8632C20.479 11.9827 20.2764 12.0331 20.0775 12.0033C19.8786 11.9734 19.6997 11.8658 19.5801 11.7041C19.4606 11.5423 19.4102 11.3397 19.44 11.1408C19.5309 10.5026 19.4837 9.85241 19.3015 9.2341C19.1193 8.6158 18.8064 8.04384 18.384 7.55696C17.9616 7.07008 17.4395 6.67963 16.8531 6.41205C16.2667 6.14446 15.6296 6.00598 14.985 6.00598C14.3404 6.00598 13.7033 6.14446 13.1169 6.41205C12.5305 6.67963 12.0084 7.07008 11.586 7.55696C11.1636 8.04384 10.8507 8.6158 10.6685 9.2341C10.4863 9.85241 10.4391 10.5026 10.53 11.1408C10.546 11.2464 10.5393 11.3542 10.5103 11.4571C10.4813 11.5599 10.4307 11.6553 10.3618 11.737C10.2929 11.8186 10.2074 11.8846 10.1109 11.9306C10.0145 11.9765 9.90931 12.0013 9.8025 12.0033Z" fill="white"/>
<path d="M22.9875 12.5661C23.3026 11.3469 23.3345 10.0717 23.0806 8.83827C22.8267 7.60485 22.2939 6.44592 21.5228 5.45028C20.7518 4.45463 19.7631 3.64871 18.6325 3.09425C17.5018 2.53979 16.2593 2.25151 15 2.25151C13.7407 2.25151 12.4982 2.53979 11.3675 3.09425C10.2369 3.64871 9.24817 4.45463 8.47716 5.45028C7.70614 6.44592 7.17328 7.60485 6.9194 8.83827C6.66552 10.0717 6.69737 11.3469 7.0125 12.5661C7.06223 12.759 7.03327 12.9638 6.932 13.1354C6.83073 13.307 6.66545 13.4313 6.4725 13.4811C6.27956 13.5308 6.07476 13.5018 5.90316 13.4006C5.73157 13.2993 5.60723 13.134 5.5575 12.9411C5.18692 11.5007 5.15078 9.99456 5.45185 8.53804C5.75293 7.08152 6.38323 5.71319 7.29453 4.53776C8.20583 3.36233 9.37396 2.41096 10.7095 1.75647C12.0451 1.10198 13.5127 0.761719 15 0.761719C16.4873 0.761719 17.9549 1.10198 19.2905 1.75647C20.626 2.41096 21.7942 3.36233 22.7055 4.53776C23.6168 5.71319 24.2471 7.08152 24.5481 8.53804C24.8492 9.99456 24.8131 11.5007 24.4425 12.9411C24.3928 13.134 24.2684 13.2993 24.0968 13.4006C23.9252 13.5018 23.7204 13.5308 23.5275 13.4811C23.3346 13.4313 23.1693 13.307 23.068 13.1354C22.9667 12.9638 22.9378 12.759 22.9875 12.5661Z" fill="white"/>
<path fill-rule="evenodd" clip-rule="evenodd" d="M30.7503 26.2556V20.3831C30.77 19.8334 30.5961 19.2943 30.2589 18.8598C29.9217 18.4253 29.4426 18.1229 28.9053 18.0056C28.5778 17.9456 28.2411 17.959 27.9195 18.0449C27.5979 18.1308 27.2993 18.287 27.0453 18.5022C26.7913 18.7175 26.5883 18.9864 26.4508 19.2896C26.3235 19.5704 26.2553 19.8741 26.2503 20.1819V18.1256C26.2508 18.0942 26.2507 18.0629 26.25 18.0316V18.0032C26.25 17.4065 26.0129 16.8342 25.591 16.4122C25.2031 16.0243 24.6882 15.7927 24.1441 15.7578C24.1362 15.757 24.1282 15.7563 24.1203 15.7556C23.8149 15.7392 23.5094 15.7854 23.2224 15.8911C22.9354 15.9969 22.673 16.16 22.4512 16.3706C22.2293 16.5812 22.0528 16.8348 21.9323 17.1159C21.9129 17.1612 21.895 17.2071 21.8786 17.2535C21.7983 17.4807 21.7543 17.7212 21.7503 17.9664V16.6256C21.7508 16.5942 21.7507 16.5629 21.75 16.5316V16.5032C21.75 15.9065 21.5129 15.3342 21.091 14.9122C20.7031 14.5243 20.1882 14.2927 19.6441 14.2578C19.6362 14.257 19.6282 14.2563 19.6203 14.2556C19.3149 14.2392 19.0094 14.2854 18.7224 14.3911C18.4354 14.4969 18.173 14.66 17.9512 14.8706C17.7293 15.0812 17.5528 15.3348 17.4323 15.6159C17.4129 15.6612 17.395 15.7071 17.3786 15.7535C17.2983 15.9807 17.2543 16.2212 17.2503 16.4664V10.6331C17.27 10.0834 17.0961 9.54429 16.7589 9.10977C16.4217 8.67526 15.9426 8.37293 15.4053 8.25556C15.0778 8.19559 14.7411 8.20903 14.4195 8.29492C14.0979 8.38081 13.7993 8.537 13.5453 8.75223C13.2914 8.96747 13.0883 9.23638 12.9508 9.53957C12.8163 9.83629 12.7478 10.1586 12.7501 10.4842C12.75 10.4905 12.75 10.4969 12.75 10.5032V21.7532C12.75 18.5807 8.25 17.6507 8.25 20.2532V26.2532C8.25 28.6402 9.19821 30.9293 10.886 32.6172C12.5739 34.305 14.8631 35.2532 17.25 35.2532C17.8137 35.2532 18.3589 35.2618 18.8879 35.2701C22.3495 35.3245 25.1146 35.3679 27.795 32.9282C28.7265 32.0837 29.4707 31.0534 29.9796 29.9038C30.2625 29.2647 30.4692 28.5967 30.5969 27.9135C30.6988 27.3687 30.7505 26.8137 30.7503 26.2556Z" fill="white"/>
</svg>
