<svg width="17" height="16" viewBox="0 0 17 16" fill="none" xmlns="http://www.w3.org/2000/svg">
<path d="M11.7124 9.40092L14.4039 7.05365C14.4404 7.02338 14.4667 6.98253 14.479 6.93672C14.4914 6.89091 14.4892 6.84239 14.4729 6.79786C14.4565 6.75332 14.4268 6.71495 14.3877 6.68802C14.3486 6.6611 14.3022 6.64695 14.2547 6.64752H11.304C11.267 6.64787 11.2304 6.63926 11.1974 6.62242C11.1644 6.60557 11.136 6.58099 11.1146 6.55078C11.0932 6.52057 11.0794 6.48563 11.0744 6.44893C11.0694 6.41224 11.0734 6.37488 11.086 6.34005L12.7036 1.90707C12.7162 1.87243 12.7202 1.83528 12.7153 1.79877C12.7104 1.76225 12.6969 1.72745 12.6757 1.69729C12.6545 1.66713 12.6264 1.64251 12.5938 1.62551C12.5611 1.60851 12.5248 1.59963 12.488 1.59961H6.76087C6.71344 1.5998 6.66723 1.61468 6.62861 1.64221C6.58998 1.66974 6.56084 1.70857 6.54519 1.75334L4.17496 8.4074C4.1629 8.44192 4.15925 8.47882 4.16434 8.51502C4.16942 8.55123 4.18308 8.5857 4.20418 8.61556C4.22529 8.64541 4.25322 8.6698 4.28565 8.68667C4.31809 8.70355 4.35409 8.71243 4.39065 8.71257H6.9582C6.99531 8.71245 7.0319 8.72134 7.06483 8.73846C7.09776 8.75559 7.12604 8.78045 7.14724 8.81091C7.16845 8.84137 7.18196 8.87652 7.18659 8.91334C7.19123 8.95016 7.18687 8.98756 7.17388 9.02233L5.09506 14.598C5.07782 14.6454 5.07668 14.6971 5.09181 14.7453C5.10695 14.7934 5.13752 14.8352 5.17879 14.8642C5.22006 14.8932 5.26974 14.9077 5.32014 14.9057C5.37054 14.9036 5.41884 14.885 5.45759 14.8527L7.78881 12.8197L11.7124 9.40092Z" fill="url(#paint0_linear_3069_226445)"/>
<path d="M5.50661 1.88379L2.91324 9.26158C2.90118 9.29609 2.89754 9.33299 2.90262 9.36919C2.9077 9.4054 2.92136 9.43987 2.94247 9.46973C2.96357 9.49958 2.9915 9.52397 3.02393 9.54084C3.05637 9.55772 3.09237 9.5666 3.12893 9.56674H5.69648C5.73359 9.56662 5.77018 9.57551 5.80311 9.59264C5.83604 9.60976 5.86432 9.63462 5.88553 9.66508C5.90673 9.69554 5.92024 9.73069 5.92488 9.76751C5.92952 9.80434 5.92515 9.84174 5.91216 9.8765L4.07595 14.8193" stroke="url(#paint1_linear_3069_226445)" strokeWidth="0.64" stroke-miterlimit="10" strokeLinecap="round" strokeLinejoin="round"/>
<defs>
<linearGradient id="paint0_linear_3069_226445" x1="9.32449" y1="1.59961" x2="9.32449" y2="14.8887" gradientUnits="userSpaceOnUse">
<stop stop-color="white" stop-opacity="0.7"/>
<stop offset="0.220571" stop-color="white"/>
<stop offset="1" stop-color="white"/>
</linearGradient>
<linearGradient id="paint1_linear_3069_226445" x1="5.92681" y1="15.0345" x2="7.91611" y2="2.19193" gradientUnits="userSpaceOnUse">
<stop stop-color="white" stop-opacity="0"/>
<stop offset="0.371797" stop-color="white"/>
<stop offset="0.583333" stop-color="white"/>
<stop offset="0.969718" stop-color="white" stop-opacity="0"/>
</linearGradient>
</defs>
</svg>
