<svg width="118" height="118" viewBox="0 0 118 118" fill="none" xmlns="http://www.w3.org/2000/svg">
<g clip-path="url(#clip0_3398_202749)">
<path d="M59 118C91.5848 118 118 91.5848 118 59C118 26.4152 91.5848 0 59 0C26.4152 0 0 26.4152 0 59C0 91.5848 26.4152 118 59 118Z" fill="#F9F4F0"/>
<path d="M116.5 59C116.5 90.7564 90.7564 116.5 59 116.5C27.2436 116.5 1.5 90.7564 1.5 59C1.5 27.2436 27.2436 1.5 59 1.5C90.7564 1.5 116.5 27.2436 116.5 59Z" stroke="url(#paint0_linear_3398_202749)" stroke-opacity="0.4" stroke-width="3"/>
<g clip-path="url(#clip1_3398_202749)">
<path d="M46.783 43.758V43.7532C46.783 36.987 52.2636 31.5176 59.0197 31.5C65.7866 31.5013 71.2719 36.9831 71.2894 43.7556C71.2881 50.5242 65.8051 56.0064 59.0362 56.0064H59.0173C52.2638 56.0064 46.7667 50.5213 46.783 43.758Z" stroke="url(#paint1_linear_3398_202749)" stroke-width="4"/>
<path d="M39.7229 79.3913L39.7228 79.3914C45.0935 83.9998 51.9356 86.5173 59.0097 86.4995L59.0197 86.4995C66.0933 86.5173 72.9351 84.0001 78.3056 79.3922L39.7229 79.3913ZM39.7229 79.3913L39.7133 79.3832M39.7229 79.3913L39.7133 79.3832M39.7133 79.3832C38.8007 78.6101 38.2815 77.4843 38.2815 76.2906C38.2815 69.4399 43.8459 63.9238 50.724 63.9238H67.3243C74.1956 63.9238 79.729 69.4331 79.729 76.2906C79.729 77.4859 79.2081 78.6163 78.3066 79.3914L39.7133 79.3832Z" stroke="url(#paint2_linear_3398_202749)" stroke-width="4"/>
</g>
<rect x="92" y="92" width="26" height="26" rx="13" fill="#F0F0F0"/>
<path d="M99.1386 110.862C99.2723 110.996 99.4717 111.036 99.6476 110.966L102.946 109.64C103.004 109.617 103.058 109.582 103.103 109.537L110.466 102.174C111.186 101.44 111.177 100.257 110.443 99.5348C109.718 98.8217 108.554 98.8217 107.827 99.5348L100.466 106.898C100.422 106.943 100.387 106.997 100.363 107.055L99.0354 110.353C98.9627 110.529 99.0049 110.729 99.1386 110.862Z" fill="#A9A9A9"/>
<path d="M108.569 104.07L109.455 103.176L106.833 100.532L105.948 101.426L108.569 104.07Z" fill="#3F3F3F"/>
</g>
<defs>
<linearGradient id="paint0_linear_3398_202749" x1="59.0025" y1="0.852011" x2="59.0025" y2="117.848" gradientUnits="userSpaceOnUse">
<stop stop-color="#E0B181"/>
<stop offset="1" stop-color="#BE9367"/>
</linearGradient>
<linearGradient id="paint1_linear_3398_202749" x1="59.0368" y1="29.7058" x2="59.0368" y2="57.9697" gradientUnits="userSpaceOnUse">
<stop stop-color="#E0B181"/>
<stop offset="1" stop-color="#BE9367"/>
</linearGradient>
<linearGradient id="paint2_linear_3398_202749" x1="59.0062" y1="62.1157" x2="59.0062" y2="88.4654" gradientUnits="userSpaceOnUse">
<stop stop-color="#E0B181"/>
<stop offset="1" stop-color="#BE9367"/>
</linearGradient>
<clipPath id="clip0_3398_202749">
<rect width="118" height="118" fill="white"/>
</clipPath>
<clipPath id="clip1_3398_202749">
<rect width="59" height="59" fill="white" transform="translate(29.5 29.5)"/>
</clipPath>
</defs>
</svg>
