<svg width="16" height="13" viewBox="0 0 16 13" fill="none" xmlns="http://www.w3.org/2000/svg">
<path d="M13.6367 3.64844H10.333V10.247H15.7459V6.94116L15.1146 4.75934C14.9243 4.1014 14.3217 3.64844 13.6367 3.64844Z" fill="#A9A9A9"/>
<path d="M14.9566 6.91352L14.394 4.96869C14.297 4.63437 13.986 4.40039 13.6377 4.40039H11.0859V6.91352H14.9566Z" fill="white"/>
<path d="M0.999916 0.642578H9.33387C9.88583 0.642578 10.3338 1.0902 10.3338 1.64249V9.63617H0V1.64249C0 1.09023 0.447619 0.642578 0.999916 0.642578Z" fill="#A9A9A9"/>
<path d="M15.4347 9.63614C15.7467 9.63614 15.9996 9.88907 15.9996 10.2011V10.2011C15.9996 10.5131 15.7467 10.766 15.4347 10.766H0.728249C0.326588 10.766 0.000976562 10.4404 0.000976562 10.0388V9.63614H1.2435C1.50731 9.63614 1.74346 9.48695 1.91257 9.28448C2.33196 8.78234 2.96419 8.46289 3.67067 8.46289C4.37533 8.46289 5.00781 8.78319 5.42896 9.28647C5.59766 9.48806 5.8332 9.63614 6.09606 9.63614H10.6161C10.8799 9.63614 11.116 9.48697 11.2849 9.28434C11.7034 8.78229 12.3332 8.46289 13.0396 8.46289C13.7725 8.46289 14.4231 8.8067 14.8428 9.34161C14.9779 9.51386 15.1749 9.63614 15.3939 9.63614H15.4347Z" fill="#A9A9A9"/>
<path d="M14.6374 10.759C14.6374 11.6409 13.9225 12.3558 13.0405 12.3558C12.1586 12.3558 11.4443 11.6409 11.4443 10.759C11.4443 9.87705 12.1589 9.16211 13.0405 9.16211C13.9228 9.16211 14.6374 9.87705 14.6374 10.759Z" fill="#A9A9A9"/>
<path d="M13.6817 10.7585C13.6817 11.1128 13.3944 11.3998 13.0404 11.3998C12.6861 11.3998 12.3984 11.1128 12.3984 10.7585C12.3984 10.4042 12.6858 10.1172 13.0404 10.1172C13.3944 10.1169 13.6817 10.4042 13.6817 10.7585Z" fill="#A9A9A9"/>
<path d="M5.26697 10.759C5.26697 11.6409 4.55169 12.3558 3.67011 12.3558C2.78818 12.3558 2.07324 11.6409 2.07324 10.759C2.07324 9.87705 2.78818 9.16211 3.67011 9.16211C4.55169 9.16211 5.26697 9.87705 5.26697 10.759Z" fill="#A9A9A9"/>
<path d="M4.31121 10.7585C4.31121 11.1128 4.02424 11.3998 3.66992 11.3998C3.31561 11.3998 3.02832 11.1128 3.02832 10.7585C3.02832 10.4042 3.31564 10.1172 3.66992 10.1172C4.02421 10.1172 4.31121 10.4042 4.31121 10.7585Z" fill="#A9A9A9"/>
</svg>
