<svg width="12" height="12" viewBox="0 0 12 12" fill="none" xmlns="http://www.w3.org/2000/svg">
<g clip-path="url(#clip0_1550_53140)">
<path d="M5.07128 5.93354C5.03642 5.98325 4.99754 6.02981 4.95504 6.07273C4.773 6.25948 4.55192 6.40068 4.30879 6.4855C4.05763 6.57496 3.79336 6.61881 3.5277 6.61509C3.30891 6.61431 3.09078 6.59019 2.8768 6.54309C1.51454 6.21192 0.505641 4.65684 0.147643 3.35614C-0.10342 2.43941 -0.0336805 1.71947 0.352213 1.3211C0.738107 0.922732 1.43551 0.850738 2.32353 1.11472C3.58349 1.48429 5.08523 2.52101 5.40603 3.9273C5.48993 4.26721 5.50349 4.62157 5.44581 4.96726C5.38813 5.31294 5.26051 5.6422 5.07128 5.93354ZM11.8407 2.39622C11.6394 3.10924 11.3045 3.77455 10.855 4.35446C10.4204 4.94844 9.80987 5.37983 9.11619 5.58317C8.90215 5.62993 8.68406 5.65405 8.46528 5.65516C8.06862 5.6662 7.677 5.56139 7.3355 5.35279C7.22703 5.28587 7.12708 5.20526 7.03794 5.1128C6.90123 4.97166 6.7909 4.80569 6.71249 4.62324C6.50014 4.09949 6.45455 3.51962 6.58231 2.96737C6.90311 1.56108 8.40949 0.524363 9.66946 0.154792C10.5575 -0.109187 11.2549 -0.0323934 11.6408 0.361176C12.0267 0.754745 12.0964 1.47949 11.8407 2.39622Z" fill="#29CC97"/>
<path d="M5.48126 10.0807C5.35795 10.0807 5.2397 10.0301 5.15251 9.94011C5.06531 9.8501 5.01633 9.72802 5.01633 9.60072C5.01602 8.6123 4.81307 7.63514 4.42082 6.73346C4.02858 5.83179 3.45592 5.02603 2.74049 4.36913L2.38388 4.04324C2.33809 4.00151 2.30071 3.95088 2.27387 3.89424C2.24703 3.8376 2.23126 3.77606 2.22746 3.71313C2.22366 3.6502 2.23191 3.58711 2.25173 3.52747C2.27155 3.46783 2.30255 3.4128 2.34297 3.36553C2.38339 3.31826 2.43243 3.27967 2.4873 3.25196C2.54216 3.22426 2.60178 3.20798 2.66274 3.20405C2.7237 3.20013 2.78481 3.20864 2.84258 3.2291C2.90036 3.24956 2.95366 3.28157 2.99945 3.32329L3.35745 3.65015C4.17122 4.39731 4.8226 5.31381 5.26877 6.3394C5.71495 7.36499 5.94581 8.47645 5.94619 9.60072C5.94619 9.72802 5.89721 9.8501 5.81002 9.94011C5.72283 10.0301 5.60457 10.0807 5.48126 10.0807Z" fill="#29CC97"/>
<path d="M5.4815 10.0814C5.35819 10.0814 5.23994 10.0309 5.15274 9.94084C5.06555 9.85083 5.01657 9.72875 5.01657 9.60146C5.01664 8.47713 5.24723 7.36555 5.69316 6.3398C6.1391 5.31404 6.79029 4.39732 7.60392 3.64992L8.90015 2.51433C8.94673 2.47355 9.00064 2.44264 9.0588 2.42337C9.11696 2.4041 9.17822 2.39684 9.2391 2.40201C9.29997 2.40718 9.35926 2.42467 9.41358 2.4535C9.46791 2.48232 9.5162 2.52191 9.5557 2.57C9.59521 2.6181 9.62515 2.67375 9.64382 2.73379C9.66248 2.79382 9.66952 2.85707 9.66451 2.91991C9.6595 2.98275 9.64255 3.04396 9.61463 3.10004C9.58671 3.15612 9.54836 3.20597 9.50177 3.24675L8.21391 4.37466C7.50038 5.03163 6.92949 5.83693 6.53871 6.73773C6.14793 7.63853 5.94609 8.61445 5.94643 9.60146C5.94643 9.72875 5.89745 9.85083 5.81026 9.94084C5.72307 10.0309 5.60481 10.0814 5.4815 10.0814ZM5.07236 5.93454C5.0375 5.98425 4.99862 6.03082 4.95613 6.07373C4.77408 6.26048 4.55301 6.40168 4.30987 6.4865C3.92508 5.68301 3.39298 4.96419 2.74305 4.36986L2.38505 4.04349C2.29865 3.95782 2.24762 3.84103 2.2426 3.71746C2.23757 3.5939 2.27895 3.4731 2.35809 3.38026C2.43723 3.28742 2.54804 3.2297 2.6674 3.21913C2.78676 3.20856 2.90546 3.24597 2.99876 3.32355L3.35676 3.64992C4.05994 4.29599 4.64155 5.0705 5.07236 5.93454Z" fill="#29CC97"/>
<path d="M9.50249 3.2471L8.21462 4.37501C7.89102 4.67053 7.59666 4.99852 7.3359 5.35414C7.22744 5.28722 7.12748 5.20661 7.03834 5.11416C6.90163 4.97301 6.7913 4.80705 6.71289 4.6246C6.9848 4.27577 7.28331 3.94995 7.60556 3.65027L8.89807 2.51756C8.99179 2.43482 9.1135 2.3939 9.23644 2.4038C9.35938 2.4137 9.47348 2.47361 9.55363 2.57036C9.63378 2.6671 9.67342 2.79275 9.66383 2.91966C9.65424 3.04658 9.5962 3.16436 9.50249 3.2471Z" fill="#29CC97"/>
<path d="M10.0527 11.2536C9.11256 9.7983 7.66011 9.12012 5.48144 9.12012C3.30276 9.12012 1.85031 9.7983 0.91022 11.2536C0.876327 11.306 0.852772 11.3648 0.840901 11.4266C0.82903 11.4885 0.829075 11.5521 0.841035 11.6139C0.852994 11.6758 0.876633 11.7345 0.910601 11.7869C0.94457 11.8393 0.988202 11.8843 1.03901 11.9193C1.11602 11.9695 1.206 11.9944 1.29704 11.9908V11.9999H9.66583C9.74996 11.9998 9.8325 11.9762 9.90464 11.9315C9.97678 11.8868 10.0358 11.8227 10.0755 11.7461C10.1151 11.6695 10.1339 11.5833 10.1298 11.4965C10.1257 11.4098 10.0989 11.3258 10.0522 11.2536H10.0527Z" fill="#9E6351"/>
</g>
<defs>
<clipPath id="clip0_1550_53140">
<rect width="12" height="12" fill="white"/>
</clipPath>
</defs>
</svg>
