<svg width="26" height="26" viewBox="0 0 26 26" fill="none" xmlns="http://www.w3.org/2000/svg">
<rect width="26" height="26" rx="13" fill="#F0F0F0"/>
<path d="M7.13861 18.8625C7.27232 18.9962 7.47171 19.0361 7.64764 18.9657L10.9458 17.6404C11.0044 17.6169 11.0584 17.5817 11.1029 17.5371L18.4663 10.1738C19.1864 9.43959 19.177 8.25733 18.4428 7.53483C17.718 6.82172 16.5545 6.82172 15.8273 7.53483L8.46631 14.8982C8.42174 14.9427 8.38656 14.9967 8.3631 15.0553L7.0354 18.3535C6.96268 18.5294 7.0049 18.7288 7.13861 18.8625Z" fill="#A9A9A9"/>
<path d="M16.5686 12.0696L17.4553 11.1759L14.8328 8.53223L13.9484 9.42596L16.5686 12.0696Z" fill="#3F3F3F"/>
</svg>
