<svg xmlns="http://www.w3.org/2000/svg" width="25" height="24" viewBox="0 0 25 24" fill="none">
  <path d="M10.6426 11.8671C10.5728 11.9665 10.4951 12.0596 10.4101 12.1455C10.046 12.519 9.60384 12.8014 9.11758 12.971C8.61527 13.1499 8.08672 13.2376 7.5554 13.2302C7.11782 13.2286 6.68156 13.1804 6.25359 13.0862C3.52909 12.4238 1.51128 9.31368 0.795286 6.71228C0.293159 4.87883 0.432639 3.43894 1.20443 2.6422C1.97621 1.84546 3.37101 1.70148 5.14705 2.22943C7.66699 2.96858 10.6705 5.04201 11.3121 7.8546C11.4799 8.53442 11.507 9.24314 11.3916 9.93451C11.2763 10.6259 11.021 11.2844 10.6426 11.8671ZM24.1814 4.79243C23.7787 6.21847 23.109 7.5491 22.2101 8.70893C21.3407 9.89689 20.1197 10.7597 18.7324 11.1663C18.3043 11.2599 17.8681 11.3081 17.4306 11.3103C16.6372 11.3324 15.854 11.1228 15.171 10.7056C14.9541 10.5717 14.7542 10.4105 14.5759 10.2256C14.3025 9.94331 14.0818 9.61139 13.925 9.24649C13.5003 8.19899 13.4091 7.03924 13.6646 5.93475C14.3062 3.12216 17.319 1.04873 19.8389 0.309584C21.615 -0.218375 23.0098 -0.0647867 23.7815 0.722352C24.5533 1.50949 24.6928 2.95898 24.1814 4.79243Z" fill="#29CC97"/>
  <path d="M11.4625 20.1594C11.2159 20.1594 10.9794 20.0583 10.805 19.8783C10.6306 19.6982 10.5327 19.4541 10.5327 19.1995C10.532 17.2226 10.1261 15.2683 9.34164 13.465C8.55715 11.6616 7.41183 10.0501 5.98097 8.73631L5.26777 8.08452C5.17618 8.00107 5.10142 7.89981 5.04774 7.78654C4.99406 7.67326 4.96252 7.55017 4.95493 7.42431C4.94733 7.29845 4.96382 7.17227 5.00345 7.05299C5.04309 6.93371 5.1051 6.82365 5.18594 6.72911C5.26678 6.63456 5.36486 6.55738 5.47459 6.50197C5.58432 6.44656 5.70355 6.414 5.82547 6.40616C5.9474 6.39831 6.06962 6.41534 6.18517 6.45625C6.30071 6.49717 6.40732 6.56118 6.49891 6.64463L7.2149 7.29834C8.84244 8.79268 10.1452 10.6257 11.0375 12.6769C11.9299 14.728 12.3916 16.951 12.3924 19.1995C12.3924 19.4541 12.2944 19.6982 12.12 19.8783C11.9457 20.0583 11.7091 20.1594 11.4625 20.1594Z" fill="#29CC97"/>
  <path d="M11.462 20.1609C11.2154 20.1609 10.9789 20.0597 10.8045 19.8797C10.6301 19.6997 10.5322 19.4555 10.5322 19.201C10.5323 16.9523 10.9935 14.7292 11.8853 12.6776C12.7772 10.6261 14.0796 8.7927 15.7069 7.29789L18.2993 5.0267C18.3925 4.94514 18.5003 4.88333 18.6166 4.84478C18.7329 4.80624 18.8555 4.79172 18.9772 4.80206C19.099 4.8124 19.2175 4.8474 19.3262 4.90505C19.4348 4.9627 19.5314 5.04187 19.6104 5.13806C19.6894 5.23424 19.7493 5.34554 19.7867 5.46562C19.824 5.58569 19.8381 5.71218 19.828 5.83786C19.818 5.96355 19.7841 6.08596 19.7283 6.19812C19.6724 6.31028 19.5957 6.40999 19.5026 6.49155L16.9268 8.74737C15.4998 10.0613 14.358 11.6719 13.5764 13.4735C12.7949 15.2751 12.3912 17.2269 12.3919 19.201C12.3919 19.4555 12.2939 19.6997 12.1195 19.8797C11.9452 20.0597 11.7086 20.1609 11.462 20.1609ZM10.6437 11.8671C10.574 11.9666 10.4963 12.0597 10.4113 12.1455C10.0472 12.519 9.60503 12.8014 9.11876 12.971C8.34919 11.3641 7.28499 9.92642 5.98512 8.73777L5.26913 8.08503C5.09633 7.91368 4.99426 7.6801 4.98422 7.43297C4.97417 7.18585 5.05692 6.94425 5.2152 6.75857C5.37349 6.57289 5.59509 6.45744 5.83382 6.43631C6.07254 6.41518 6.30995 6.48998 6.49655 6.64514L7.21254 7.29789C8.6189 8.59002 9.78213 10.1391 10.6437 11.8671Z" fill="#29CC97"/>
  <path d="M19.505 6.49225L16.9292 8.74808C16.282 9.33911 15.6933 9.99508 15.1718 10.7063C14.9549 10.5725 14.755 10.4113 14.5767 10.2264C14.3033 9.94406 14.0826 9.61214 13.9258 9.24724C14.4696 8.54958 15.0666 7.89795 15.7111 7.29859L18.2961 5.03317C18.4836 4.86768 18.727 4.78584 18.9729 4.80564C19.2188 4.82545 19.447 4.94527 19.6073 5.13876C19.7676 5.33225 19.8468 5.58354 19.8277 5.83737C19.8085 6.0912 19.6924 6.32677 19.505 6.49225Z" fill="#29CC97"/>
  <path d="M20.6043 22.5071C18.7241 19.5966 15.8192 18.2402 11.4619 18.2402C7.10455 18.2402 4.19965 19.5966 2.31946 22.5071C2.25168 22.612 2.20457 22.7296 2.18083 22.8533C2.15708 22.977 2.15717 23.1043 2.18109 23.2279C2.20501 23.3515 2.25229 23.4691 2.32023 23.5739C2.38816 23.6786 2.47543 23.7686 2.57704 23.8385C2.73107 23.939 2.91103 23.9889 3.09311 23.9815V23.9998H19.8307C19.9989 23.9996 20.164 23.9524 20.3083 23.863C20.4526 23.7736 20.5707 23.6455 20.65 23.4923C20.7293 23.3391 20.7669 23.1665 20.7586 22.993C20.7504 22.8195 20.6968 22.6516 20.6034 22.5071H20.6043Z" fill="#9E6351"/>
</svg>