<svg xmlns="http://www.w3.org/2000/svg" width="36" height="36" viewBox="0 0 36 36" fill="none">
  <path fill-rule="evenodd" clip-rule="evenodd" d="M18.2305 13.6079C17.3286 12.0455 20.1487 8.73047 24.5292 6.20077C28.9076 3.67311 33.19 2.88779 34.0918 4.4502C34.5909 5.31525 35.0898 6.18031 35.5908 7.0474C36.4927 8.60778 33.6726 11.9228 29.2921 14.4525C24.9116 16.9802 20.6313 17.7655 19.7295 16.2051C19.2305 15.338 18.7295 14.473 18.2305 13.6079Z" fill="url(#paint0_linear_3069_229598)"/>
  <path fill-rule="evenodd" clip-rule="evenodd" d="M24.5292 6.20077C28.9076 3.67311 33.19 2.88779 34.0918 4.4502C34.9937 6.01057 32.1736 9.3256 27.7931 11.8553C23.4126 14.385 19.1324 15.1683 18.2305 13.6079C17.3286 12.0455 20.1487 8.73047 24.5292 6.20077Z" fill="#FECD3D"/>
  <path fill-rule="evenodd" clip-rule="evenodd" d="M25.2914 7.5222C28.7761 5.5119 31.9889 4.55487 32.4695 5.38512C32.9501 6.21748 30.5144 8.52226 27.0296 10.5345C23.5449 12.5469 20.33 13.504 19.8515 12.6716C19.371 11.8393 21.8066 9.53455 25.2914 7.5222Z" fill="url(#paint1_linear_3069_229598)"/>
  <path d="M33.7637 8.8341L34.5612 10.2165C34.7514 9.98336 34.9232 9.75435 35.0704 9.52935L34.4406 8.44141L33.7637 8.8341ZM33.0806 11.7462C32.883 11.9227 32.6818 12.0952 32.4773 12.2637L31.7165 10.9446L32.3934 10.5561L33.0806 11.7462ZM30.8229 13.4927C30.6072 13.6396 30.389 13.7828 30.1685 13.9222L29.4425 12.6645L30.1194 12.276L30.8229 13.4927ZM28.3954 14.9447C28.1602 15.0694 27.9271 15.186 27.696 15.3005L26.9904 14.0817L27.6693 13.689L28.3954 14.9447ZM25.8043 16.1165C25.5562 16.2101 25.3059 16.2981 25.0538 16.3803L24.3646 15.1901L25.0435 14.7996L25.8043 16.1165ZM22.9883 16.8977C22.6918 16.9468 22.4074 16.9795 22.1395 16.9958L21.5117 15.9079L22.1907 15.5153L22.9883 16.8977Z" fill="url(#paint2_linear_3069_229598)"/>
  <path fill-rule="evenodd" clip-rule="evenodd" d="M17.5635 20.3882C18.4653 18.8278 15.6452 15.5107 11.2648 12.9831C6.88633 10.4534 2.60394 9.67008 1.70212 11.2305C1.20311 12.0955 0.704171 12.9626 0.203124 13.8277C-0.698774 15.388 2.12139 18.7051 6.50186 21.2328C10.8823 23.7625 15.1627 24.5457 16.0645 22.9854C16.5655 22.1204 17.0644 21.2532 17.5635 20.3882Z" fill="url(#paint3_linear_3069_229598)"/>
  <path fill-rule="evenodd" clip-rule="evenodd" d="M11.2651 12.9831C6.88664 10.4534 2.60426 9.67008 1.70243 11.2305C0.802643 12.7929 3.62274 16.1079 8.00117 18.6356C12.3816 21.1653 16.664 21.9485 17.5638 20.3882C18.4657 18.8278 15.6455 15.5107 11.2651 12.9831Z" fill="#FECD3D"/>
  <path fill-rule="evenodd" clip-rule="evenodd" d="M10.5023 14.3026C7.01957 12.2903 3.80475 11.3333 3.32416 12.1656C2.84357 12.9959 5.2792 15.3027 8.76396 17.3129C12.2487 19.3253 15.4635 20.2823 15.9441 19.45C16.4227 18.6197 13.9871 16.315 10.5023 14.3026Z" fill="url(#paint4_linear_3069_229598)"/>
  <path fill-rule="evenodd" clip-rule="evenodd" d="M16.9311 28.9502C16.0312 27.3898 18.8493 24.0748 23.2298 21.5451C27.6103 19.0174 31.8906 18.2321 32.7924 19.7925C33.2924 20.658 33.7921 21.5237 34.2914 22.3897C35.1933 23.9521 32.3732 27.2671 27.9947 29.7968C23.6143 32.3245 19.3319 33.1098 18.43 31.5474C17.9307 30.6815 17.4311 29.8157 16.9311 28.9502Z" fill="url(#paint5_linear_3069_229598)"/>
  <path fill-rule="evenodd" clip-rule="evenodd" d="M23.2298 21.5451C27.6103 19.0174 31.8906 18.2321 32.7924 19.7925C33.6943 21.3549 30.8742 24.6699 26.4937 27.1996C22.1153 29.7273 17.833 30.5126 16.9311 28.9502C16.0312 27.3899 18.8493 24.0749 23.2298 21.5451Z" fill="#FECD3D"/>
  <path fill-rule="evenodd" clip-rule="evenodd" d="M23.9925 22.8663C27.4773 20.8539 30.6921 19.8989 31.1707 20.7292C31.6512 21.5615 29.2156 23.8662 25.7308 25.8786C22.246 27.8889 19.0332 28.8459 18.5527 28.0157C18.0721 27.1833 20.5078 24.8785 23.9925 22.8663Z" fill="url(#paint6_linear_3069_229598)"/>
  <path d="M32.4648 24.1778L33.2644 25.5603C33.4448 25.3398 33.614 25.1105 33.7715 24.8731L33.1437 23.7852L32.4648 24.1778ZM31.7837 27.0879C31.5859 27.2649 31.3841 27.4375 31.1784 27.6053L30.4176 26.2883L31.0965 25.8997L31.7837 27.0879ZM29.526 28.8364C29.3093 28.9829 29.0905 29.126 28.8695 29.2659L28.1436 28.0082L28.8225 27.6176L29.526 28.8364ZM27.0965 30.2884C26.8652 30.4099 26.632 30.5279 26.3971 30.6422L25.6935 29.4233L26.3704 29.0307L27.0965 30.2884ZM24.5054 31.4602C24.2567 31.5523 24.0065 31.6402 23.7549 31.724L23.0677 30.5317L23.7446 30.1432L24.5054 31.4602ZM21.6914 32.2414C21.3928 32.2905 21.1085 32.3212 20.8427 32.3375L20.2148 31.2496L20.8917 30.857L21.6914 32.2414Z" fill="url(#paint7_linear_3069_229598)"/>
  <path d="M15.1755 7.31055V8.47422H16.3391V9.48447H15.1755V10.6501H14.1652V9.48447H12.9995V8.47422H14.1652V7.31055H15.1755ZM11.5762 25.9757V27.1394H12.7418V28.1496H11.5762V29.3153H10.5659V28.1496H9.40234V27.1394H10.5659V25.9757H11.5762ZM34.7998 14.5623V15.7259H35.9654V16.7362H34.7998V17.9019H33.7895V16.7362H32.6259V15.7259H33.7895V14.5623H34.7998Z" fill="url(#paint8_linear_3069_229598)"/>
  <defs>
    <linearGradient id="paint0_linear_3069_229598" x1="13.8344" y1="4.34723" x2="22.4098" y2="-1.75428" gradientUnits="userSpaceOnUse">
      <stop offset="0.19741" stop-color="#FFDBA3"/>
      <stop offset="1" stop-color="#FFB032"/>
    </linearGradient>
    <linearGradient id="paint1_linear_3069_229598" x1="19.4235" y1="4.42877" x2="34.6073" y2="10.3922" gradientUnits="userSpaceOnUse">
      <stop stop-color="#E78C03"/>
      <stop offset="1" stop-color="#FFB84F"/>
    </linearGradient>
    <linearGradient id="paint2_linear_3069_229598" x1="18.2722" y1="8.89007" x2="24.0094" y2="4.00505" gradientUnits="userSpaceOnUse">
      <stop offset="0.19741" stop-color="#FFDBA3"/>
      <stop offset="1" stop-color="#FFB032"/>
    </linearGradient>
    <linearGradient id="paint3_linear_3069_229598" x1="-4.1929" y1="11.1285" x2="4.3822" y2="5.02688" gradientUnits="userSpaceOnUse">
      <stop offset="0.19741" stop-color="#FFDBA3"/>
      <stop offset="1" stop-color="#FFB032"/>
    </linearGradient>
    <linearGradient id="paint4_linear_3069_229598" x1="2.89616" y1="11.2081" x2="18.0808" y2="17.1733" gradientUnits="userSpaceOnUse">
      <stop stop-color="#E78C03"/>
      <stop offset="1" stop-color="#FFB84F"/>
    </linearGradient>
    <linearGradient id="paint5_linear_3069_229598" x1="12.5358" y1="19.691" x2="21.111" y2="13.5897" gradientUnits="userSpaceOnUse">
      <stop offset="0.19741" stop-color="#FFDBA3"/>
      <stop offset="1" stop-color="#FFB032"/>
    </linearGradient>
    <linearGradient id="paint6_linear_3069_229598" x1="18.1247" y1="19.7726" x2="33.308" y2="25.7365" gradientUnits="userSpaceOnUse">
      <stop stop-color="#E78C03"/>
      <stop offset="1" stop-color="#FFB84F"/>
    </linearGradient>
    <linearGradient id="paint7_linear_3069_229598" x1="16.9758" y1="24.2337" x2="22.7117" y2="19.3494" gradientUnits="userSpaceOnUse">
      <stop offset="0.19741" stop-color="#FFDBA3"/>
      <stop offset="1" stop-color="#FFB032"/>
    </linearGradient>
    <linearGradient id="paint8_linear_3069_229598" x1="3.05581" y1="8.46464" x2="16.7046" y2="-0.386428" gradientUnits="userSpaceOnUse">
      <stop offset="0.19741" stop-color="#FFDBA3"/>
      <stop offset="1" stop-color="#FFB032"/>
    </linearGradient>
  </defs>
</svg>