<svg xmlns="http://www.w3.org/2000/svg" width="36" height="36" viewBox="0 0 36 36" fill="none">
  <g clip-path="url(#clip0_3069_229581)">
    <path d="M32.1429 2.57227H3.85714C1.7269 2.57227 0 4.29917 0 6.42941V32.1437C0 34.2739 1.7269 36.0008 3.85714 36.0008H32.1429C34.2731 36.0008 36 34.2739 36 32.1437V6.42941C36 4.29917 34.2731 2.57227 32.1429 2.57227Z" fill="url(#paint0_linear_3069_229581)"/>
    <path d="M36 6.42941V12.858H0V6.42941C0 4.30798 1.73571 2.57227 3.85714 2.57227H32.1429C34.2643 2.57227 36 4.30798 36 6.42941Z" fill="url(#paint1_linear_3069_229581)"/>
    <path d="M7.71596 1.28571V6.42857C7.71596 6.76956 7.5805 7.09659 7.33938 7.33771C7.09826 7.57883 6.77124 7.71429 6.43025 7.71429C6.08925 7.71429 5.76223 7.57883 5.52111 7.33771C5.27999 7.09659 5.14453 6.76956 5.14453 6.42857V1.28571C5.14453 0.944722 5.27999 0.617695 5.52111 0.376577C5.76223 0.135459 6.08925 0 6.43025 0C6.77124 0 7.09826 0.135459 7.33938 0.376577C7.5805 0.617695 7.71596 0.944722 7.71596 1.28571ZM14.1445 0C13.8035 0 13.4765 0.135459 13.2354 0.376577C12.9943 0.617695 12.8588 0.944722 12.8588 1.28571V6.42857C12.8588 6.76956 12.9943 7.09659 13.2354 7.33771C13.4765 7.57883 13.8035 7.71429 14.1445 7.71429C14.4855 7.71429 14.8125 7.57883 15.0537 7.33771C15.2948 7.09659 15.4302 6.76956 15.4302 6.42857V1.28571C15.4302 0.944722 15.2948 0.617695 15.0537 0.376577C14.8125 0.135459 14.4855 0 14.1445 0ZM21.8588 0C21.5178 0 21.1908 0.135459 20.9497 0.376577C20.7086 0.617695 20.5731 0.944722 20.5731 1.28571V6.42857C20.5731 6.76956 20.7086 7.09659 20.9497 7.33771C21.1908 7.57883 21.5178 7.71429 21.8588 7.71429C22.1998 7.71429 22.5268 7.57883 22.768 7.33771C23.0091 7.09659 23.1445 6.76956 23.1445 6.42857V1.28571C23.1445 0.944722 23.0091 0.617695 22.768 0.376577C22.5268 0.135459 22.1998 0 21.8588 0ZM29.5731 0C29.2321 0 28.9051 0.135459 28.664 0.376577C28.4228 0.617695 28.2874 0.944722 28.2874 1.28571V6.42857C28.2874 6.76956 28.4228 7.09659 28.664 7.33771C28.9051 7.57883 29.2321 7.71429 29.5731 7.71429C29.9141 7.71429 30.2411 7.57883 30.4822 7.33771C30.7234 7.09659 30.8588 6.76956 30.8588 6.42857V1.28571C30.8588 0.944722 30.7234 0.617695 30.4822 0.376577C30.2411 0.135459 29.9141 0 29.5731 0Z" fill="url(#paint2_linear_3069_229581)"/>
    <path fill-rule="evenodd" clip-rule="evenodd" d="M22.9453 19.6224C22.5712 19.2483 21.9299 19.2483 21.5558 19.6224L17.1146 24.0434L15.195 22.1088C14.8209 21.7347 14.1796 21.7347 13.8055 22.1088L13.0306 22.8837C12.6565 23.2578 12.6565 23.8991 13.0306 24.2732L16.4242 27.6936C16.7983 28.0677 17.4396 28.0677 17.8137 27.6936L18.5887 26.9187C18.6303 26.877 18.6673 26.8321 18.6997 26.7846L23.7203 21.7868C24.0944 21.4127 24.0944 20.7714 23.7203 20.3973L22.9453 19.6224Z" fill="url(#paint3_linear_3069_229581)"/>
  </g>
  <defs>
    <linearGradient id="paint0_linear_3069_229581" x1="-8.60124" y1="4.32551" x2="38.6521" y2="31.2335" gradientUnits="userSpaceOnUse">
      <stop offset="0.193888" stop-color="#FFF0D8"/>
      <stop offset="0.831674" stop-color="#FFBF58"/>
    </linearGradient>
    <linearGradient id="paint1_linear_3069_229581" x1="0" y1="2.57227" x2="33.8096" y2="17.7404" gradientUnits="userSpaceOnUse">
      <stop stop-color="#102841"/>
      <stop offset="1" stop-color="#1359A1"/>
    </linearGradient>
    <linearGradient id="paint2_linear_3069_229581" x1="-0.999208" y1="0.404596" x2="9.88495" y2="19.5886" gradientUnits="userSpaceOnUse">
      <stop offset="0.193888" stop-color="#FFF0D8"/>
      <stop offset="0.831674" stop-color="#FFBF58"/>
    </linearGradient>
    <linearGradient id="paint3_linear_3069_229581" x1="12.75" y1="19.3418" x2="25.0983" y2="21.4047" gradientUnits="userSpaceOnUse">
      <stop stop-color="#102841"/>
      <stop offset="1" stop-color="#1359A1"/>
    </linearGradient>
    <clipPath id="clip0_3069_229581">
      <rect width="36" height="36" fill="white"/>
    </clipPath>
  </defs>
</svg>