<svg xmlns="http://www.w3.org/2000/svg" width="36" height="36" viewBox="0 0 36 36" fill="none">
  <path d="M17.9994 21.6562V29.5313H12.9088C12.5713 29.5313 12.4307 28.9969 12.74 28.8L12.7682 28.7719C14.1182 27.8719 15.9744 26.1281 16.4525 24.975C16.9025 23.8219 16.8744 21.6562 16.8744 21.6562H17.9994ZM23.09 29.5594H17.9994V21.6562H19.1244C19.1244 21.6562 19.0682 23.8219 19.5463 25.0031C19.9963 26.1563 21.8807 27.9 23.2307 28.8L23.2588 28.8281C23.54 29.025 23.4275 29.5594 23.09 29.5594Z" fill="url(#paint0_linear_46_15851)"/>
  <path d="M25.7344 31.384V31.6934C25.7344 32.0027 25.5094 32.2559 25.2563 32.2559H18V29.4434H23.9344C24.2438 29.4434 24.525 29.584 24.7219 29.8371L25.5094 30.7652C25.65 30.934 25.7344 31.159 25.7344 31.384ZM18 29.4715V32.284H10.7438C10.4625 32.284 10.2656 32.0309 10.2656 31.7215V31.4121C10.2656 31.1871 10.35 30.9621 10.4906 30.7934L11.3063 29.8652C11.5313 29.6121 11.8125 29.4715 12.0938 29.4715H18Z" fill="url(#paint1_linear_46_15851)"/>
  <path d="M13.3053 17.0416C13.249 17.576 12.7709 17.9416 12.2646 17.8854L5.17715 17.2385C2.78652 17.0135 0.958399 15.2135 0.958399 13.0479L0.452148 7.31035C0.452148 5.81973 1.83027 4.61035 3.5459 4.61035H8.58027C9.03027 4.61035 9.36777 4.97598 9.36777 5.39785V5.96035C9.36777 6.41035 9.00215 6.74785 8.58027 6.74785H5.20527C3.96777 6.74785 2.95527 7.61973 2.95527 8.7166L3.37715 11.9791C3.37715 13.6385 4.7834 15.0166 6.61152 15.1854L12.4615 15.7197C12.9959 15.776 13.3897 16.2541 13.3334 16.7885L13.3053 17.0416Z" fill="url(#paint2_linear_46_15851)"/>
  <path d="M22.6995 17.0416C22.7557 17.576 23.2339 17.9416 23.7401 17.8854L30.8276 17.2385C33.2182 17.0135 35.0464 15.2135 35.0464 13.0479L35.5526 7.31035C35.5526 5.81973 34.1745 4.61035 32.4589 4.61035H27.4245C26.9745 4.61035 26.637 4.97598 26.637 5.39785V5.96035C26.637 6.41035 27.0026 6.74785 27.4245 6.74785H30.7995C32.037 6.74785 33.0495 7.61973 33.0495 8.7166L32.6276 11.9791C32.6276 13.6385 31.2214 15.0166 29.3932 15.1854L23.5432 15.7197C23.0089 15.776 22.6151 16.2541 22.6714 16.7885L22.6995 17.0416Z" fill="url(#paint3_linear_46_15851)"/>
  <path d="M28.9406 3.68438V15.3563C28.9406 16.0031 28.6875 16.6219 28.2375 17.0719L22.5 22.8375L19.6875 25.6781C19.2094 26.1563 18.5906 26.3813 18 26.3813C17.3813 26.3813 16.7625 26.1563 16.3125 25.6781L13.5 22.8375L7.73438 17.0719C7.28437 16.6219 7.03125 16.0031 7.03125 15.3563V3.68438C7.03125 2.025 8.26875 0.61875 9.92812 0.45C10.2094 0.421875 10.4906 0.39375 10.8 0.365625C12.5719 0.16875 14.9906 0 17.9719 0C20.9531 0 23.3719 0.16875 25.1719 0.3375C25.4813 0.365625 25.7625 0.39375 26.0437 0.421875C27.675 0.61875 28.9406 1.99688 28.9406 3.68438Z" fill="url(#paint4_linear_46_15851)"/>
  <path d="M25.1727 0.3375V14.9906C25.1727 15.3844 25.0039 15.75 24.7227 16.0312L20.9539 19.5469L19.0977 21.2625C18.7883 21.5437 18.3945 21.6844 17.9727 21.6844C17.5789 21.6844 17.157 21.5437 16.8477 21.2625L14.9914 19.5469L11.2508 16.0312C10.9695 15.75 10.8008 15.3844 10.8008 14.9906V0.3375C12.5727 0.16875 14.9914 0 17.9727 0C20.9539 0 23.3727 0.16875 25.1727 0.3375Z" fill="url(#paint5_linear_46_15851)"/>
  <path d="M29.3906 34.7027V35.1527C29.3906 35.6027 29.0813 35.9684 28.6594 35.9684H18V31.834H26.7188C27.1688 31.834 27.5906 32.0309 27.9 32.3965L29.0813 33.7746C29.2781 34.0559 29.3906 34.3652 29.3906 34.7027ZM18 31.8621V35.9965H7.34063C6.94688 35.9965 6.60938 35.6309 6.60938 35.1809V34.7309C6.60938 34.3934 6.72188 34.084 6.91875 33.8309L8.1 32.4527C8.40937 32.0871 8.83125 31.8902 9.28125 31.8902H18V31.8621Z" fill="url(#paint6_linear_46_15851)"/>
  <defs>
    <linearGradient id="paint0_linear_46_15851" x1="9.97608" y1="22.0707" x2="14.828" y2="17.79" gradientUnits="userSpaceOnUse">
      <stop offset="0.193888" stop-color="#FFF0D8"/>
      <stop offset="0.511842" stop-color="#FFD797"/>
    </linearGradient>
    <linearGradient id="paint1_linear_46_15851" x1="6.56978" y1="29.5923" x2="7.49843" y2="26.3424" gradientUnits="userSpaceOnUse">
      <stop offset="0.193888" stop-color="#FFF0D8"/>
      <stop offset="0.511842" stop-color="#FFD797"/>
    </linearGradient>
    <linearGradient id="paint2_linear_46_15851" x1="-2.62676" y1="5.30689" x2="4.76957" y2="1.45146" gradientUnits="userSpaceOnUse">
      <stop offset="0.19741" stop-color="#FFDBA3"/>
      <stop offset="1" stop-color="#FFB032"/>
    </linearGradient>
    <linearGradient id="paint3_linear_46_15851" x1="19.5871" y1="5.30689" x2="26.9834" y2="1.45146" gradientUnits="userSpaceOnUse">
      <stop offset="0.19741" stop-color="#FFDBA3"/>
      <stop offset="1" stop-color="#FFB032"/>
    </linearGradient>
    <linearGradient id="paint4_linear_46_15851" x1="1.79659" y1="1.38363" x2="15.1337" y2="-4.56664" gradientUnits="userSpaceOnUse">
      <stop offset="0.19741" stop-color="#FFDBA3"/>
      <stop offset="1" stop-color="#FFB032"/>
    </linearGradient>
    <linearGradient id="paint5_linear_46_15851" x1="7.36701" y1="1.13729" x2="16.6769" y2="-2.17747" gradientUnits="userSpaceOnUse">
      <stop offset="0.19741" stop-color="#FFDBA3"/>
      <stop offset="1" stop-color="#FFB032"/>
    </linearGradient>
    <linearGradient id="paint6_linear_46_15851" x1="6.60938" y1="31.834" x2="23.8338" y2="43.9175" gradientUnits="userSpaceOnUse">
      <stop stop-color="#102841"/>
      <stop offset="1" stop-color="#1359A1"/>
    </linearGradient>
  </defs>
</svg>