<svg width="1182" height="1005" viewBox="0 0 1182 1005" fill="none" xmlns="http://www.w3.org/2000/svg">
<g filter="url(#filter0_i_3246_71778)">
<path d="M304 25.3281C304 11.3398 292.66 3.3055e-05 278.672 7.38304e-05L27.3409 0.000806451C12.5171 0.000806451 0.5 10.4683 0.5 23.3806L0.523438 980.879C0.523438 993.791 12.5405 1004.26 27.3643 1004.26H1154.68C1169.51 1004.26 1181.52 993.791 1181.52 980.879L1181.5 23.3806C1181.5 10.4683 1169.48 0.000806451 1154.66 0.000806451L902.828 0.000806481C888.84 0.000806483 877.5 11.3406 877.5 25.3289C877.5 38.2412 865.481 48.7087 850.658 48.7087L330.841 48.7079C316.017 48.7079 304 38.2404 304 25.3281Z" fill="url(#paint0_linear_3246_71778)"/>
</g>
<path d="M278.672 3.00007C291.003 3.00004 301 12.9966 301 25.3281C301 40.2728 314.763 51.7079 330.841 51.7079L850.658 51.7087C866.736 51.7087 880.5 40.2738 880.5 25.3289C880.5 12.9974 890.497 3.00081 902.828 3.00081L1154.66 3.00081C1168.23 3.00081 1178.5 12.5007 1178.5 23.3806L1178.52 980.879C1178.52 991.759 1168.25 1001.26 1154.68 1001.26H27.3643C13.795 1001.26 3.52344 991.759 3.52344 980.879L3.5 23.3806C3.5 23.3805 3.5 23.3805 3.5 23.3805C3.50005 12.5006 13.7716 3.00081 27.3409 3.00081L278.672 3.00007Z" stroke="url(#paint1_linear_3246_71778)" stroke-width="6"/>
<defs>
<filter id="filter0_i_3246_71778" x="0.5" y="0" width="1181.02" height="1006.26" filterUnits="userSpaceOnUse" color-interpolation-filters="sRGB">
<feFlood flood-opacity="0" result="BackgroundImageFix"/>
<feBlend mode="normal" in="SourceGraphic" in2="BackgroundImageFix" result="shape"/>
<feColorMatrix in="SourceAlpha" type="matrix" values="0 0 0 0 0 0 0 0 0 0 0 0 0 0 0 0 0 0 127 0" result="hardAlpha"/>
<feOffset dy="2"/>
<feGaussianBlur stdDeviation="6"/>
<feComposite in2="hardAlpha" operator="arithmetic" k2="-1" k3="1"/>
<feColorMatrix type="matrix" values="0 0 0 0 0 0 0 0 0 0 0 0 0 0 0 0 0 0 0.5 0"/>
<feBlend mode="normal" in2="shape" result="effect1_innerShadow_3246_71778"/>
</filter>
<linearGradient id="paint0_linear_3246_71778" x1="0.5" y1="0" x2="1265.41" y2="120" gradientUnits="userSpaceOnUse">
<stop stop-color="#EEF8FF"/>
<stop offset="1" stop-color="#FFF5ED" stop-opacity="0.9"/>
</linearGradient>
<linearGradient id="paint1_linear_3246_71778" x1="0.500015" y1="238.511" x2="708.851" y2="-621.673" gradientUnits="userSpaceOnUse">
<stop offset="0.193888" stop-color="#FFF0D8"/>
<stop offset="0.948029" stop-color="#FFD797"/>
</linearGradient>
</defs>
</svg>
