<svg width="18" height="17" viewBox="0 0 18 17" fill="none" xmlns="http://www.w3.org/2000/svg">
<g clip-path="url(#clip0_4076_134709)">
<path d="M13.6002 16.5531H4.05834C3.16458 16.5531 2.4375 15.826 2.4375 14.9323V1.6228C2.43747 0.729067 3.16458 0.00195312 4.05834 0.00195312H13.6002C14.494 0.00195312 15.2211 0.729067 15.2211 1.6228V14.9323C15.2211 15.826 14.4939 16.5531 13.6002 16.5531Z" fill="url(#paint0_linear_4076_134709)"/>
<path d="M3.68074 1.73047C3.47555 1.73047 3.30859 1.89739 3.30859 2.10262V14.0966C3.30859 14.3018 3.47555 14.4688 3.68074 14.4688H13.9773C14.1825 14.4688 14.3494 14.3018 14.3494 14.0966V2.10262C14.3494 1.89739 14.1825 1.73047 13.9773 1.73047H3.68074Z" fill="url(#paint1_linear_4076_134709)"/>
<path d="M8.03995 1.29369C7.94319 1.19696 7.94164 1.03869 8.03995 0.940345C8.13654 0.843685 8.29556 0.842877 8.39297 0.940345C8.49089 1.0383 8.49011 1.19657 8.39297 1.29369C8.29534 1.39135 8.13638 1.39015 8.03995 1.29369ZM9.92853 1.36678H9.10834C9.04279 1.36572 8.98028 1.33894 8.93429 1.29221C8.88831 1.24548 8.86254 1.18255 8.86254 1.11698C8.86254 1.05142 8.88831 0.988486 8.93429 0.941755C8.98028 0.895024 9.04279 0.868242 9.10834 0.867188H9.92853C9.99478 0.867188 10.0583 0.893505 10.1052 0.940351C10.152 0.987197 10.1783 1.05073 10.1783 1.11698C10.1783 1.18323 10.152 1.24677 10.1052 1.29362C10.0583 1.34046 9.99478 1.36678 9.92853 1.36678ZM9.34026 15.2839C9.34026 15.5663 9.11132 15.7952 8.82897 15.7952C8.54659 15.7952 8.31767 15.5663 8.31767 15.2839C8.31767 15.0015 8.54662 14.7726 8.82897 14.7726C9.11132 14.7726 9.34026 15.0016 9.34026 15.2839Z" fill="url(#paint2_linear_4076_134709)"/>
<path d="M9.3457 12.518V11.0475H10.9889V12.518C10.9889 12.8403 10.6824 13.1016 10.3043 13.1016H10.0304C9.65224 13.1016 9.3457 12.8403 9.3457 12.518Z" fill="url(#paint3_linear_4076_134709)"/>
<path d="M6.88086 12.518V11.0475H8.52411V12.518C8.52411 12.8403 8.15626 13.1016 7.70248 13.1016C7.24871 13.1016 6.88086 12.8403 6.88086 12.518Z" fill="url(#paint4_linear_4076_134709)"/>
<path d="M11.9123 10.4316C11.5152 10.4316 11.1934 10.1098 11.1934 9.71272V7.55596H11.7685C12.245 7.55596 12.6312 7.9422 12.6312 8.41866V9.71272C12.6312 10.1098 12.3093 10.4316 11.9123 10.4316Z" fill="url(#paint5_linear_4076_134709)"/>
<path d="M5.03125 9.71272V8.41866C5.03125 7.9422 5.41749 7.55596 5.89395 7.55596H6.46909V9.71272C6.46909 10.1098 6.14723 10.4316 5.75017 10.4316C5.35312 10.4316 5.03125 10.1098 5.03125 9.71272Z" fill="url(#paint6_linear_4076_134709)"/>
<path d="M10.9205 11.0469H6.74131C6.59078 11.0469 6.46875 10.9234 6.46875 10.7712V7.55497H11.1931V10.7712C11.1931 10.9234 11.0711 11.0469 10.9205 11.0469Z" fill="url(#paint7_linear_4076_134709)"/>
<path d="M10.4701 5.0957C10.4111 5.0957 10.3515 5.07726 10.3007 5.03912C10.1757 4.94538 10.1504 4.7681 10.2441 4.64314L11.0562 3.56026C11.15 3.43532 11.3273 3.40999 11.4522 3.50369C11.5772 3.59742 11.6025 3.7747 11.5088 3.89966L10.6966 4.98255C10.6703 5.01773 10.6361 5.04629 10.5968 5.06593C10.5574 5.08557 10.5141 5.09577 10.4701 5.0957Z" fill="url(#paint8_linear_4076_134709)"/>
<path d="M7.19289 5.0957C7.14894 5.09577 7.10557 5.08558 7.06625 5.06594C7.02693 5.04629 6.99274 5.01774 6.9664 4.98255L6.15424 3.89966C6.06051 3.7747 6.08585 3.59742 6.21081 3.50369C6.3358 3.40998 6.51307 3.4353 6.60678 3.56026L7.41894 4.64314C7.51267 4.7681 7.48735 4.94538 7.36237 5.03912C7.31352 5.07587 7.25403 5.09573 7.19289 5.0957Z" fill="url(#paint9_linear_4076_134709)"/>
<path d="M11.0953 7.0293H6.56995C6.41374 7.0293 6.28711 6.90266 6.28711 6.74646V6.36934C6.28711 4.96574 7.42904 3.82381 8.83264 3.82381C10.2362 3.82381 11.3782 4.96574 11.3782 6.36934V6.74646C11.3782 6.90266 11.2515 7.0293 11.0953 7.0293Z" fill="url(#paint10_linear_4076_134709)"/>
<path d="M9.77466 5.3324C9.77466 5.4886 9.64802 5.61523 9.49182 5.61523C9.33562 5.61523 9.20898 5.4886 9.20898 5.3324C9.20898 5.1762 9.33562 5.04956 9.49182 5.04956C9.64802 5.04956 9.77466 5.1762 9.77466 5.3324Z" fill="url(#paint11_linear_4076_134709)"/>
<path d="M7.88867 5.3324C7.88867 5.4886 8.01531 5.61523 8.17151 5.61523C8.32771 5.61523 8.45435 5.4886 8.45435 5.3324C8.45435 5.1762 8.32771 5.04956 8.17151 5.04956C8.01531 5.04956 7.88867 5.1762 7.88867 5.3324Z" fill="url(#paint12_linear_4076_134709)"/>
</g>
<defs>
<linearGradient id="paint0_linear_4076_134709" x1="8.82955" y1="0.12146" x2="8.82955" y2="16.5318" gradientUnits="userSpaceOnUse">
<stop stop-color="#E0B181"/>
<stop offset="1" stop-color="#BE9367"/>
</linearGradient>
<linearGradient id="paint1_linear_4076_134709" x1="8.82925" y1="1.82244" x2="8.82925" y2="23.1768" gradientUnits="userSpaceOnUse">
<stop stop-color="#FFE5CB"/>
<stop offset="1" stop-color="#EEC093"/>
</linearGradient>
<linearGradient id="paint2_linear_4076_134709" x1="9.07261" y1="0.974974" x2="9.07261" y2="27.244" gradientUnits="userSpaceOnUse">
<stop stop-color="#FFE5CB"/>
<stop offset="1" stop-color="#FFE1C4"/>
</linearGradient>
<linearGradient id="paint3_linear_4076_134709" x1="10.1674" y1="13.0867" x2="10.1674" y2="11.0501" gradientUnits="userSpaceOnUse">
<stop stop-color="#E0B181"/>
<stop offset="1" stop-color="#BE9367"/>
</linearGradient>
<linearGradient id="paint4_linear_4076_134709" x1="7.70252" y1="13.0867" x2="7.70252" y2="11.0501" gradientUnits="userSpaceOnUse">
<stop stop-color="#E0B181"/>
<stop offset="1" stop-color="#BE9367"/>
</linearGradient>
<linearGradient id="paint5_linear_4076_134709" x1="11.9123" y1="10.4109" x2="11.9123" y2="7.55966" gradientUnits="userSpaceOnUse">
<stop stop-color="#E0B181"/>
<stop offset="1" stop-color="#BE9367"/>
</linearGradient>
<linearGradient id="paint6_linear_4076_134709" x1="5.7502" y1="10.4109" x2="5.7502" y2="7.55966" gradientUnits="userSpaceOnUse">
<stop stop-color="#E0B181"/>
<stop offset="1" stop-color="#BE9367"/>
</linearGradient>
<linearGradient id="paint7_linear_4076_134709" x1="8.83102" y1="11.0217" x2="8.83102" y2="7.55947" gradientUnits="userSpaceOnUse">
<stop stop-color="#E0B181"/>
<stop offset="1" stop-color="#BE9367"/>
</linearGradient>
<linearGradient id="paint8_linear_4076_134709" x1="10.8765" y1="5.0838" x2="10.8765" y2="3.44925" gradientUnits="userSpaceOnUse">
<stop stop-color="#E0B181"/>
<stop offset="1" stop-color="#BE9367"/>
</linearGradient>
<linearGradient id="paint9_linear_4076_134709" x1="6.78662" y1="5.0838" x2="6.78662" y2="3.44924" gradientUnits="userSpaceOnUse">
<stop stop-color="#E0B181"/>
<stop offset="1" stop-color="#BE9367"/>
</linearGradient>
<linearGradient id="paint10_linear_4076_134709" x1="8.83275" y1="7.00615" x2="8.83275" y2="3.82794" gradientUnits="userSpaceOnUse">
<stop stop-color="#E0B181"/>
<stop offset="1" stop-color="#BE9367"/>
</linearGradient>
<linearGradient id="paint11_linear_4076_134709" x1="9.49183" y1="5.61115" x2="9.49183" y2="5.05029" gradientUnits="userSpaceOnUse">
<stop stop-color="#FFE5CB"/>
<stop offset="1" stop-color="#EEC093"/>
</linearGradient>
<linearGradient id="paint12_linear_4076_134709" x1="8.17152" y1="5.61115" x2="8.17152" y2="5.05029" gradientUnits="userSpaceOnUse">
<stop stop-color="#FFE5CB"/>
<stop offset="1" stop-color="#EEC093"/>
</linearGradient>
<clipPath id="clip0_4076_134709">
<rect width="16.5517" height="16.5517" fill="white" transform="translate(0.556641)"/>
</clipPath>
</defs>
</svg>
