<svg width="14" height="15" viewBox="0 0 14 15" fill="none" xmlns="http://www.w3.org/2000/svg">
<path d="M5.25008 10.4167H8.75008M5.25008 8.66667H8.75008M7.58363 2.25051C7.52791 2.25 7.46522 2.25 7.39366 2.25H4.78353C4.13013 2.25 3.80319 2.25 3.55363 2.37716C3.33411 2.48901 3.15576 2.66736 3.04391 2.88688C2.91675 3.13645 2.91675 3.46339 2.91675 4.11678V10.8834C2.91675 11.5368 2.91675 11.8634 3.04391 12.1129C3.15576 12.3325 3.33411 12.5111 3.55363 12.623C3.80295 12.75 4.1295 12.75 4.78163 12.75L9.21855 12.75C9.87067 12.75 10.1967 12.75 10.4461 12.623C10.6656 12.5111 10.8445 12.3325 10.9564 12.1129C11.0834 11.8636 11.0834 11.5375 11.0834 10.8854V5.93998C11.0834 5.86843 11.0834 5.80573 11.0828 5.75M7.58363 2.25051C7.75015 2.25203 7.85508 2.25821 7.95569 2.28236C8.07473 2.31094 8.18883 2.35807 8.29321 2.42204C8.41091 2.49416 8.51197 2.59522 8.71362 2.79687L10.5368 4.62007C10.7386 4.82185 10.8389 4.92246 10.9111 5.0402C10.975 5.14458 11.0224 5.2584 11.0509 5.37744C11.0751 5.47804 11.0813 5.58348 11.0828 5.75M7.58363 2.25051L7.58341 3.88346C7.58341 4.53685 7.58341 4.86342 7.71057 5.11299C7.82243 5.33251 8.00077 5.51111 8.2203 5.62297C8.46961 5.75 8.79617 5.75 9.44828 5.75H11.0828" stroke="url(#paint0_linear_4310_38162)" stroke-width="1.4" stroke-linecap="round" stroke-linejoin="round"/>
<defs>
<linearGradient id="paint0_linear_4310_38162" x1="7.00026" y1="2.32581" x2="7.00026" y2="12.7365" gradientUnits="userSpaceOnUse">
<stop stop-color="#E0B181"/>
<stop offset="1" stop-color="#BE9367"/>
</linearGradient>
</defs>
</svg>
