<svg xmlns="http://www.w3.org/2000/svg" width="14" height="15" viewBox="0 0 14 15" fill="none">
  <path d="M8.71338 2.79687L10.5366 4.62007C10.7384 4.82185 10.8387 4.92246 10.9108 5.0402C10.9748 5.14458 11.0221 5.2584 11.0507 5.37744C11.0749 5.47804 11.0811 5.58348 11.0826 5.75C11.0831 5.80573 11.0832 5.86843 11.0832 5.93998V10.8854C11.0832 11.5375 11.0832 11.8636 10.9561 12.1129C10.8443 12.3325 10.6653 12.5111 10.4458 12.623C10.1965 12.75 9.87042 12.75 9.21831 12.75L4.78138 12.75C4.12926 12.75 3.80271 12.75 3.55339 12.623C3.33386 12.5111 3.15552 12.3325 3.04366 12.1129C2.9165 11.8634 2.9165 11.5368 2.9165 10.8834V4.11678C2.9165 3.46339 2.9165 3.13645 3.04366 2.88688C3.15552 2.66736 3.33386 2.48901 3.55339 2.37716C3.80295 2.25 4.12989 2.25 4.78328 2.25H7.39342C7.46497 2.25 7.52766 2.25 7.58339 2.25051C7.74991 2.25203 7.85484 2.25821 7.95544 2.28236C8.07448 2.31094 8.18858 2.35807 8.29297 2.42204C8.41067 2.49416 8.51173 2.59522 8.71338 2.79687Z" fill="url(#paint0_linear_5673_30052)"/>
  <path d="M5.24984 10.4167H8.74984M5.24984 8.66667H8.74984M7.58339 2.25051C7.52766 2.25 7.46497 2.25 7.39342 2.25H4.78328C4.12989 2.25 3.80295 2.25 3.55339 2.37716C3.33386 2.48901 3.15552 2.66736 3.04366 2.88688C2.9165 3.13645 2.9165 3.46339 2.9165 4.11678V10.8834C2.9165 11.5368 2.9165 11.8634 3.04366 12.1129C3.15552 12.3325 3.33386 12.5111 3.55339 12.623C3.80271 12.75 4.12926 12.75 4.78138 12.75L9.21831 12.75C9.87042 12.75 10.1965 12.75 10.4458 12.623C10.6653 12.5111 10.8443 12.3325 10.9561 12.1129C11.0832 11.8636 11.0832 11.5375 11.0832 10.8854V5.93998C11.0832 5.86843 11.0831 5.80573 11.0826 5.75M7.58339 2.25051C7.74991 2.25203 7.85484 2.25821 7.95544 2.28236C8.07448 2.31094 8.18858 2.35807 8.29297 2.42204C8.41067 2.49416 8.51173 2.59522 8.71338 2.79687L10.5366 4.62007C10.7384 4.82185 10.8387 4.92246 10.9108 5.0402C10.9748 5.14458 11.0221 5.2584 11.0507 5.37744C11.0749 5.47804 11.0811 5.58348 11.0826 5.75M7.58339 2.25051L7.58317 3.88346C7.58317 4.53685 7.58317 4.86342 7.71033 5.11299C7.82218 5.33251 8.00053 5.51111 8.22005 5.62297C8.46937 5.75 8.79593 5.75 9.44804 5.75H11.0826" stroke="url(#paint1_linear_5673_30052)" stroke-width="1.5" stroke-linecap="round" stroke-linejoin="round"/>
  <defs>
    <linearGradient id="paint0_linear_5673_30052" x1="2.9165" y1="4.74375" x2="10.285" y2="-1.17408" gradientUnits="userSpaceOnUse">
      <stop offset="0.193888" stop-color="#FFF0D8"/>
      <stop offset="0.948029" stop-color="#FFD797"/>
    </linearGradient>
    <linearGradient id="paint1_linear_5673_30052" x1="2.9165" y1="4.74375" x2="10.285" y2="-1.17408" gradientUnits="userSpaceOnUse">
      <stop offset="0.193888" stop-color="#FFF0D8"/>
      <stop offset="0.948029" stop-color="#FFD797"/>
    </linearGradient>
  </defs>
</svg>