<svg width="18" height="15" viewBox="0 0 18 15" fill="none" xmlns="http://www.w3.org/2000/svg">
<path d="M3.93777 3.73741V1.37245C3.93777 1.17215 3.77539 1.00977 3.57509 1.00977H2.36659C2.16629 1.00977 2.00391 1.17215 2.00391 1.37245V3.73741" fill="url(#paint0_linear_4076_134774)"/>
<path d="M17.2216 4.16845V13.0169C17.2216 13.6235 16.7298 14.1154 16.1232 14.1154H1.76841C1.16175 14.1154 0.669922 13.6235 0.669922 13.0169V4.16845C0.669922 3.56179 1.16175 3.06995 1.76841 3.06995H3.9405C4.40835 3.06995 4.82518 2.7737 4.97854 2.33156L5.3795 1.1743C5.4543 0.958555 5.59446 0.771479 5.7805 0.639081C5.96653 0.506682 6.1892 0.43554 6.41754 0.435547H12.8253C13.2932 0.435547 13.7096 0.73212 13.863 1.1743L14.2643 2.33156C14.3391 2.54721 14.4792 2.73421 14.6652 2.86655C14.8511 2.99888 15.0737 3.06998 15.302 3.06995H16.1231C16.7298 3.06995 17.2216 3.56179 17.2216 4.16845Z" fill="url(#paint1_linear_4076_134774)"/>
<path d="M17.2216 6.06055V13.018C17.2216 13.6247 16.7298 14.1165 16.1232 14.1165H1.76841C1.16175 14.1165 0.669922 13.6247 0.669922 13.018V6.06055H17.2216Z" fill="url(#paint2_linear_4076_134774)"/>
<path d="M8.94622 12.9387C11.432 12.9387 13.4471 10.956 13.4471 8.51034C13.4471 6.06465 11.432 4.08203 8.94622 4.08203C6.46044 4.08203 4.44531 6.06465 4.44531 8.51034C4.44531 10.956 6.46044 12.9387 8.94622 12.9387Z" fill="url(#paint3_linear_4076_134774)"/>
<path d="M8.94493 13.0832C6.38308 13.0832 4.29883 10.999 4.29883 8.43712C4.29883 5.87527 6.38308 3.79102 8.94493 3.79102C11.5068 3.79102 13.591 5.87522 13.591 8.43712C13.591 10.999 11.5068 13.0832 8.94493 13.0832ZM8.94493 4.46562C6.75505 4.46562 4.97343 6.24724 4.97343 8.43712C4.97343 10.627 6.75505 12.4086 8.94493 12.4086C11.1348 12.4086 12.9164 10.627 12.9164 8.43712C12.9164 6.24724 11.1348 4.46562 8.94493 4.46562Z" fill="url(#paint4_linear_4076_134774)"/>
<path d="M8.94557 7.20898C8.22925 7.20898 7.64648 7.79175 7.64648 8.5081C7.64648 9.22445 8.22925 9.80719 8.94557 9.80719C9.66188 9.80719 10.2447 9.22442 10.2447 8.5081C10.2447 7.79179 9.66188 7.20898 8.94557 7.20898Z" fill="url(#paint5_linear_4076_134774)"/>
<path d="M10.5892 2.81701H12.58C12.8417 2.81701 13.0539 2.60484 13.0539 2.34309V1.82158C13.0539 1.55985 12.8417 1.34766 12.58 1.34766H10.5892C10.3274 1.34766 10.1152 1.55982 10.1152 1.82158V2.34309C10.1152 2.60481 10.3274 2.81701 10.5892 2.81701Z" fill="url(#paint6_linear_4076_134774)"/>
<path d="M12.5794 3.06974H10.5886C10.1876 3.06974 9.86133 2.74349 9.86133 2.34247V1.82102C9.86133 1.42 10.1876 1.09375 10.5886 1.09375H12.5794C12.9805 1.09375 13.3067 1.42 13.3067 1.82102V2.3425C13.3067 2.74352 12.9804 3.06974 12.5794 3.06974ZM10.5886 1.60042C10.5301 1.60048 10.4741 1.62374 10.4327 1.66509C10.3913 1.70644 10.3681 1.76251 10.368 1.82099V2.34247C10.3681 2.40095 10.3913 2.45702 10.4327 2.49837C10.4741 2.53972 10.5301 2.56298 10.5886 2.56304H12.5794C12.6379 2.56298 12.694 2.53972 12.7353 2.49837C12.7767 2.45702 12.7999 2.40095 12.8 2.34247V1.82102C12.7999 1.76254 12.7767 1.70647 12.7353 1.66512C12.694 1.62377 12.6379 1.60051 12.5794 1.60045L10.5886 1.60042Z" fill="url(#paint7_linear_4076_134774)"/>
<path d="M3.81649 13.1779C4.32244 13.1779 4.73259 12.7678 4.73259 12.2618C4.73259 11.7559 4.32244 11.3457 3.81649 11.3457C3.31054 11.3457 2.90039 11.7559 2.90039 12.2618C2.90039 12.7678 3.31054 13.1779 3.81649 13.1779Z" fill="url(#paint8_linear_4076_134774)"/>
<defs>
<linearGradient id="paint0_linear_4076_134774" x1="-1.52398" y1="-4.01199" x2="5.3607" y2="4.62165" gradientUnits="userSpaceOnUse">
<stop offset="0.402843" stop-color="#F6BB91" stop-opacity="0.549561"/>
<stop offset="0.907674" stop-color="white"/>
</linearGradient>
<linearGradient id="paint1_linear_4076_134774" x1="8.94614" y1="0.534321" x2="8.94614" y2="14.0977" gradientUnits="userSpaceOnUse">
<stop stop-color="#E0B181"/>
<stop offset="1" stop-color="#BE9367"/>
</linearGradient>
<linearGradient id="paint2_linear_4076_134774" x1="8.94614" y1="6.11871" x2="8.94614" y2="14.1061" gradientUnits="userSpaceOnUse">
<stop stop-color="#E0B181"/>
<stop offset="1" stop-color="#BE9367"/>
</linearGradient>
<linearGradient id="paint3_linear_4076_134774" x1="-11.9764" y1="-12.2236" x2="7.50502" y2="22.7994" gradientUnits="userSpaceOnUse">
<stop offset="0.402843" stop-color="#F6BB91" stop-opacity="0.549561"/>
<stop offset="0.907674" stop-color="white"/>
</linearGradient>
<linearGradient id="paint4_linear_4076_134774" x1="-12.6526" y1="-13.3165" x2="7.96097" y2="23.1441" gradientUnits="userSpaceOnUse">
<stop offset="0.402843" stop-color="#F6BB91" stop-opacity="0.549561"/>
<stop offset="0.907674" stop-color="white"/>
</linearGradient>
<linearGradient id="paint5_linear_4076_134774" x1="8.94562" y1="7.22774" x2="8.94562" y2="9.80384" gradientUnits="userSpaceOnUse">
<stop stop-color="#E0B181"/>
<stop offset="1" stop-color="#BE9367"/>
</linearGradient>
<linearGradient id="paint6_linear_4076_134774" x1="11.5846" y1="1.35827" x2="11.5846" y2="2.81512" gradientUnits="userSpaceOnUse">
<stop stop-color="#E0B181"/>
<stop offset="1" stop-color="#BE9367"/>
</linearGradient>
<linearGradient id="paint7_linear_4076_134774" x1="3.57604" y1="-2.54417" x2="6.57802" y2="6.71408" gradientUnits="userSpaceOnUse">
<stop offset="0.402843" stop-color="#F6BB91" stop-opacity="0.549561"/>
<stop offset="0.907674" stop-color="white"/>
</linearGradient>
<linearGradient id="paint8_linear_4076_134774" x1="-0.442025" y1="7.97251" x2="3.62248" y2="15.1617" gradientUnits="userSpaceOnUse">
<stop offset="0.402843" stop-color="#F6BB91" stop-opacity="0.549561"/>
<stop offset="0.907674" stop-color="white"/>
</linearGradient>
</defs>
</svg>
