<svg width="17" height="17" viewBox="0 0 17 17" fill="none" xmlns="http://www.w3.org/2000/svg">
<g clip-path="url(#clip0_4076_134732)">
<path d="M11.6864 15.2693H5.53715C5.47323 15.2693 5.4484 15.1817 5.50177 15.1446L6.01687 14.7813C6.57249 14.3895 6.83532 13.6709 6.67323 12.9863H10.5509V12.9869C10.3888 13.6718 10.6519 14.3901 11.2078 14.7819L11.7224 15.1446C11.7752 15.182 11.75 15.2693 11.6864 15.2693Z" fill="url(#paint0_linear_4076_134732)"/>
<path d="M15.8894 12.9862H1.33418C1.06943 12.9862 0.815522 12.881 0.628315 12.6938C0.441109 12.5066 0.335938 12.2527 0.335938 11.9879V1.42793C0.335937 1.16318 0.441109 0.909272 0.628315 0.722065C0.815522 0.534859 1.06943 0.429688 1.33418 0.429688H15.8891C16.0203 0.42965 16.1501 0.455443 16.2712 0.505592C16.3924 0.555742 16.5025 0.629266 16.5952 0.721964C16.6879 0.814663 16.7615 0.924721 16.8116 1.04585C16.8618 1.16698 16.8877 1.29681 16.8877 1.42793V11.9876C16.8877 12.1188 16.8619 12.2486 16.8118 12.3697C16.7616 12.4909 16.6881 12.601 16.5954 12.6937C16.5027 12.7864 16.3926 12.86 16.2715 12.9102C16.1504 12.9603 16.0205 12.9862 15.8894 12.9862Z" fill="url(#paint1_linear_4076_134732)"/>
<path d="M16.8877 10.4178H0.335938V1.42793C0.335937 1.16318 0.441109 0.909272 0.628315 0.722065C0.815522 0.534859 1.06943 0.429688 1.33418 0.429688H15.8891C16.0203 0.42965 16.1501 0.455443 16.2712 0.505592C16.3924 0.555742 16.5025 0.629266 16.5952 0.721964C16.6879 0.814663 16.7615 0.924721 16.8116 1.04585C16.8618 1.16698 16.8877 1.29681 16.8877 1.42793V10.4178Z" fill="url(#paint2_linear_4076_134732)"/>
<path d="M11.894 16.1257H5.33041C5.09497 16.1257 4.90234 15.933 4.90234 15.6976C4.90234 15.4622 5.09497 15.2695 5.33041 15.2695H11.894C12.1295 15.2695 12.3221 15.4622 12.3221 15.6976C12.3221 15.933 12.1295 16.1257 11.894 16.1257Z" fill="url(#paint3_linear_4076_134732)"/>
</g>
<defs>
<linearGradient id="paint0_linear_4076_134732" x1="-5.98065" y1="8.78319" x2="-4.14723" y2="23.9488" gradientUnits="userSpaceOnUse">
<stop offset="0.312591" stop-color="#F6BB91" stop-opacity="0.549561"/>
<stop offset="0.792486" stop-color="#B48B61"/>
</linearGradient>
<linearGradient id="paint1_linear_4076_134732" x1="8.61216" y1="0.520351" x2="8.61216" y2="12.97" gradientUnits="userSpaceOnUse">
<stop stop-color="#E0B181"/>
<stop offset="1" stop-color="#BE9367"/>
</linearGradient>
<linearGradient id="paint2_linear_4076_134732" x1="-29.8588" y1="-17.959" x2="-13.6519" y2="27.781" gradientUnits="userSpaceOnUse">
<stop offset="0.565205" stop-color="#F6BB91" stop-opacity="0.549561"/>
<stop offset="0.907674" stop-color="white"/>
</linearGradient>
<linearGradient id="paint3_linear_4076_134732" x1="8.61237" y1="15.2757" x2="8.61237" y2="16.1246" gradientUnits="userSpaceOnUse">
<stop stop-color="#E0B181"/>
<stop offset="1" stop-color="#BE9367"/>
</linearGradient>
<clipPath id="clip0_4076_134732">
<rect width="16.5517" height="16.5517" fill="white" transform="translate(0.335938)"/>
</clipPath>
</defs>
</svg>
