<svg xmlns="http://www.w3.org/2000/svg" width="14" height="15" viewBox="0 0 14 15" fill="none">
  <path d="M1.75 10.2997V3.99967C1.75 3.35534 2.27233 2.83301 2.91667 2.83301H5.06013C5.34549 2.83301 5.48867 2.83301 5.62294 2.86524C5.74198 2.89382 5.85541 2.94108 5.9598 3.00505C6.0775 3.07717 6.17856 3.17824 6.38021 3.37988L7 3.99967H10.3833C11.0367 3.99967 11.3631 3.99967 11.6126 4.12683C11.8322 4.23869 12.0111 4.41703 12.123 4.63656C12.2501 4.88612 12.2501 5.21282 12.2501 5.86621L12.2501 10.2996C12.2501 10.953 12.2501 11.2797 12.123 11.5292C12.0111 11.7487 11.8325 11.9275 11.613 12.0393C11.3637 12.1663 11.0376 12.1663 10.3855 12.1663H3.61486C2.96275 12.1663 2.6362 12.1663 2.38688 12.0393C2.16736 11.9275 1.98901 11.7485 1.87716 11.529C1.75 11.2794 1.75 10.9531 1.75 10.2997Z" fill="url(#paint0_linear_5673_42060)"/>
  <path d="M5.25 9.24967H8.75M5.25 7.49967H8.75M1.75 3.99967V10.2997C1.75 10.9531 1.75 11.2794 1.87716 11.529C1.98901 11.7485 2.16736 11.9275 2.38688 12.0393C2.6362 12.1663 2.96275 12.1663 3.61486 12.1663H10.3855C11.0376 12.1663 11.3637 12.1663 11.613 12.0393C11.8325 11.9275 12.0111 11.7487 12.123 11.5292C12.2501 11.2797 12.2501 10.953 12.2501 10.2996L12.2501 5.86621C12.2501 5.21282 12.2501 4.88612 12.123 4.63656C12.0111 4.41703 11.8322 4.23869 11.6126 4.12683C11.3631 3.99967 11.0367 3.99967 10.3833 3.99967H7M1.75 3.99967H7M1.75 3.99967C1.75 3.35534 2.27233 2.83301 2.91667 2.83301H5.06013C5.34549 2.83301 5.48867 2.83301 5.62294 2.86524C5.74198 2.89382 5.85541 2.94108 5.9598 3.00505C6.0775 3.07717 6.17856 3.17824 6.38021 3.37988L7 3.99967" stroke="url(#paint1_linear_5673_42060)" stroke-width="1.5" stroke-linecap="round" stroke-linejoin="round"/>
  <defs>
    <linearGradient id="paint0_linear_5673_42060" x1="1.75" y1="5.04967" x2="8.38315" y2="-2.65594" gradientUnits="userSpaceOnUse">
      <stop offset="0.193888" stop-color="#FFF0D8"/>
      <stop offset="0.948029" stop-color="#FFD797"/>
    </linearGradient>
    <linearGradient id="paint1_linear_5673_42060" x1="1.75" y1="5.04967" x2="8.38315" y2="-2.65594" gradientUnits="userSpaceOnUse">
      <stop offset="0.193888" stop-color="#FFF0D8"/>
      <stop offset="0.948029" stop-color="#FFD797"/>
    </linearGradient>
  </defs>
</svg>