<svg width="14" height="15" viewBox="0 0 14 15" fill="none" xmlns="http://www.w3.org/2000/svg">
<g id="File / Folder_Document">
<path id="Vector" d="M5.25 9.24967H8.75M5.25 7.49967H8.75M1.75 3.99967V10.2997C1.75 10.9531 1.75 11.2794 1.87716 11.529C1.98901 11.7485 2.16736 11.9275 2.38688 12.0393C2.6362 12.1663 2.96275 12.1663 3.61486 12.1663H10.3855C11.0376 12.1663 11.3637 12.1663 11.613 12.0393C11.8325 11.9275 12.0111 11.7487 12.123 11.5292C12.2501 11.2797 12.2501 10.953 12.2501 10.2996L12.2501 5.86621C12.2501 5.21282 12.2501 4.88612 12.123 4.63656C12.0111 4.41703 11.8322 4.23869 11.6126 4.12683C11.3631 3.99967 11.0367 3.99967 10.3833 3.99967H7M1.75 3.99967H7M1.75 3.99967C1.75 3.35534 2.27233 2.83301 2.91667 2.83301H5.06013C5.34549 2.83301 5.48867 2.83301 5.62294 2.86524C5.74198 2.89382 5.85541 2.94108 5.9598 3.00505C6.0775 3.07717 6.17856 3.17824 6.38021 3.37988L7 3.99967" stroke="url(#paint0_linear_4310_38174)" stroke-width="1.5" stroke-linecap="round" stroke-linejoin="round"/>
</g>
<defs>
<linearGradient id="paint0_linear_4310_38174" x1="7.00029" y1="2.9004" x2="7.00029" y2="12.1543" gradientUnits="userSpaceOnUse">
<stop stop-color="#E0B181"/>
<stop offset="1" stop-color="#BE9367"/>
</linearGradient>
</defs>
</svg>
