<svg width="18" height="17" viewBox="0 0 18 17" fill="none" xmlns="http://www.w3.org/2000/svg">
<g clip-path="url(#clip0_4076_134757)">
<path d="M14.761 11.13C14.099 11.13 13.5623 10.5933 13.5623 9.93126V7.16036C13.5623 5.13611 11.9155 3.48931 9.89125 3.48931H8.44158C6.41733 3.48931 4.77053 5.13614 4.77053 7.16036V9.93126C4.77053 10.5933 4.23382 11.13 3.57179 11.13C2.90975 11.13 2.37305 10.5933 2.37305 9.93126V7.16036C2.37305 3.81414 5.09539 1.0918 8.44162 1.0918H9.89128C13.2375 1.0918 15.9598 3.81414 15.9598 7.16036V9.93126C15.9598 10.5933 15.4231 11.13 14.761 11.13Z" fill="url(#paint0_linear_4076_134757)"/>
<path d="M4.58922 8.75586H3.2067C1.92756 8.75586 0.890625 9.7928 0.890625 11.0719V13.069C0.890625 14.3481 1.92756 15.3851 3.2067 15.3851H4.58926L4.58922 8.75586Z" fill="url(#paint1_linear_4076_134757)"/>
<path d="M5.13155 8.38477C4.09309 8.75579 4.44064 10.5719 4.44064 12.071C4.44064 13.5699 4.5899 15.385 5.76669 15.6195C6.70652 15.2798 7.37832 14.3798 7.37832 13.3227V10.8181C7.37835 9.53524 6.38883 8.48424 5.13155 8.38477Z" fill="url(#paint2_linear_4076_134757)"/>
<path d="M4.93591 8.37695C3.58736 8.37695 2.49414 9.47018 2.49414 10.8187V13.3234C2.49414 14.6719 3.58736 15.7651 4.93591 15.7651C5.21894 15.7654 5.49986 15.7163 5.76605 15.6201C5.23895 15.2745 5.14445 14.2916 5.33632 13.9825L5.12499 10.1009C4.91557 9.83913 4.77534 8.87758 5.13088 8.38539C5.06602 8.38002 5.00098 8.3772 4.93591 8.37695Z" fill="url(#paint3_linear_4076_134757)"/>
<path d="M4.93526 14.1662C4.46942 14.1662 4.0918 13.7886 4.0918 13.3227V10.8181C4.0918 10.3523 4.46942 9.97461 4.93522 9.97461C5.40103 9.97461 5.77865 10.3522 5.77865 10.8181V13.3227C5.77871 13.7886 5.4011 14.1662 4.93526 14.1662Z" fill="url(#paint4_linear_4076_134757)"/>
<path d="M13.7441 8.75586H15.1267C16.4058 8.75586 17.4427 9.7928 17.4427 11.0719V13.069C17.4427 14.3481 16.4058 15.3851 15.1267 15.3851H13.7441V8.75586Z" fill="url(#paint5_linear_4076_134757)"/>
<path d="M15.8386 13.3234V10.8187C15.8386 9.47018 14.7454 8.37695 13.3968 8.37695C12.0483 8.37695 10.9551 9.47018 10.9551 10.8187V13.3234C10.9551 14.6719 12.0483 15.7651 13.3968 15.7651C14.7454 15.7651 15.8386 14.6719 15.8386 13.3234Z" fill="url(#paint6_linear_4076_134757)"/>
<path d="M13.3962 14.1662C13.862 14.1662 14.2396 13.7886 14.2396 13.3227V10.8181C14.2396 10.3523 13.862 9.97461 13.3962 9.97461C12.9304 9.97461 12.5527 10.3522 12.5527 10.8181V13.3227C12.5527 13.7886 12.9303 14.1662 13.3962 14.1662Z" fill="url(#paint7_linear_4076_134757)"/>
</g>
<defs>
<linearGradient id="paint0_linear_4076_134757" x1="9.16674" y1="1.16428" x2="9.16674" y2="11.1171" gradientUnits="userSpaceOnUse">
<stop stop-color="#E0B181"/>
<stop offset="1" stop-color="#FFE8D0"/>
</linearGradient>
<linearGradient id="paint1_linear_4076_134757" x1="2.74002" y1="8.80373" x2="2.74002" y2="15.3765" gradientUnits="userSpaceOnUse">
<stop stop-color="#FFD7AE"/>
<stop offset="1" stop-color="#BE9367"/>
</linearGradient>
<linearGradient id="paint2_linear_4076_134757" x1="5.88161" y1="8.437" x2="5.88161" y2="15.6102" gradientUnits="userSpaceOnUse">
<stop stop-color="#E0B181"/>
<stop offset="1" stop-color="#BE9367"/>
</linearGradient>
<linearGradient id="paint3_linear_4076_134757" x1="4.13016" y1="8.4303" x2="4.13016" y2="15.7556" gradientUnits="userSpaceOnUse">
<stop stop-color="#E0B181"/>
<stop offset="1" stop-color="#BE9367"/>
</linearGradient>
<linearGradient id="paint4_linear_4076_134757" x1="1.01453" y1="2.25768" x2="11.2683" y2="9.55654" gradientUnits="userSpaceOnUse">
<stop offset="0.402843" stop-color="#F6BB91" stop-opacity="0.549561"/>
<stop offset="0.907674" stop-color="white"/>
</linearGradient>
<linearGradient id="paint5_linear_4076_134757" x1="15.5935" y1="8.80373" x2="15.5935" y2="15.3765" gradientUnits="userSpaceOnUse">
<stop stop-color="#FFD7AE"/>
<stop offset="1" stop-color="#BE9367"/>
</linearGradient>
<linearGradient id="paint6_linear_4076_134757" x1="13.397" y1="8.4303" x2="13.397" y2="15.7556" gradientUnits="userSpaceOnUse">
<stop stop-color="#E0B181"/>
<stop offset="1" stop-color="#BE9367"/>
</linearGradient>
<linearGradient id="paint7_linear_4076_134757" x1="9.47541" y1="2.25768" x2="19.7292" y2="9.55673" gradientUnits="userSpaceOnUse">
<stop offset="0.402843" stop-color="#F6BB91" stop-opacity="0.549561"/>
<stop offset="0.907674" stop-color="white"/>
</linearGradient>
<clipPath id="clip0_4076_134757">
<rect width="16.5517" height="16.5517" fill="white" transform="translate(0.890625)"/>
</clipPath>
</defs>
</svg>
