<svg width="18" height="17" viewBox="0 0 18 17" fill="none" xmlns="http://www.w3.org/2000/svg">
<g clip-path="url(#clip0_4076_134697)">
<path d="M12.399 16.5512H2.85717C1.96341 16.5512 1.23633 15.8241 1.23633 14.9303V1.62084C1.2363 0.727114 1.96341 0 2.85717 0H12.399C13.2928 0 14.0199 0.727114 14.0199 1.62084V14.9303C14.0199 15.8241 13.2928 16.5512 12.399 16.5512Z" fill="url(#paint0_linear_4076_134697)"/>
<path d="M2.85659 2.19336C2.66644 2.19336 2.51172 2.34805 2.51172 2.53823V13.6531C2.51172 13.8433 2.66644 13.998 2.85659 13.998H12.3985C12.5886 13.998 12.7433 13.8433 12.7433 13.6531V2.53823C12.7433 2.34805 12.5886 2.19336 12.3985 2.19336H2.85659Z" fill="url(#paint1_linear_4076_134697)"/>
<path d="M6.83878 1.29173C6.74202 1.19501 6.74047 1.03673 6.83878 0.938392C6.93537 0.841732 7.09439 0.840924 7.19179 0.938392C7.28971 1.03634 7.28894 1.19462 7.19179 1.29173C7.09416 1.38939 6.93521 1.3882 6.83878 1.29173ZM8.72736 1.36483H7.90717C7.84162 1.36377 7.77911 1.33699 7.73312 1.29026C7.68714 1.24353 7.66136 1.18059 7.66136 1.11503C7.66136 1.04947 7.68714 0.986533 7.73312 0.939802C7.77911 0.893071 7.84162 0.866289 7.90717 0.865234H8.72736C8.79361 0.865234 8.85714 0.891552 8.90399 0.938398C8.95084 0.985244 8.97715 1.04878 8.97715 1.11503C8.97715 1.18128 8.95084 1.24482 8.90399 1.29166C8.85714 1.33851 8.79361 1.36483 8.72736 1.36483ZM8.13909 15.2819C8.13909 15.5644 7.91015 15.7932 7.6278 15.7932C7.34541 15.7932 7.1165 15.5643 7.1165 15.2819C7.1165 14.9996 7.34545 14.7706 7.6278 14.7706C7.91015 14.7706 8.13909 14.9996 8.13909 15.2819Z" fill="url(#paint2_linear_4076_134697)"/>
<path d="M16.3909 0.305055C16.1731 -0.291649 15.9736 0.149171 15.9252 0.274376L15.4336 1.62124V15.8321C15.4336 16.2292 15.7554 16.551 16.1525 16.551C16.5494 16.551 16.8713 16.2292 16.8713 15.8321V1.62124L16.3909 0.305055Z" fill="url(#paint3_linear_4076_134697)"/>
<path d="M15.4336 13.1133H16.8712V14.4717H15.4336V13.1133Z" fill="url(#paint4_linear_4076_134697)"/>
</g>
<defs>
<linearGradient id="paint0_linear_4076_134697" x1="7.62838" y1="0.119507" x2="7.62838" y2="16.5299" gradientUnits="userSpaceOnUse">
<stop stop-color="#E0B181"/>
<stop offset="1" stop-color="#BE9367"/>
</linearGradient>
<linearGradient id="paint1_linear_4076_134697" x1="7.62774" y1="2.27859" x2="7.62774" y2="22.0678" gradientUnits="userSpaceOnUse">
<stop stop-color="#FFE5CB"/>
<stop offset="1" stop-color="#EEC093"/>
</linearGradient>
<linearGradient id="paint2_linear_4076_134697" x1="7.87144" y1="0.973021" x2="7.87144" y2="15.774" gradientUnits="userSpaceOnUse">
<stop stop-color="#FFE5CB"/>
<stop offset="1" stop-color="#EEC093"/>
</linearGradient>
<linearGradient id="paint3_linear_4076_134697" x1="16.1525" y1="0.119506" x2="16.1525" y2="16.5297" gradientUnits="userSpaceOnUse">
<stop stop-color="#E0B181"/>
<stop offset="1" stop-color="#BE9367"/>
</linearGradient>
<linearGradient id="paint4_linear_4076_134697" x1="16.1524" y1="13.1231" x2="16.1524" y2="14.4699" gradientUnits="userSpaceOnUse">
<stop stop-color="#FFE5CB"/>
<stop offset="1" stop-color="#EEC093"/>
</linearGradient>
<clipPath id="clip0_4076_134697">
<rect width="16.5517" height="16.5517" fill="white" transform="translate(0.777344)"/>
</clipPath>
</defs>
</svg>
