<svg width="14" height="15" viewBox="0 0 14 15" fill="none" xmlns="http://www.w3.org/2000/svg">
<g id="Interface / Log_Out">
<path id="Vector" d="M6.99992 9.24968L8.74992 7.49967M8.74992 7.49967L6.99992 5.74967M8.74992 7.49967H2.33325M5.24992 4.72802V4.69979C5.24992 4.04639 5.24992 3.71945 5.37708 3.46989C5.48893 3.25037 5.66728 3.07202 5.8868 2.96017C6.13636 2.83301 6.46331 2.83301 7.1167 2.83301H9.80003C10.4534 2.83301 10.7797 2.83301 11.0292 2.96017C11.2488 3.07202 11.4277 3.25037 11.5396 3.46989C11.6666 3.71921 11.6666 4.04575 11.6666 4.69787V10.3018C11.6666 10.9539 11.6666 11.28 11.5396 11.5293C11.4277 11.7488 11.2488 11.9275 11.0292 12.0393C10.7799 12.1663 10.4538 12.1663 9.80172 12.1663H7.11478C6.46267 12.1663 6.13612 12.1663 5.8868 12.0393C5.66728 11.9275 5.48893 11.7486 5.37708 11.5291C5.24992 11.2795 5.24992 10.9531 5.24992 10.2997V10.2705" stroke="url(#paint0_linear_4310_38182)" stroke-width="1.5" stroke-linecap="round" stroke-linejoin="round"/>
</g>
<defs>
<linearGradient id="paint0_linear_4310_38182" x1="7.00012" y1="2.9004" x2="7.00012" y2="12.1543" gradientUnits="userSpaceOnUse">
<stop stop-color="#E0B181"/>
<stop offset="1" stop-color="#BE9367"/>
</linearGradient>
</defs>
</svg>
