<svg width="212" height="43" viewBox="0 0 212 43" fill="none" xmlns="http://www.w3.org/2000/svg">
<path d="M13 0L14.6758 2.38038V30.8063H11.3242V2.38038L13 0ZM22.6484 35.6479L26 30.8872V22.7176L22.6484 17.9569V35.6479ZM3.35156 17.9453L0 22.7061V30.8756L3.35156 35.6364V17.9453ZM16.9914 42.1189L20.343 37.2888V9.96062L16.9914 5.19986V42.1189ZM9.01875 5.18831L5.66719 9.94907V37.2772L9.01875 42.1189V5.18831Z" fill="#ECECEC"/>
<path d="M60.6874 19.5962L59.2679 19.0523C58.2329 18.6478 57.7302 18.1317 57.7302 17.4762C57.7302 17.002 57.9224 16.6115 58.3216 16.3046C58.7208 15.9839 59.2088 15.8304 59.8002 15.8304C60.2882 15.8304 60.6726 15.9281 60.9832 16.1094C61.2789 16.2768 61.5894 16.6115 61.9147 17.1554L63.6447 16.1791C62.7279 14.6728 61.4415 13.9336 59.815 13.9336C58.6025 13.9336 57.5971 14.2683 56.7838 14.9518C55.9706 15.6212 55.5566 16.472 55.5566 17.4762C55.5566 18.9686 56.5325 20.0983 58.4695 20.8654L59.8446 21.4094C60.1995 21.5489 60.51 21.7023 60.7613 21.8696C61.0127 22.0231 61.2345 22.1904 61.3972 22.3857C61.5598 22.567 61.6781 22.7623 61.752 22.9854C61.826 23.2086 61.8703 23.4457 61.8703 23.6967C61.8703 24.3383 61.6485 24.8823 61.2049 25.3007C60.7613 25.7191 60.2143 25.9283 59.5489 25.9283C58.7061 25.9283 58.0555 25.6354 57.6266 25.0636C57.3753 24.7568 57.2126 24.2267 57.1091 23.4317L54.9355 23.8781C55.1278 25.1194 55.6305 26.0957 56.4142 26.7791C57.2126 27.4625 58.2329 27.8112 59.4602 27.8112C60.7614 27.8112 61.8408 27.4067 62.7132 26.5978C63.5855 25.8028 64.0144 24.7846 64.0144 23.5433C64.0144 22.6228 63.7482 21.8557 63.2159 21.2141C62.6688 20.5725 61.826 20.0425 60.6874 19.5962Z" fill="#ECECEC"/>
<path d="M69.1309 15.8187H72.3838V27.7995H74.5279V15.8187H77.7809V13.9219H69.1309V15.8187Z" fill="#ECECEC"/>
<path d="M90.5241 20.2819C91.1007 19.5985 91.3817 18.7895 91.3817 17.8411C91.3817 16.6277 90.9233 15.6513 90.0065 14.9121C89.1785 14.2427 87.8182 13.9219 85.9551 13.9219H83.4414V27.7995H85.5854V21.83H85.9699L90.0213 27.7995H92.6385L88.247 21.5929C89.1933 21.3977 89.9474 20.9653 90.5241 20.2819ZM85.5854 20.0587V15.8187H86.3543C88.3209 15.8187 89.3116 16.5021 89.3116 17.869C89.3116 19.3335 88.2913 20.0587 86.2656 20.0587H85.5854Z" fill="#ECECEC"/>
<path d="M110.16 17.1158C110.16 18.5245 109.643 19.724 108.622 20.7003C107.602 21.6766 106.345 22.1508 104.852 22.1508C103.477 22.1508 102.279 21.6766 101.229 20.7282C100.179 19.7798 99.6471 18.5663 99.6471 17.0879C99.6471 15.8606 100.032 14.8145 100.8 13.9219H98.3015C97.7544 14.8703 97.4883 15.9163 97.4883 17.06C97.4883 19.194 98.2867 20.9374 99.8984 22.2485C101.348 23.4479 103.004 24.0477 104.822 24.0477C106.892 24.0477 108.652 23.3782 110.116 22.0253C111.58 20.6863 112.304 19.0545 112.304 17.1298C112.304 15.9582 112.023 14.8842 111.476 13.9219H108.992C109.776 14.8145 110.16 15.8745 110.16 17.1158Z" fill="#ECECEC"/>
<path d="M104.943 24.3906C102.902 24.3906 101.143 25.0601 99.6935 26.413C99.1168 26.943 98.6584 27.5148 98.3184 28.1285H100.817C100.936 27.989 101.054 27.8635 101.187 27.738C102.207 26.7617 103.449 26.2875 104.928 26.2875C106.406 26.2875 107.649 26.7756 108.654 27.738C108.787 27.8635 108.905 27.989 109.024 28.1285H111.508C111.168 27.5288 110.709 26.9569 110.162 26.4269C108.698 25.074 106.968 24.3906 104.943 24.3906Z" fill="#ECECEC"/>
<path d="M43.3282 13.9219L36.3047 28.1342H38.6114L40.1935 24.8845L41.0807 22.9877L43.2838 18.4408L45.3835 22.9877L46.2559 24.8845L47.7493 28.1342H50.0855L43.3282 13.9219Z" fill="#ECECEC"/>
<path d="M144.362 13.9219L137.354 28.1342H139.66L141.228 24.8845L142.129 22.9877L144.333 18.4408L146.432 22.9877L147.305 24.8845L148.783 28.1342H151.134L144.362 13.9219Z" fill="#ECECEC"/>
<path d="M125.348 24.2238L120.291 13.2891L117.186 28.2964H119.403L121.03 19.5375L125.348 28.8264L129.665 19.5793L131.292 28.2964H133.524L130.405 13.2891L125.348 24.2238Z" fill="#ECECEC"/>
<path d="M155.851 14.2539V16.1507H162.061L154.697 28.2989H165.476V26.4021H158.231L165.595 14.2539H155.851Z" fill="#ECECEC"/>
<path d="M172.635 14.2539H170.477V28.285H172.635V14.2539Z" fill="#ECECEC"/>
<path d="M189.592 24.171L178.68 14.0312V28.2994H180.838V18.2991L191.751 28.5226V14.2544H189.592V24.171Z" fill="#ECECEC"/>
<path d="M205.326 21.0601V22.943H209.082C208.993 23.9194 208.505 24.7841 207.618 25.5094C206.671 26.2904 205.622 26.6949 204.498 26.6949C203.004 26.6949 201.703 26.137 200.639 25.0491C199.574 23.9612 199.027 22.678 199.027 21.2554C199.027 19.7491 199.574 18.4659 200.653 17.4199C201.733 16.3738 203.078 15.8438 204.66 15.8438C205.503 15.8438 206.331 16.0391 207.13 16.4296C207.928 16.8201 208.594 17.3501 209.096 18.0057L209.215 18.1591L210.738 16.7783L210.634 16.6667C209.91 15.8159 209.008 15.1465 207.943 14.6723C206.878 14.198 205.74 13.9609 204.586 13.9609C202.457 13.9609 200.609 14.6862 199.13 16.1088C197.637 17.5315 196.883 19.2888 196.883 21.3112C196.883 23.2778 197.622 24.9933 199.086 26.4299C200.55 27.8665 202.339 28.5917 204.409 28.5917C206.464 28.5917 208.18 27.9362 209.481 26.653C210.797 25.3699 211.462 23.7241 211.462 21.7715V21.0601H205.326Z" fill="#ECECEC"/>
</svg>
