<svg width="124" height="32" viewBox="0 0 124 32" fill="none" xmlns="http://www.w3.org/2000/svg">
<path d="M43.2422 14.9052L42.4883 14.5669C41.9386 14.3153 41.6716 13.9942 41.6716 13.5865C41.6716 13.2915 41.7737 13.0486 41.9857 12.8577C42.1978 12.6582 42.4569 12.5627 42.771 12.5627C43.0301 12.5627 43.2343 12.6235 43.3992 12.7362C43.5563 12.8404 43.7211 13.0486 43.8939 13.3869L44.8127 12.7796C44.3258 11.8426 43.6426 11.3828 42.7788 11.3828C42.1349 11.3828 41.601 11.591 41.1691 12.0162C40.7372 12.4326 40.5173 12.9618 40.5173 13.5865C40.5173 14.5148 41.0356 15.2175 42.0643 15.6947L42.7945 16.0331C42.983 16.1198 43.1479 16.2153 43.2814 16.3194C43.4149 16.4148 43.5327 16.5189 43.6191 16.6404C43.7054 16.7532 43.7683 16.8746 43.8075 17.0134C43.8468 17.1523 43.8703 17.2998 43.8703 17.4559C43.8703 17.855 43.7526 18.1934 43.517 18.4536C43.2814 18.7139 42.9909 18.8441 42.6375 18.8441C42.1899 18.8441 41.8444 18.6619 41.6167 18.3062C41.4832 18.1153 41.3968 17.7856 41.3418 17.2911L40.1875 17.5687C40.2896 18.3409 40.5566 18.9482 40.9728 19.3733C41.3968 19.7984 41.9386 20.0153 42.5904 20.0153C43.2814 20.0153 43.8546 19.7637 44.3179 19.2605C44.7813 18.766 45.009 18.1326 45.009 17.3605C45.009 16.7879 44.8676 16.3107 44.5849 15.9116C44.2944 15.5125 43.8468 15.1828 43.2422 14.9052Z" fill="#10273F"/>
<path d="M47.7266 12.5549H49.4541V20.0075H50.5928V12.5549H52.3203V11.375H47.7266V12.5549Z" fill="#10273F"/>
<path d="M59.0875 15.3312C59.3938 14.9061 59.543 14.4029 59.543 13.8129C59.543 13.0581 59.2996 12.4508 58.8127 11.991C58.373 11.5745 57.6505 11.375 56.6611 11.375H55.3262V20.0075H56.4648V16.2942H56.669L58.8206 20.0075H60.2105L57.8783 16.1467C58.3808 16.0253 58.7813 15.7563 59.0875 15.3312ZM56.4648 15.1924V12.5549H56.8731C57.9175 12.5549 58.4436 12.98 58.4436 13.8303C58.4436 14.7412 57.9018 15.1924 56.826 15.1924H56.4648Z" fill="#10273F"/>
<path d="M69.5168 13.3618C69.5168 14.238 69.2419 14.9842 68.7001 15.5915C68.1583 16.1988 67.4908 16.4938 66.6977 16.4938C65.9674 16.4938 65.3313 16.1988 64.7738 15.6088C64.2163 15.0189 63.9336 14.2641 63.9336 13.3444C63.9336 12.5809 64.1377 11.9303 64.5461 11.375H63.219C62.9284 11.965 62.7871 12.6156 62.7871 13.3271C62.7871 14.6545 63.2111 15.739 64.0671 16.5545C64.8366 17.3006 65.7161 17.6737 66.682 17.6737C67.7813 17.6737 68.7158 17.2572 69.4932 16.4157C70.2706 15.5828 70.6554 14.5677 70.6554 13.3704C70.6554 12.6417 70.5062 11.9736 70.2156 11.375H68.8964C69.3126 11.9303 69.5168 12.5896 69.5168 13.3618Z" fill="#10273F"/>
<path d="M66.7445 17.8887C65.6609 17.8887 64.7264 18.3051 63.9568 19.1467C63.6506 19.4764 63.4072 19.8321 63.2266 20.2138H64.5536C64.6165 20.127 64.6793 20.049 64.75 19.9709C65.2918 19.3636 65.9514 19.0686 66.7367 19.0686C67.5219 19.0686 68.1815 19.3722 68.7155 19.9709C68.7862 20.049 68.849 20.127 68.9118 20.2138H70.2311C70.0504 19.8407 69.807 19.485 69.5165 19.1554C68.7391 18.3138 67.8203 17.8887 66.7445 17.8887Z" fill="#10273F"/>
<path d="M34.0229 11.375L30.293 20.2157H31.518L32.3582 18.1942L32.8293 17.0143L33.9994 14.186L35.1144 17.0143L35.5777 18.1942L36.3709 20.2157H37.6116L34.0229 11.375Z" fill="#10273F"/>
<path d="M87.6792 11.375L83.957 20.2157H85.182L86.0144 18.1942L86.4934 17.0143L87.6634 14.186L88.7785 17.0143L89.2418 18.1942L90.0271 20.2157H91.2756L87.6792 11.375Z" fill="#10273F"/>
<path d="M77.5827 17.7843L74.8971 10.9824L73.248 20.3177H74.4259L75.2897 14.8692L77.5827 20.6473L79.8756 14.8952L80.7394 20.3177H81.9251L80.2682 10.9824L77.5827 17.7843Z" fill="#10273F"/>
<path d="M93.7805 11.584V12.7639H97.0785L93.168 20.3206H98.8925V19.1407H95.0447L98.9553 11.584H93.7805Z" fill="#10273F"/>
<path d="M102.693 11.584H101.547V20.3119H102.693V11.584Z" fill="#10273F"/>
<path d="M111.701 17.7507L105.906 11.4434V20.3188H107.053V14.0982L112.848 20.4576V11.5822H111.701V17.7507Z" fill="#10273F"/>
<path d="M120.056 15.8164V16.9876H122.051C122.004 17.595 121.744 18.1329 121.273 18.584C120.771 19.0699 120.213 19.3215 119.616 19.3215C118.823 19.3215 118.132 18.9744 117.567 18.2977C117.001 17.621 116.711 16.8228 116.711 15.9379C116.711 15.0009 117.001 14.2027 117.575 13.552C118.148 12.9013 118.862 12.5716 119.703 12.5716C120.15 12.5716 120.59 12.6931 121.014 12.936C121.438 13.1789 121.791 13.5086 122.058 13.9164L122.121 14.0118L122.93 13.1529L122.875 13.0835C122.49 12.5543 122.011 12.1378 121.446 11.8429C120.881 11.5479 120.276 11.4004 119.663 11.4004C118.533 11.4004 117.551 11.8515 116.766 12.7365C115.973 13.6214 115.572 14.7146 115.572 15.9726C115.572 17.1959 115.965 18.263 116.742 19.1566C117.52 20.0502 118.47 20.5014 119.569 20.5014C120.661 20.5014 121.572 20.0936 122.263 19.2954C122.962 18.4972 123.315 17.4735 123.315 16.2589V15.8164H120.056Z" fill="#10273F"/>
<path d="M10.4263 0L11.722 1.78723V23.1299H9.13062V1.78723L10.4263 0ZM17.8862 26.765L20.4776 23.1906V17.0568L17.8862 13.4823V26.765ZM2.96635 13.4736L0.375 17.0481V23.1819L2.96635 26.7564V13.4736ZM13.5124 31.6235L16.1037 27.997V7.4786L13.5124 3.90414V31.6235ZM7.34809 3.89546L4.75674 7.46992V27.9883L7.34809 31.6235V3.89546Z" fill="#10273F"/>
</svg>
