<svg width="15" height="17" viewBox="0 0 15 17" fill="none" xmlns="http://www.w3.org/2000/svg">
<path d="M2.25523 0C1.40156 0 0.707031 0.694525 0.707031 1.5482V15.0035C0.707031 15.8572 1.40156 16.5517 2.25523 16.5517H6.70954V0H2.25523Z" fill="url(#paint0_linear_4076_134744)"/>
<path d="M2.41159 0.863281C1.98111 0.863281 1.62891 1.21549 1.62891 1.64596V3.47777C1.62891 3.90824 1.98111 4.26045 2.41159 4.26045C2.84206 4.26045 3.19427 3.90824 3.19427 3.47777V1.64596C3.19427 1.21549 2.84206 0.863281 2.41159 0.863281Z" fill="url(#paint1_linear_4076_134744)"/>
<path d="M12.5206 0H6.70835C5.85468 0 5.16016 0.694525 5.16016 1.5482V15.0035C5.16016 15.8572 5.85468 16.5517 6.70835 16.5517H12.5206C13.3743 16.5517 14.0688 15.8572 14.0688 15.0035V1.5482C14.0688 0.694525 13.3743 0 12.5206 0Z" fill="url(#paint2_linear_4076_134744)"/>
<path d="M13.2126 15.0032C13.2126 15.3845 12.9035 15.6936 12.5222 15.6936H6.70995C6.32865 15.6936 6.01953 15.3845 6.01953 15.0032V1.54787C6.01953 1.16657 6.32865 0.857454 6.70995 0.857454H7.43431C7.50283 0.857454 7.56855 0.884674 7.617 0.933127C7.66545 0.981579 7.69267 1.04729 7.69267 1.11582V1.27965C7.69267 1.49948 7.87251 1.67932 8.09234 1.67932H11.1398C11.3596 1.67932 11.5394 1.49948 11.5394 1.27965V1.04269C11.5394 0.993554 11.5589 0.946431 11.5937 0.911686C11.6284 0.876941 11.6756 0.857422 11.7247 0.857422H12.5222C12.9035 0.857422 13.2126 1.16654 13.2126 1.54784V15.0032Z" fill="url(#paint3_linear_4076_134744)"/>
<path d="M10.6208 1.10725H9.31666C9.25041 1.10725 9.18687 1.08093 9.14003 1.03409C9.09318 0.987241 9.06687 0.923705 9.06687 0.857455C9.06687 0.791205 9.09318 0.727669 9.14003 0.680823C9.18687 0.633978 9.25041 0.60766 9.31666 0.60766H10.6208C10.6871 0.60766 10.7506 0.633978 10.7975 0.680823C10.8443 0.727669 10.8706 0.791205 10.8706 0.857455C10.8706 0.923705 10.8443 0.987241 10.7975 1.03409C10.7506 1.08093 10.6871 1.10725 10.6208 1.10725ZM8.39242 1.06516C8.21358 0.947616 8.25693 0.660257 8.482 0.612541C8.6351 0.580957 8.78077 0.699535 8.78077 0.857326C8.78077 0.973349 8.70069 1.07735 8.57959 1.10247C8.56362 1.10544 8.44327 1.09956 8.39242 1.06516ZM2.27324 1.88715C2.15446 1.80601 2.12993 1.65103 2.20431 1.54076C2.3365 1.33998 2.66159 1.42901 2.66159 1.67932C2.66159 1.80013 2.57472 1.90277 2.46074 1.9241C2.4296 1.93063 2.33084 1.92501 2.27324 1.88715Z" fill="url(#paint4_linear_4076_134744)"/>
<path d="M2.27324 2.7698C2.15446 2.68866 2.12993 2.53368 2.20431 2.42341C2.30789 2.26232 2.5626 2.27677 2.64261 2.46637C2.68043 2.55576 2.66168 2.66548 2.58866 2.73847C2.52911 2.79802 2.37571 2.83714 2.27324 2.7698Z" fill="url(#paint5_linear_4076_134744)"/>
<path d="M2.27309 3.65319C2.10825 3.54486 2.13072 3.29332 2.31605 3.2149C2.57771 3.11265 2.77578 3.43498 2.58851 3.62222C2.52356 3.68717 2.38397 3.72897 2.27309 3.65319Z" fill="url(#paint6_linear_4076_134744)"/>
<defs>
<linearGradient id="paint0_linear_4076_134744" x1="-10.2431" y1="-30.4727" x2="28.7059" y2="-5.48897" gradientUnits="userSpaceOnUse">
<stop offset="0.662957" stop-color="#F6BB91" stop-opacity="0.549561"/>
<stop offset="0.907674" stop-color="white"/>
</linearGradient>
<linearGradient id="paint1_linear_4076_134744" x1="2.41162" y1="0.88781" x2="2.41162" y2="4.25608" gradientUnits="userSpaceOnUse">
<stop stop-color="#E0B181"/>
<stop offset="1" stop-color="#BE9367"/>
</linearGradient>
<linearGradient id="paint2_linear_4076_134744" x1="9.61466" y1="0.119511" x2="9.61466" y2="16.5304" gradientUnits="userSpaceOnUse">
<stop stop-color="#E0B181"/>
<stop offset="1" stop-color="#BE9367"/>
</linearGradient>
<linearGradient id="paint3_linear_4076_134744" x1="-7.10253" y1="-26.4569" x2="30.4425" y2="4.54454" gradientUnits="userSpaceOnUse">
<stop offset="0.404667" stop-color="#F6BB91" stop-opacity="0.549561"/>
<stop offset="0.876292" stop-color="white"/>
</linearGradient>
<linearGradient id="paint4_linear_4076_134744" x1="-13.7246" y1="-1.82096" x2="-13.1247" y2="4.92438" gradientUnits="userSpaceOnUse">
<stop offset="0.565205" stop-color="#F6BB91" stop-opacity="0.549561"/>
<stop offset="0.907674" stop-color="white"/>
</linearGradient>
<linearGradient id="paint5_linear_4076_134744" x1="1.25079" y1="1.40545" x2="2.35207" y2="3.30717" gradientUnits="userSpaceOnUse">
<stop offset="0.565205" stop-color="#F6BB91" stop-opacity="0.549561"/>
<stop offset="0.907674" stop-color="white"/>
</linearGradient>
<linearGradient id="paint6_linear_4076_134744" x1="1.24968" y1="2.27752" x2="2.36981" y2="4.19151" gradientUnits="userSpaceOnUse">
<stop offset="0.565205" stop-color="#F6BB91" stop-opacity="0.549561"/>
<stop offset="0.907674" stop-color="white"/>
</linearGradient>
</defs>
</svg>
