<svg xmlns="http://www.w3.org/2000/svg" width="16" height="16" viewBox="0 0 16 16" fill="none">
  <circle cx="8" cy="8" r="8" fill="url(#paint0_linear_5714_8467)"/>
  <path fill-rule="evenodd" clip-rule="evenodd" d="M8 4C8.55228 4 9 4.46311 9 5.03437V7.10312H11C11.5523 7.10312 12 7.56623 12 8.1375C12 8.70877 11.5523 9.17188 11 9.17188H9V11.2406C9 11.8119 8.55228 12.275 8 12.275C7.44772 12.275 7 11.8119 7 11.2406V9.17188H5C4.44772 9.17188 4 8.70877 4 8.1375C4 7.56623 4.44772 7.10312 5 7.10312H7V5.03437C7 4.46311 7.44772 4 8 4Z" fill="url(#paint1_linear_5714_8467)"/>
  <defs>
    <linearGradient id="paint0_linear_5714_8467" x1="8.00034" y1="0.115527" x2="8.00034" y2="15.9794" gradientUnits="userSpaceOnUse">
      <stop stop-color="#E0B181"/>
      <stop offset="1" stop-color="#BE9367"/>
    </linearGradient>
    <linearGradient id="paint1_linear_5714_8467" x1="8.00017" y1="4.05975" x2="8.00017" y2="17.9319" gradientUnits="userSpaceOnUse">
      <stop stop-color="#FFF5EB"/>
      <stop offset="1" stop-color="#EEC093"/>
    </linearGradient>
  </defs>
</svg>