<svg width="17" height="17" viewBox="0 0 17 17" fill="none" xmlns="http://www.w3.org/2000/svg">
<path d="M16.5517 8.45535C16.5517 12.9265 12.8465 16.5513 8.27581 16.5513C3.70527 16.5513 0 12.9265 0 8.45535C0 3.98407 3.70527 0.359375 8.27581 0.359375C12.8465 0.359375 16.5517 3.98407 16.5517 8.45535Z" fill="url(#paint0_linear_4415_21445)"/>
<path d="M8.78469 3.50167H7.80859V2.4118C7.80848 2.13484 8.02709 1.91016 8.29669 1.91016C8.56628 1.91016 8.78472 2.13484 8.78472 2.4118L8.78469 3.50167Z" fill="url(#paint1_linear_4415_21445)"/>
<path d="M11.2871 12.2721L11.6911 10.2331C11.7317 10.0285 11.7175 9.81678 11.65 9.61942L9.5397 3.4472C9.5133 3.37001 9.46343 3.30301 9.39708 3.25557C9.33072 3.20812 9.25119 3.18262 9.16963 3.18262H7.42466C7.25766 3.18262 7.10906 3.28872 7.05471 3.4467L4.94513 9.58482C4.8774 9.78201 4.86289 9.99359 4.90308 10.1982L5.31285 12.2849C5.51023 13.2899 5.60962 14.3118 5.60962 15.336V15.6933C6.45114 15.9964 7.35828 16.0738 8.30416 16.0738C9.2449 16.0738 10.1474 15.9757 10.985 15.6756V15.3497C10.985 14.3165 11.0863 13.2857 11.2871 12.2721Z" fill="url(#paint2_linear_4415_21445)"/>
<path d="M5.43263 8.80969L5.20508 9.46132H11.3872L11.1608 8.80969H5.43263ZM5.65243 13.3686H10.9517C10.9775 13.1508 11.0081 12.9335 11.0437 12.717H5.56089C5.59633 12.9335 5.62683 13.1508 5.65243 13.3686ZM9.86928 5.09277H6.73086L6.50328 5.7444H10.0957L9.86928 5.09277Z" fill="url(#paint3_linear_4415_21445)"/>
<defs>
<linearGradient id="paint0_linear_4415_21445" x1="8.27622" y1="0.476288" x2="8.27622" y2="16.5304" gradientUnits="userSpaceOnUse">
<stop stop-color="#E0B181"/>
<stop offset="1" stop-color="#BE9367"/>
</linearGradient>
<linearGradient id="paint1_linear_4415_21445" x1="8.29668" y1="1.92165" x2="8.29668" y2="3.49962" gradientUnits="userSpaceOnUse">
<stop stop-color="#FFE5CB"/>
<stop offset="1" stop-color="#EEC093"/>
</linearGradient>
<linearGradient id="paint2_linear_4415_21445" x1="8.29744" y1="3.2757" x2="8.29744" y2="24.8864" gradientUnits="userSpaceOnUse">
<stop stop-color="#FFF5EB"/>
<stop offset="1" stop-color="#EEC093"/>
</linearGradient>
<linearGradient id="paint3_linear_4415_21445" x1="8.29627" y1="5.15253" x2="8.29627" y2="13.358" gradientUnits="userSpaceOnUse">
<stop stop-color="#E0B181"/>
<stop offset="1" stop-color="#BE9367"/>
</linearGradient>
</defs>
</svg>
