<svg width="16" height="16" viewBox="0 0 16 16" fill="none" xmlns="http://www.w3.org/2000/svg">
<g clip-path="url(#clip0_1550_55308)">
<path d="M15.7261 14.381L12.6505 11.3062C13.5884 10.0838 14.0958 8.58581 14.0939 7.04523C14.0939 5.16316 13.3608 3.39439 12.0298 2.06367C11.377 1.40738 10.6004 0.887069 9.74514 0.532844C8.88984 0.178619 7.97275 -0.00248157 7.04697 2.56816e-05C5.1649 2.56816e-05 3.39569 0.732943 2.06415 2.06367C-0.682843 4.81045 -0.682843 9.28001 2.06415 12.0268C2.71695 12.6831 3.49347 13.2034 4.34878 13.5576C5.20409 13.9119 6.12118 14.093 7.04697 14.0904C8.60896 14.0904 10.0889 13.5789 11.3095 12.6469L14.3851 15.7222C14.57 15.9071 14.8128 16 15.0556 16C15.2984 16 15.5412 15.9071 15.7261 15.7222C15.8142 15.6341 15.8841 15.5296 15.9318 15.4145C15.9795 15.2995 16.004 15.1762 16.004 15.0516C16.004 14.9271 15.9795 14.8037 15.9318 14.6887C15.8841 14.5736 15.8142 14.4691 15.7261 14.381ZM3.40565 10.6861C1.39744 8.67841 1.39791 5.41205 3.40565 3.40435C3.88286 2.92486 4.45043 2.54474 5.07554 2.28597C5.70064 2.0272 6.37087 1.89492 7.04744 1.89679C7.72394 1.89494 8.3941 2.02722 9.01912 2.28599C9.64415 2.54476 10.2116 2.92487 10.6888 3.40435C11.1685 3.88137 11.5488 4.44878 11.8078 5.07373C12.0667 5.69869 12.199 6.36879 12.1972 7.04523C12.1972 8.42052 11.6613 9.71331 10.6888 10.6861C9.7162 11.6589 8.42308 12.1937 7.04697 12.1937C5.67181 12.1937 4.37821 11.658 3.40517 10.6861H3.40565Z" fill="url(#paint0_linear_1550_55308)"/>
</g>
<defs>
<linearGradient id="paint0_linear_1550_55308" x1="8.00431" y1="0.115527" x2="8.00431" y2="15.9794" gradientUnits="userSpaceOnUse">
<stop stop-color="#E0B181"/>
<stop offset="1" stop-color="#BE9367"/>
</linearGradient>
<clipPath id="clip0_1550_55308">
<rect width="16" height="16" fill="white"/>
</clipPath>
</defs>
</svg>
