<svg width="14" height="15" viewBox="0 0 14 15" fill="none" xmlns="http://www.w3.org/2000/svg">
<g id="Interface / Star">
<path id="Vector" d="M1.36206 6.52966C1.17933 6.36068 1.27859 6.05519 1.52575 6.02589L5.02783 5.6105C5.12856 5.59856 5.21606 5.5353 5.25854 5.44319L6.73568 2.24081C6.83992 2.01481 7.16122 2.01477 7.26546 2.24077L8.74259 5.44312C8.78508 5.53523 8.87201 5.59866 8.97274 5.6106L12.475 6.02589C12.7222 6.05519 12.8212 6.36077 12.6384 6.52975L10.0495 8.92432C9.97506 8.99319 9.9419 9.09571 9.96167 9.1952L10.6488 12.6542C10.6973 12.8983 10.4375 13.0874 10.2203 12.9659L7.143 11.2429C7.05449 11.1934 6.94695 11.1936 6.85844 11.2431L3.78084 12.9654C3.56366 13.087 3.30338 12.8983 3.35189 12.6542L4.03908 9.19541C4.05885 9.09592 4.02578 8.99317 3.95131 8.9243L1.36206 6.52966Z" stroke="url(#paint0_linear_4310_38178)" stroke-width="1.5" stroke-linecap="round" stroke-linejoin="round"/>
</g>
<defs>
<linearGradient id="paint0_linear_4310_38178" x1="7.00053" y1="2.15023" x2="7.00053" y2="12.9897" gradientUnits="userSpaceOnUse">
<stop stop-color="#E0B181"/>
<stop offset="1" stop-color="#BE9367"/>
</linearGradient>
</defs>
</svg>
