<svg xmlns="http://www.w3.org/2000/svg" width="14" height="15" viewBox="0 0 14 15" fill="none">
  <path d="M3.5 4H8.16667H10.5C11.0436 4 11.3154 4 11.5298 4.08881C11.8157 4.20722 12.0427 4.43447 12.1611 4.72034C12.2499 4.93474 12.2499 5.20654 12.2499 5.75013C11.2834 5.75013 10.5 6.5335 10.5 7.5C10.5 8.4665 11.2834 9.25 12.2499 9.25C12.2499 9.7936 12.2499 10.0654 12.1611 10.2798C12.0427 10.5657 11.8157 10.7927 11.5298 10.9111C11.3154 10.9999 11.0436 11 10.5 11H8.16667H3.5C2.9564 11 2.68445 10.9999 2.47005 10.9111C2.18419 10.7927 1.95722 10.5657 1.83881 10.2798C1.75 10.0654 1.75 9.7936 1.75 9.25C2.7165 9.25 3.5 8.46636 3.5 7.49987C3.5 6.53337 2.7165 5.75013 1.75 5.75013C1.75 5.20654 1.75 4.93474 1.83881 4.72034C1.95722 4.43447 2.18419 4.20722 2.47005 4.08881C2.68445 4 2.9564 4 3.5 4Z" fill="url(#paint0_linear_5673_25900)"/>
  <path d="M8.16667 4H3.5C2.9564 4 2.68445 4 2.47005 4.08881C2.18419 4.20722 1.95722 4.43447 1.83881 4.72034C1.75 4.93474 1.75 5.20654 1.75 5.75013C2.7165 5.75013 3.5 6.53337 3.5 7.49987C3.5 8.46636 2.7165 9.25 1.75 9.25C1.75 9.7936 1.75 10.0654 1.83881 10.2798C1.95722 10.5657 2.18419 10.7927 2.47005 10.9111C2.68445 10.9999 2.9564 11 3.5 11H8.16667M8.16667 4H10.5C11.0436 4 11.3154 4 11.5298 4.08881C11.8157 4.20722 12.0427 4.43447 12.1611 4.72034C12.2499 4.93474 12.2499 5.20654 12.2499 5.75013C11.2834 5.75013 10.5 6.5335 10.5 7.5C10.5 8.4665 11.2834 9.25 12.2499 9.25C12.2499 9.7936 12.2499 10.0654 12.1611 10.2798C12.0427 10.5657 11.8157 10.7927 11.5298 10.9111C11.3154 10.9999 11.0436 11 10.5 11H8.16667M8.16667 4V11" stroke="url(#paint1_linear_5673_25900)" stroke-width="1.4" stroke-linecap="round" stroke-linejoin="round"/>
  <defs>
    <linearGradient id="paint0_linear_5673_25900" x1="1.75" y1="5.6625" x2="6.33493" y2="-1.43902" gradientUnits="userSpaceOnUse">
      <stop offset="0.193888" stop-color="#FFF0D8"/>
      <stop offset="0.948029" stop-color="#FFD797"/>
    </linearGradient>
    <linearGradient id="paint1_linear_5673_25900" x1="1.75" y1="5.6625" x2="6.33493" y2="-1.43902" gradientUnits="userSpaceOnUse">
      <stop offset="0.193888" stop-color="#FFF0D8"/>
      <stop offset="0.948029" stop-color="#FFD797"/>
    </linearGradient>
  </defs>
</svg>