<svg width="18" height="18" viewBox="0 0 18 18" fill="none" xmlns="http://www.w3.org/2000/svg">
<path d="M4.66212 4.34844C4.66212 1.94611 6.60824 0.00577482 9.00478 0C11.4071 0 13.3532 1.94611 13.359 4.34844C13.359 6.75076 11.4129 8.69687 9.01056 8.69687H9.00478C6.60824 8.69687 4.65635 6.75076 4.66212 4.34844Z" fill="url(#paint0_linear_4404_21598)"/>
<path d="M15.9337 14.2747C15.9337 14.8175 15.6969 15.3315 15.2869 15.6837C13.5371 17.1852 11.3081 18.0052 9.00391 17.9994C6.69976 18.0052 4.47068 17.1852 2.72091 15.6837C2.30513 15.3315 2.06836 14.8175 2.06836 14.2747C2.06836 11.8435 4.04335 9.8916 6.47454 9.8916H11.5391C13.9703 9.8916 15.9337 11.8435 15.9337 14.2747Z" fill="url(#paint1_linear_4404_21598)"/>
<defs>
<linearGradient id="paint0_linear_4404_21598" x1="9.01074" y1="0.0627952" x2="9.01074" y2="8.68567" gradientUnits="userSpaceOnUse">
<stop stop-color="#E0B181"/>
<stop offset="1" stop-color="#BE9367"/>
</linearGradient>
<linearGradient id="paint1_linear_4404_21598" x1="9.00132" y1="9.95014" x2="9.00132" y2="17.989" gradientUnits="userSpaceOnUse">
<stop stop-color="#E0B181"/>
<stop offset="1" stop-color="#BE9367"/>
</linearGradient>
</defs>
</svg>
