<svg width="14" height="15" viewBox="0 0 14 15" fill="none" xmlns="http://www.w3.org/2000/svg">
<g clip-path="url(#clip0_5717_34658)">
<path d="M3.62647 3.88212C3.62647 2.01364 5.14012 0.504492 7.0041 0.5C8.87257 0.5 10.3862 2.01364 10.3907 3.88212C10.3907 5.75059 8.87707 7.26423 7.00859 7.26423H7.0041C5.14012 7.26423 3.62198 5.75059 3.62647 3.88212Z" fill="url(#paint0_linear_5717_34658)"/>
<path d="M12.3933 11.6024C12.3933 12.0246 12.2091 12.4244 11.8902 12.6984C10.5293 13.8662 8.79557 14.5039 7.00345 14.4995C5.21133 14.5039 3.4776 13.8662 2.11667 12.6984C1.79328 12.4244 1.60913 12.0246 1.60913 11.6024C1.60913 9.71149 3.14523 8.19336 5.03616 8.19336H8.97523C10.8662 8.19336 12.3933 9.71149 12.3933 11.6024Z" fill="url(#paint1_linear_5717_34658)"/>
</g>
<defs>
<linearGradient id="paint0_linear_5717_34658" x1="3.62646" y1="2.10651" x2="8.48536" y2="-2.91077" gradientUnits="userSpaceOnUse">
<stop offset="0.193888" stop-color="#FFF0D8"/>
<stop offset="0.948029" stop-color="#FFD797"/>
</linearGradient>
<linearGradient id="paint1_linear_5717_34658" x1="1.60913" y1="9.69106" x2="5.4958" y2="2.82778" gradientUnits="userSpaceOnUse">
<stop offset="0.193888" stop-color="#FFF0D8"/>
<stop offset="0.948029" stop-color="#FFD797"/>
</linearGradient>
<clipPath id="clip0_5717_34658">
<rect width="14" height="14" fill="white" transform="translate(0 0.5)"/>
</clipPath>
</defs>
</svg>
