<svg xmlns="http://www.w3.org/2000/svg" width="14" height="14" viewBox="0 0 14 14" fill="none">
  <g clip-path="url(#clip0_4571_40782)">
    <path fill-rule="evenodd" clip-rule="evenodd" d="M3.36186 0.792354C4.14278 0.43377 5.06558 0.615746 5.65191 1.24395C6.38075 2.02485 7.6186 2.02485 8.34744 1.24395C8.93376 0.615746 9.85657 0.43377 10.6375 0.792354C11.0959 1.00285 11.4343 1.36339 11.6243 1.78706C11.8864 2.37138 12.3593 2.99838 12.9997 2.99838C13.3679 2.99838 13.6663 3.29686 13.6663 3.66505V6.33171C13.6663 6.6999 13.3679 6.99838 12.9997 6.99838C12.6315 6.99838 12.333 7.29686 12.333 7.66505V12.3317C12.333 13.0681 11.7361 13.665 10.9997 13.665H2.99967C2.2633 13.665 1.66634 13.0681 1.66634 12.3317V7.66505C1.66634 7.29686 1.36786 6.99838 0.999674 6.99838C0.631485 6.99838 0.333008 6.6999 0.333008 6.33171V3.66505C0.333008 3.29686 0.631485 2.99838 0.999674 2.99838C1.64007 2.99838 2.11294 2.37137 2.37503 1.78706C2.56506 1.36339 2.90345 1.00285 3.36186 0.792354ZM3.25435 4.33171C3.26274 4.33187 3.27114 4.33187 3.27954 4.33171H5.66634C6.03453 4.33171 6.33301 4.63019 6.33301 4.99838C6.33301 5.36657 6.03453 5.66505 5.66634 5.66505H2.33301C1.96482 5.66505 1.66634 5.36657 1.66634 4.99838C1.66634 4.63019 1.96482 4.33171 2.33301 4.33171H3.25435ZM6.33301 8.66505C6.33301 7.74457 5.58682 6.99838 4.66634 6.99838C3.74587 6.99838 2.99967 7.74457 2.99967 8.66505V10.665C2.99967 11.5855 3.74587 12.3317 4.66634 12.3317C5.58682 12.3317 6.33301 11.5855 6.33301 10.665V8.66505ZM9.33301 12.3317C8.41253 12.3317 7.66634 11.5855 7.66634 10.665V8.66505C7.66634 7.74457 8.41253 6.99838 9.33301 6.99838C10.2535 6.99838 10.9997 7.74457 10.9997 8.66505V10.665C10.9997 11.5855 10.2535 12.3317 9.33301 12.3317ZM8.33301 5.66505C7.96482 5.66505 7.66634 5.36657 7.66634 4.99838C7.66634 4.63019 7.96482 4.33171 8.33301 4.33171H10.7198C10.7282 4.33187 10.7366 4.33187 10.745 4.33171H11.6663C12.0345 4.33171 12.333 4.63019 12.333 4.99838C12.333 5.36657 12.0345 5.66505 11.6663 5.66505H8.33301ZM10.2611 2.99838C10.3112 2.99838 10.3574 2.97128 10.3819 2.92754C10.5704 2.59091 10.4317 2.16505 10.0811 2.00405C9.8223 1.88522 9.51649 1.94552 9.32218 2.15371C9.02263 2.47465 9.25022 2.99838 9.68923 2.99838H10.2611ZM4.67717 2.15371C4.97672 2.47465 4.74913 2.99838 4.31011 2.99838H3.73829C3.68814 2.99838 3.64192 2.97128 3.61742 2.92754C3.42891 2.59091 3.56764 2.16505 3.91826 2.00405C4.17705 1.88522 4.48286 1.94552 4.67717 2.15371Z" fill="white"/>
  </g>
  <defs>
    <clipPath id="clip0_4571_40782">
      <rect width="13.3333" height="13.3333" fill="white" transform="translate(0.333008 0.333008)"/>
    </clipPath>
  </defs>
</svg>