<svg xmlns="http://www.w3.org/2000/svg" width="20" height="20" viewBox="0 0 20 20" fill="none">
  <g clip-path="url(#clip0_4571_40789)">
    <path fill-rule="evenodd" clip-rule="evenodd" d="M4.54329 0.690973C5.71466 0.153096 7.09887 0.426061 7.97835 1.36837L10 3.53442L12.0216 1.36837C12.9011 0.426061 14.2853 0.153096 15.4567 0.690973C16.7521 1.28579 17.4085 2.67934 17.142 4.00001H19C19.5523 4.00001 20 4.44773 20 5.00001V9.00001C20 9.5523 19.5523 10 19 10H18V18C18 19.1046 17.1046 20 16 20H4C2.89543 20 2 19.1046 2 18V10H1C0.447715 10 0 9.5523 0 9.00001V5.00001C0 4.44773 0.447715 4.00001 1 4.00001H2.85803C2.5915 2.67934 3.2479 1.28579 4.54329 0.690973ZM4.38202 6.00001C4.3946 6.00025 4.4072 6.00025 4.4198 6.00001H9V8.00001H2V6.00001H4.38202ZM9 10H4V18H9V10ZM11 18V10H16V18H11ZM11 8.00001V6.00001H15.5802C15.5928 6.00025 15.6054 6.00025 15.618 6.00001H18V8.00001H11ZM15.0139 4.00001L15.0734 3.89375C15.3562 3.3888 15.1481 2.75002 14.6221 2.50852C14.2339 2.33027 13.7752 2.42073 13.4838 2.733L12.3012 4.00001H15.0139ZM7.69878 4.00001H4.98612L4.92662 3.89375C4.64385 3.3888 4.85194 2.75002 5.37787 2.50852C5.76606 2.33027 6.22478 2.42073 6.51624 2.733L7.69878 4.00001Z" fill="white"/>
  </g>
  <defs>
    <clipPath id="clip0_4571_40789">
      <rect width="20" height="20" fill="white"/>
    </clipPath>
  </defs>
</svg>